<svg id="Capa_1" enable-background="new 0 0 512 512" height="512" viewBox="0 0 512 512" width="512" xmlns="http://www.w3.org/2000/svg"><g><path d="m37.092 319.57c1.427 2.255 3.696 3.847 6.302 4.42.711.156 1.432.233 2.149.233 1.91 0 3.796-.548 5.426-1.6l182.274-117.742 18.063 28.55c1.859 2.938 5.069 4.708 8.587 4.652 3.477-.048 6.679-1.897 8.457-4.886l81.197-136.464c1.939-3.259 1.868-7.334-.184-10.524-2.052-3.188-5.725-4.946-9.501-4.53l-156.664 17.185c-3.43.376-6.423 2.494-7.919 5.603-1.497 3.108-1.286 6.769.559 9.685l18.164 28.709-182.433 117.842c-4.608 2.978-5.958 9.111-3.025 13.747zm176.082-165.285c4.608-2.978 5.958-9.111 3.025-13.747l-14.894-23.54 120.795-13.249-62.606 105.219-14.748-23.31c-1.427-2.255-3.696-3.847-6.302-4.42-2.607-.573-5.334-.08-7.575 1.366l-182.273 117.743-17.853-28.219z"/><path d="m500.59 79.628 11.018-38.168c.872-3.02.273-6.274-1.616-8.784-1.889-2.512-4.849-3.989-7.992-3.989h-104.225c-5.523 0-10 4.478-10 10v159.723h-29.885c-5.523 0-10 4.478-10 10v41.362h-27.67c-5.523 0-10 4.478-10 10v52.639h-145.11c-5.523 0-10 4.477-10 10v52.638h-145.11c-5.523 0-10 4.477-10 10v88.266c0 5.522 4.477 10 10 10h465.331c5.523 0 10-4.478 10-10v-213.543c0-5.523-4.477-10-10-10h-27.669v-41.362c0-5.522-4.477-10-10-10h-29.886v-67.84h94.224c3.143 0 6.103-1.478 7.992-3.989s2.488-5.765 1.616-8.784zm-345.48 383.686h-135.11v-68.266h135.11zm155.11 0h-135.11v-130.904h135.11zm155.111-193.542v193.542h-135.111v-193.542zm-37.67-51.363v31.362h-59.771v-31.362zm52.913-136.007 8.131 28.168h-80.93v-61.883h80.93l-8.131 28.168c-.523 1.812-.523 3.734 0 5.547z"/></g></svg>