<svg id="Capa_1" enable-background="new 0 0 512 512" height="512" viewBox="0 0 512 512" width="512" xmlns="http://www.w3.org/2000/svg"><g><path d="m462.492 97.868c.003-2.449-.901-4.821-2.532-6.648-.253-.283-.423-.473-.435-.486 0 0-88.911-87.948-88.965-88-.003-.003-.148-.128-.376-.325-1.814-1.565-4.141-2.423-6.537-2.41-.001 0-.001 0-.001 0-.011.001-282.735.001-282.735.001-17.316 0-31.403 13.984-31.403 31.172v449.656c0 17.189 14.087 31.172 31.403 31.172h350.178c17.316 0 31.403-13.983 31.403-31.172v-382.956c0-.001 0-.002 0-.004zm-88.803-63.91 54.474 53.886h-54.474zm57.4 458.042h-350.178c-6.288 0-11.403-5.012-11.403-11.172v-449.656c0-6.16 5.116-11.172 11.403-11.172h272.778v77.844c0 5.522 4.477 10 10 10h78.803v372.984c0 6.16-5.115 11.172-11.403 11.172z"/><path d="m275.802 102.888c-3.371-.062-6.699 1.22-9.116 3.576-2.409 2.35-3.791 5.628-3.791 8.993v100.776c0 5.522 4.477 10 10 10h100.777c3.366 0 6.645-1.383 8.995-3.793 2.356-2.416 3.659-5.739 3.574-9.116-1.524-60.402-50.033-108.912-110.439-110.436zm7.094 103.346v-82.855c43.651 4.629 78.226 39.203 82.855 82.855z"/><path d="m229.119 373.383h.001c.006-.001.013-.001.019 0 29.779-.001 57.91-11.457 79.212-32.26 21.263-20.767 33.385-48.546 34.131-78.22.086-3.373-1.216-6.693-3.571-9.108-2.352-2.411-5.631-3.794-8.999-3.794h-90.793v-91.066c0-.37-.02-.741-.061-1.109-.73-6.535-6.247-11.359-12.824-11.172-29.674.747-57.453 12.869-78.219 34.132-20.803 21.301-32.26 49.432-32.261 79.211-.001 62.512 50.854 113.376 113.365 113.386zm-9.998-206.242v92.862c0 2.81 1.182 5.489 3.257 7.384 1.899 1.734 4.381 2.658 6.941 2.614h92.681c-4.922 47.182-44.116 83.154-92.403 83.381-.155-.007-.311-.011-.466-.011-.154 0-.309.003-.464.011-51.273-.258-92.912-42.054-92.911-93.385 0-48.49 36.042-87.91 83.365-92.856z"/><path d="m369.051 420.064h-226.102c-5.523 0-10 4.477-10 10 0 5.522 4.477 10 10 10h226.102c5.523 0 10-4.478 10-10 0-5.523-4.477-10-10-10z"/></g></svg>