<svg id="Capa_1" enable-background="new 0 0 512.008 512.008" height="512" viewBox="0 0 512.008 512.008" width="512" xmlns="http://www.w3.org/2000/svg"><g><path d="m494.768 389.094-40.399-164.561v-131.803c0-19.021-15.476-34.495-34.497-34.495h-7.036l-6.902-28.117c-4.745-19.33-24.336-31.19-43.664-26.449l-30.015 7.367c.035-.341.053-.686.053-1.036 0-5.523-4.478-10-10-10h-112.777c-5.522 0-10 4.477-10 10s4.478 10 10 10h12.255l-4.117 19.162-77.701 19.073h-28.002c-11.176 0-21.128 5.342-27.436 13.607l-40.839 10.025c-9.364 2.299-17.272 8.105-22.269 16.353-4.997 8.246-6.482 17.945-4.184 27.309l60.232 245.341v71.596c0 16.277 11.334 29.956 26.524 33.564l2.081 8.474c2.299 9.364 8.106 17.272 16.353 22.268 5.714 3.462 12.124 5.237 18.638 5.237 2.888 0 5.796-.349 8.672-1.055l138.49-33.993h131.645c19.021 0 34.497-15.474 34.497-34.494v-6.287l13.947-3.423c9.364-2.299 17.272-8.106 22.269-16.353 4.996-8.248 6.481-17.946 4.182-27.31zm-417.298-102.113-40.807-166.221c-1.025-4.175-.363-8.499 1.865-12.177s5.755-6.268 9.931-7.292l29.011-7.121zm289.568-263.888c8.624-2.117 17.356 3.174 19.473 11.794l5.731 23.349h-73.975l-4.729-22.011zm-124.795-3.093h47.353l15.743 73.277h-78.839zm-32.732 93.277h112.817v26.913h-112.817zm-64.541 378.252c-4.175 1.027-8.501.363-12.18-1.864-3.678-2.229-6.267-5.754-7.292-9.931l-.681-2.774h79.509zm289.399-49.063c0 7.992-6.503 14.494-14.497 14.494h-307.905c-7.994 0-14.497-6.502-14.497-14.494v-349.736c0-7.992 6.503-14.495 14.497-14.495h97.308l-3.232 15.042h-6.532c-5.522 0-10 4.478-10 10v46.913c0 5.523 4.478 10 10 10h56.409v49.705c0 5.523 4.478 10 10 10 5.523 0 10-4.477 10-10v-49.705h56.408c5.522 0 10-4.477 10-10v-46.913c0-5.522-4.478-10-10-10h-6.532l-3.232-15.042h97.308c7.994 0 14.497 6.503 14.497 14.495zm39.11-36.426c-2.228 3.677-5.755 6.267-9.931 7.292l-9.18 2.253v-107.164l20.976 85.441c1.026 4.175.364 8.5-1.865 12.178z"/><path d="m376.602 245.809h-221.364c-5.522 0-10 4.478-10 10s4.478 10 10 10h221.363c5.522 0 10-4.478 10-10s-4.477-10-9.999-10z"/><path d="m376.602 316.085h-221.364c-5.522 0-10 4.478-10 10s4.478 10 10 10h221.363c5.522 0 10-4.478 10-10 .001-5.522-4.477-10-9.999-10z"/></g></svg>