<svg id="Capa_1" enable-background="new 0 0 512 512" height="512" viewBox="0 0 512 512" width="512" xmlns="http://www.w3.org/2000/svg"><g><path d="m488.011 20h-57.809c-13.227 0-23.989 10.762-23.989 23.989v365.583c0 .079.041.884.043.912.144 1.559.645 3.013 1.421 4.282l42.824 72.329c1.8 3.04 5.071 4.905 8.605 4.905s6.805-1.865 8.605-4.905l42.824-72.329c1.039-1.574 1.426-4.337 1.429-4.364.003-.037.036-.751.036-.83 0-.006 0-365.583 0-365.583 0-13.227-10.762-23.989-23.989-23.989zm-61.798 379.553v-296.553h22.894v296.553zm42.893-296.553h22.894v296.553h-22.894zm-42.893-59.011c0-2.199 1.79-3.989 3.989-3.989h57.809c2.2 0 3.989 1.79 3.989 3.989v39.011h-65.787zm32.893 418.383-25.352-42.819h50.703z"/><path d="m111.593 141.079c-35.522 0-64.421 28.899-64.421 64.421s28.899 64.421 64.421 64.421 64.421-28.899 64.421-64.421-28.899-64.421-64.421-64.421zm0 108.842c-24.494 0-44.421-19.927-44.421-44.421s19.927-44.421 44.421-44.421 44.421 19.927 44.421 44.421-19.928 44.421-44.421 44.421z"/><path d="m116.378 189.983-8.125 8.125-2.748-1.556c-4.807-2.723-10.908-1.031-13.629 3.773-2.721 4.806-1.032 10.908 3.774 13.629l9.367 5.305c1.542.874 3.239 1.299 4.924 1.299 2.589 0 5.149-1.004 7.074-2.929l13.504-13.504c3.905-3.905 3.906-10.237.001-14.143-3.906-3.902-10.237-3.902-14.142.001z"/><path d="m325.529 210.396h-122.582c-5.523 0-10 4.477-10 10 0 5.522 4.477 10 10 10h122.582c5.523 0 10-4.478 10-10s-4.477-10-10-10z"/><path d="m202.947 170.52c-5.523 0-10 4.478-10 10 0 5.523 4.477 10 10 10h79.688c5.523 0 10-4.477 10-10 0-5.522-4.477-10-10-10z"/><path d="m111.593 308.861c-35.522 0-64.421 28.899-64.421 64.421s28.899 64.421 64.421 64.421 64.421-28.899 64.421-64.421-28.899-64.421-64.421-64.421zm0 108.842c-24.494 0-44.421-19.927-44.421-44.421s19.927-44.421 44.421-44.421 44.421 19.927 44.421 44.421-19.928 44.421-44.421 44.421z"/><path d="m116.377 357.765-8.125 8.126-2.748-1.556c-4.807-2.723-10.908-1.032-13.629 3.773-2.721 4.806-1.032 10.908 3.774 13.629l9.367 5.305c1.542.874 3.239 1.299 4.924 1.299 2.589 0 5.149-1.004 7.075-2.929l13.504-13.505c3.905-3.905 3.905-10.237-.001-14.143-3.904-3.904-10.235-3.904-14.141.001z"/><path d="m325.529 378.179h-122.582c-5.523 0-10 4.478-10 10s4.477 10 10 10h122.582c5.523 0 10-4.478 10-10 0-5.523-4.477-10-10-10z"/><path d="m202.947 358.302h79.688c5.523 0 10-4.478 10-10s-4.477-10-10-10h-79.688c-5.523 0-10 4.478-10 10s4.477 10 10 10z"/><path d="m356.026 20.5h-329.351c-14.709 0-26.675 11.966-26.675 26.675v417.65c0 14.709 11.966 26.675 26.675 26.675h329.351c14.709 0 26.675-11.966 26.675-26.675v-417.65c0-14.709-11.967-26.675-26.675-26.675zm6.675 444.325c0 3.681-2.994 6.675-6.675 6.675h-329.351c-3.681 0-6.675-2.994-6.675-6.675v-417.65c0-3.681 2.994-6.675 6.675-6.675h329.351c3.681 0 6.675 2.994 6.675 6.675z"/><path d="m89.549 108.649h203.603c5.523 0 10-4.478 10-10s-4.477-10-10-10h-203.603c-5.523 0-10 4.478-10 10 0 5.523 4.477 10 10 10z"/></g></svg>