<svg id="Capa_1" enable-background="new 0 0 512 512" height="512" viewBox="0 0 512 512" width="512" xmlns="http://www.w3.org/2000/svg"><g><path d="m502 229.136h-55.106v-119.755c0-20.92-17.02-37.94-37.94-37.94h-254.332l-14.559-12.418c-1.81-1.544-4.11-2.392-6.489-2.392h-95.634c-20.919 0-37.94 17.019-37.94 37.94v282.181c0 20.92 17.021 37.94 37.94 37.94h118.652v30.677c0 5.522 4.477 10 10 10h335.408c5.522 0 10-4.478 10-10v-206.233c0-5.523-4.478-10-10-10zm-482-134.565c0-9.893 8.048-17.94 17.94-17.94h91.948l14.559 12.418c1.81 1.544 4.11 2.392 6.489 2.392h258.017c9.893 0 17.94 8.048 17.94 17.94v44.917h-36.681v-31.326c0-5.522-4.477-10-10-10h-313.531c-5.523 0-10 4.478-10 10v31.326h-36.681zm350.213 59.727h-293.532v-21.326h293.532zm-332.273 240.394c-9.892 0-17.94-8.048-17.94-17.94v-202.454h406.894v54.838h-260.301c-5.523 0-10 4.478-10 10v155.557h-118.653zm454.06 40.677h-315.407v-186.233h315.407z"/><path d="m215.231 374.137c12.618 0 14.956 3.513 15.837 4.835 3.04 4.566 3.45 14.081 3.45 22.785 0 5.522 4.477 10 10 10h179.555c5.522 0 10-4.478 10-10 0-8.704.41-18.218 3.451-22.785.88-1.322 3.219-4.835 15.837-4.835 5.522 0 10-4.477 10-10v-43.768c0-5.522-4.478-10-10-10-12.618 0-14.957-3.513-15.837-4.835-3.041-4.567-3.451-14.081-3.451-22.785 0-5.522-4.478-10-10-10h-179.554c-5.523 0-10 4.478-10 10 0 8.704-.41 18.219-3.45 22.785-.881 1.322-3.219 4.835-15.837 4.835-5.522 0-10 4.478-10 10v43.768c-.001 5.522 4.477 10 9.999 10zm10-44.427c8.112-1.21 16.768-4.506 22.484-13.093 4.248-6.38 5.954-14.295 6.539-23.869h160.082c.585 9.574 2.292 17.489 6.539 23.869 5.718 8.587 14.373 11.883 22.485 13.093v25.085c-8.112 1.21-16.767 4.506-22.485 13.093-4.247 6.38-5.954 14.295-6.539 23.869h-160.081c-.585-9.574-2.291-17.489-6.539-23.869-5.717-8.587-14.372-11.883-22.484-13.093v-25.085z"/></g></svg>