<svg id="Capa_1" enable-background="new 0 0 512 512" height="512" viewBox="0 0 512 512" width="512" xmlns="http://www.w3.org/2000/svg"><g><path d="m348.547 140.027c0-51.031-41.517-92.547-92.547-92.547s-92.546 41.517-92.546 92.547 41.516 92.546 92.546 92.546 92.547-41.515 92.547-92.546zm-165.093 0c0-40.003 32.544-72.547 72.546-72.547s72.547 32.544 72.547 72.547c0 40.002-32.544 72.546-72.547 72.546s-72.546-32.544-72.546-72.546z"/><path d="m264.758 188.189c13.242-2.517 22.514-11.447 24.052-23.561 1.802-14.189-7.38-27.789-22.329-33.073-.52-.184-1.028-.364-1.525-.541v-16.334c.233.219.427.441.58.66 3.172 4.521 9.41 5.615 13.93 2.442 4.521-3.172 5.614-9.409 2.442-13.93-3.419-4.873-9.333-9.024-16.986-10.821-.419-5.137-4.721-9.176-9.966-9.176-5.465 0-9.906 4.384-9.998 9.828-.427.117-.857.239-1.288.369-10.079 3.037-17.685 12.791-18.496 23.72-.807 10.88 4.943 20.314 15.381 25.236 1.065.502 2.554 1.137 4.401 1.877v21.408c-1.681-.867-3.133-1.954-4.194-3.271-3.465-4.3-9.76-4.979-14.061-1.515s-4.98 9.76-1.515 14.061c5.158 6.403 12.5 10.093 19.852 11.908.628 4.919 4.829 8.721 9.919 8.721 4.841.001 8.878-3.439 9.801-8.008zm4.211-26.081c-.33 2.6-1.999 4.21-4.013 5.205v-13.993c3.052 2.612 4.367 6.007 4.013 8.788z"/><path d="m280.603 277.9c65.913-11.67 115.425-69.324 115.425-137.873-.001-77.211-62.817-140.027-140.028-140.027s-140.027 62.816-140.027 140.027c0 68.572 49.503 126.207 115.424 137.874l-43.018 56.829c-2.291 3.026-2.671 7.089-.981 10.488s5.158 5.548 8.954 5.548h21.102v151.234c0 5.523 4.477 10 10 10h57.093c5.523 0 10-4.477 10-10v-151.234h21.102c3.796 0 7.264-2.149 8.954-5.548s1.31-7.461-.981-10.488zm-144.63-137.873c0-66.183 53.844-120.027 120.027-120.027s120.027 53.844 120.027 120.027c0 62.302-47.706 114.105-109.292 119.554l-2.763-3.649c-1.89-2.497-4.841-3.964-7.973-3.964s-6.083 1.467-7.973 3.964l-2.762 3.649c-61.594-5.448-109.291-57.231-109.291-119.554zm148.573 190.739c-5.523 0-10 4.477-10 10v151.234h-37.093v-151.234c0-5.523-4.477-10-10-10h-10.99l39.537-52.23 39.537 52.23z"/><path d="m474.379 418.592-59.648-78.798c-1.89-2.497-4.841-3.964-7.973-3.964s-6.083 1.467-7.973 3.964l-59.648 78.798c-2.291 3.026-2.671 7.089-.981 10.488s5.158 5.548 8.954 5.548h21.102v67.372c0 5.523 4.477 10 10 10h57.093c5.523 0 10-4.477 10-10v-67.372h21.102c3.796 0 7.264-2.149 8.954-5.548 1.689-3.399 1.309-7.461-.982-10.488zm-39.075-3.964c-5.523 0-10 4.477-10 10v67.372h-37.093v-67.372c0-5.523-4.477-10-10-10h-10.99l39.537-52.23 39.537 52.23z"/><path d="m113.216 339.794c-1.89-2.497-4.841-3.964-7.973-3.964s-6.083 1.467-7.973 3.964l-59.648 78.798c-2.291 3.026-2.671 7.089-.981 10.488s5.158 5.548 8.954 5.548h21.102v67.372c0 5.523 4.477 10 10 10h57.093c5.523 0 10-4.477 10-10v-67.372h21.102c3.796 0 7.264-2.149 8.954-5.548s1.31-7.461-.981-10.488zm20.573 74.834c-5.523 0-10 4.477-10 10v67.372h-37.093v-67.372c0-5.523-4.477-10-10-10h-10.99l39.537-52.23 39.537 52.23z"/></g></svg>