<svg id="Capa_1" enable-background="new 0 0 512 512" height="512" viewBox="0 0 512 512" width="512" xmlns="http://www.w3.org/2000/svg"><g><path d="m474.635 138.091h-6.666v-50.662c0-5.522-4.477-10-10-10h-46.279v-44.158c0-5.523-4.477-10-10-10h-291.38c-5.523 0-10 4.477-10 10v44.158h-46.279c-5.523 0-10 4.478-10 10v50.662h-6.666c-20.603 0-37.365 16.764-37.365 37.369v170.018c0 20.604 16.762 37.368 37.365 37.368h62.945v95.884c0 5.523 4.477 10 10 10h291.379c5.523 0 10-4.477 10-10v-95.884h62.945c20.603 0 37.365-16.764 37.365-37.368v-170.018c.001-20.605-16.761-37.369-37.364-37.369zm-26.666-40.662v40.662h-36.279v-40.662zm-327.659-54.158h271.379v94.82h-271.379zm-56.279 54.158h36.279v40.662h-36.279zm-26.666 60.662h16.59c.025 0 .051.001.076.001h403.938c.026 0 .051-.001.076-.001h16.59c9.575 0 17.365 7.792 17.365 17.369v130.314h-37.084v-97.239c0-5.523-4.477-10-10-10h-377.832c-5.523 0-10 4.477-10 10v97.239h-37.084v-130.314c0-9.577 7.79-17.369 17.365-17.369zm364.324 110.727h-291.379c-5.523 0-10 4.478-10 10v26.956h-23.226v-87.239h357.832v87.239h-23.227v-26.956c0-5.522-4.477-10-10-10zm-364.324 94.028c-9.575 0-17.365-7.791-17.365-17.368v-19.703h80.31v37.071zm354.324 105.883h-271.379v-179.911h271.379zm100.311-123.251c0 9.577-7.79 17.368-17.365 17.368h-62.945v-37.071h80.31z"/><path d="m353.962 320.048h-195.924c-5.523 0-10 4.477-10 10 0 5.522 4.477 10 10 10h195.924c5.523 0 10-4.478 10-10 0-5.523-4.477-10-10-10z"/><path d="m353.962 417.383h-195.924c-5.523 0-10 4.478-10 10s4.477 10 10 10h195.924c5.523 0 10-4.478 10-10 0-5.523-4.477-10-10-10z"/><path d="m353.962 368.773h-195.924c-5.523 0-10 4.478-10 10s4.477 10 10 10h195.924c5.523 0 10-4.478 10-10s-4.477-10-10-10z"/></g></svg>