<svg id="Capa_1" enable-background="new 0 0 512 512" height="512" viewBox="0 0 512 512" width="512" xmlns="http://www.w3.org/2000/svg"><g><path d="m476.566 34.91h-441.132c-19.538 0-35.434 16.01-35.434 35.688v370.805c0 19.678 15.896 35.688 35.434 35.688h441.133c19.538 0 35.434-16.01 35.434-35.688v-370.805c-.001-19.678-15.897-35.688-35.435-35.688zm-456.566 35.688c0-8.65 6.924-15.688 15.434-15.688h441.133c8.51 0 15.434 7.037 15.434 15.688v39.766h-472.001zm472 370.804c0 8.65-6.924 15.688-15.434 15.688h-441.132c-8.51 0-15.434-7.037-15.434-15.688v-311.039h472z"/><path d="m314.132 72.637h-13.787c-5.522 0-10 4.478-10 10s4.478 10 10 10h13.787c5.522 0 10-4.478 10-10 0-5.523-4.478-10-10-10z"/><path d="m371.195 72.637h-13.787c-5.522 0-10 4.478-10 10s4.478 10 10 10h13.787c5.522 0 10-4.478 10-10 0-5.523-4.477-10-10-10z"/><path d="m428.26 72.637h-13.788c-5.523 0-10 4.478-10 10s4.477 10 10 10h13.788c5.522 0 10-4.478 10-10 0-5.523-4.478-10-10-10z"/><path d="m171.157 386.683 79.841 46.123c1.547.893 3.275 1.341 5.002 1.341 1.728 0 3.455-.447 5.002-1.341l79.841-46.123c14.707-8.496 23.843-24.325 23.843-41.311v-127.606c0-3.554-1.886-6.841-4.954-8.634l-98.686-57.676c-3.117-1.822-6.975-1.822-10.092 0l-98.686 57.676c-3.068 1.793-4.954 5.08-4.954 8.634v127.605c0 16.986 9.136 32.815 23.843 41.312zm-3.843-163.179 88.686-51.831 88.685 51.831v121.867c0 9.865-5.306 19.06-13.847 23.993l-74.838 43.234-74.839-43.233c-8.541-4.934-13.847-14.128-13.847-23.993z"/><path d="m216.936 362.723h78.127c5.522 0 10-4.478 10-10v-94.745c0-27.054-22.01-49.063-49.064-49.063s-49.064 22.01-49.064 49.063v94.745c.001 5.522 4.479 10 10.001 10zm68.128-20h-58.127v-57.404h58.127zm-58.128-84.745c0-16.025 13.038-29.063 29.064-29.063s29.064 13.038 29.064 29.063v7.341h-58.127v-7.341z"/><path d="m256 324.021c5.522 0 10-4.478 10-10v-4.393c0-5.523-4.478-10-10-10-5.523 0-10 4.477-10 10v4.393c0 5.522 4.477 10 10 10z"/></g></svg>