<svg id="Capa_1" enable-background="new 0 0 512 512" height="512" viewBox="0 0 512 512" width="512" xmlns="http://www.w3.org/2000/svg"><g><path d="m255.754 54.98c-110.842 0-201.019 90.177-201.019 201.046.014 110.828 90.191 200.993 201.019 200.993 110.842 0 201.019-90.177 201.019-201.02s-90.176-201.019-201.019-201.019zm0 224.481c-12.937 0-23.461-10.524-23.461-23.461s10.524-23.461 23.461-23.461c12.936 0 23.46 10.524 23.46 23.461s-10.524 23.461-23.46 23.461zm-181.019-23.461c0-96.458 75.84-175.537 171.019-180.747v138.448c-19.16 4.529-33.461 21.775-33.461 42.299 0 5.53 1.039 10.822 2.931 15.692l-74.678 63.326c-4.212 3.572-4.731 9.882-1.159 14.095 1.978 2.332 4.795 3.532 7.632 3.532 2.286 0 4.583-.779 6.463-2.373l73.155-62.034c5.341 4.829 11.883 8.352 19.118 10.062v138.447c-95.169-5.21-171.007-84.279-171.02-180.747zm191.02 180.747v-138.448c15.947-3.77 28.527-16.349 32.298-32.296l47.857.022h.005c5.521 0 9.997-4.475 10-9.995.003-5.523-4.473-10.002-9.995-10.005l-47.865-.022c-3.769-15.95-16.35-28.532-32.299-32.302v-138.448c95.179 5.21 171.019 84.289 171.019 180.747s-75.841 175.537-171.02 180.747z"/><path d="m437.02 74.98c-48.353-48.351-112.64-74.98-181.02-74.98s-132.667 26.629-181.019 74.98c-48.353 48.353-74.981 112.64-74.981 181.02s26.628 132.667 74.981 181.02c48.352 48.351 112.639 74.98 181.019 74.98s132.667-26.629 181.02-74.98c48.351-48.353 74.98-112.64 74.98-181.02s-26.629-132.667-74.98-181.02zm-181.02 417.02c-130.131 0-236-105.869-236-236s105.869-236 236-236 236 105.869 236 236-105.869 236-236 236z"/></g></svg>