<svg id="Capa_1" enable-background="new 0 0 512 512" height="512" viewBox="0 0 512 512" width="512" xmlns="http://www.w3.org/2000/svg"><g><path d="m256 232.823c62.421 0 113.204-50.542 113.204-112.667 0-62.124-50.783-112.666-113.204-112.666s-113.204 50.542-113.204 112.667 50.783 112.666 113.204 112.666zm0-205.333c51.393 0 93.204 41.569 93.204 92.666s-41.811 92.667-93.204 92.667-93.204-41.57-93.204-92.667c0-51.096 41.811-92.666 93.204-92.666z"/><path d="m236.217 148.707c-3.476-4.292-9.773-4.953-14.064-1.479-4.292 3.476-4.954 9.772-1.479 14.064 6.2 7.657 15.199 11.898 24.078 13.834.003 5.52 4.479 9.994 10 9.994 5.274 0 9.595-4.084 9.973-9.261 15.743-2.479 26.823-12.693 28.592-26.688 2.021-15.99-8.442-31.332-25.443-37.311-1.082-.38-2.122-.749-3.121-1.105v-24.248c2.042.892 3.49 2.059 4.286 3.187 3.183 4.511 9.421 5.59 13.936 2.407 4.513-3.184 5.591-9.423 2.407-13.937-4.059-5.754-11.263-10.603-20.629-12.418v-.556c0-5.523-4.477-10-10-10s-10 4.478-10 10v1.261c-.965.234-1.94.498-2.925.794-11.314 3.391-19.849 14.318-20.754 26.574-.897 12.138 5.571 22.669 17.304 28.173 1.448.679 3.628 1.589 6.375 2.666v29.731c-3.413-1.253-6.459-3.117-8.536-5.682zm37.257-2.043c-.531 4.205-3.637 7.264-8.723 8.759v-23.139c6.748 3.69 9.308 9.748 8.723 14.38zm-32.456-51.37c.211-2.853 1.678-5.598 3.733-7.327v14.716c-2.704-1.868-3.958-4.346-3.733-7.389z"/><path d="m511.855 492.813-16.791-97.469c-2.404-13.948-14.445-24.071-28.633-24.071h-79.007l-15.361-89.166c-2.404-13.948-14.445-24.071-28.633-24.071h-162.661c-12.785 0-24.242 8.542-27.862 20.772l-27.375 92.465h-67.763c-12.785 0-24.242 8.542-27.862 20.771l-29.496 99.627c-.895 3.025-.311 6.295 1.577 8.822 1.888 2.528 4.857 4.017 8.012 4.017h492c2.949 0 5.748-1.302 7.648-3.557s2.708-5.234 2.207-8.14zm-168.424-214.778c4.425 0 8.177 3.141 8.923 7.467l14.776 85.771h-170.501l21.299-86.391c.994-4.031 4.609-6.847 8.793-6.847zm-84.852 172.538-9.514-55.229c-.241-1.398-.579-2.757-1.006-4.071h28.089c-.084.255-.164.513-.241.771zm-86.495-166.088c1.124-3.797 4.695-6.449 8.685-6.449h18.329c-.22.675-.416 1.361-.588 2.06l-22.479 91.178h-29.641zm-123 113.237c1.124-3.797 4.695-6.449 8.685-6.449h18.329c-.22.675-.416 1.361-.588 2.06l-22.48 91.177h-29.64zm24.545 86.788 21.299-86.391c.994-4.031 4.609-6.847 8.793-6.847h116.71c4.425 0 8.177 3.141 8.923 7.467l14.776 85.771zm221.455-86.788c1.124-3.797 4.695-6.449 8.685-6.449h18.329c-.22.675-.416 1.361-.588 2.06l-22.48 91.177h-29.64zm24.545 86.788 21.299-86.391c.994-4.031 4.609-6.847 8.793-6.847h116.71c4.425 0 8.177 3.141 8.923 7.467l14.776 85.771z"/></g></svg>