<svg id="Capa_1" enable-background="new 0 0 512 512" height="512" viewBox="0 0 512 512" width="512" xmlns="http://www.w3.org/2000/svg"><path d="m502 457.541h-15.105v-36.037c0-5.523-4.478-10-10-10h-30.001v-29.435c0-5.523-4.478-10-10-10h-15.915v-138.292h15.915c5.522 0 10-4.477 10-10v-29.435h11.569c5.523 0 10-4.477 10-10v-48.86c0-5.523-4.477-10-10-10h-11.53l-186.587-90.029c-2.746-1.325-5.945-1.325-8.691 0l-186.588 90.029h-11.53c-5.523 0-10 4.477-10 10v48.86c0 5.523 4.477 10 10 10h11.569v29.435c0 5.523 4.478 10 10 10h15.915v138.293h-15.915c-5.522 0-10 4.477-10 10v29.435h-30.001c-5.522 0-10 4.477-10 10v36.037h-15.105c-5.523 0-10 4.477-10 10s4.477 10 10 10h492c5.522 0 10-4.477 10-10 0-5.524-4.478-10.001-10-10.001zm-75.106-46.036h-100.596v-19.435h100.596zm-221.192 0v-19.435h100.596v19.435zm5.915-177.728v138.293h-31.829v-138.293zm94.681-39.436v19.435h-100.596v-19.435zm-5.915 177.728v-138.292h31.829v138.293h-31.829zm-68.766-138.292h48.766v138.293h-48.766zm169.361 138.292h-48.767v-138.292h48.767zm25.916-158.292h-100.596v-19.435h100.596zm-170.894-158.215 144.909 69.919h-289.818zm-192.463 89.92h384.926v28.86h-384.926zm21.569 48.859h100.596v19.435h-100.596zm25.915 39.436h48.767v138.293h-48.767zm-25.915 158.292h100.596v19.435h-100.596zm-40.001 65.472v-26.037h421.789v26.037z"/></svg>