<svg id="Capa_1" enable-background="new 0 0 512 512" height="512" viewBox="0 0 512 512" width="512" xmlns="http://www.w3.org/2000/svg"><g><path d="m342.273 306.338v-56.6c0-35.873-22.008-66.702-53.23-79.695l8.571-37.387c.681-2.968-.028-6.084-1.926-8.466-1.897-2.381-4.776-3.769-7.821-3.769h-63.735c-3.045 0-5.924 1.388-7.821 3.769-1.897 2.382-2.606 5.498-1.926 8.466l8.571 37.387c-31.222 12.994-53.23 43.823-53.23 79.695v56.6c-15.068 3.011-26.458 16.341-26.458 32.281 0 18.15 14.767 32.917 32.917 32.917h159.63c18.15 0 32.917-14.767 32.917-32.917 0-15.94-11.39-29.27-26.459-32.281zm-105.588-165.916h38.631l-5.535 24.143c-4.488-.723-9.091-1.1-13.78-1.1s-9.292.376-13.781 1.1zm99.13 211.114h-159.63c-7.123 0-12.917-5.795-12.917-12.917s5.794-12.917 12.917-12.917h3.542c5.523 0 10-4.477 10-10v-65.964c0-36.543 29.73-66.273 66.273-66.273s66.273 29.73 66.273 66.273v65.964c0 5.523 4.478 10 10 10h3.542c7.122 0 12.917 5.795 12.917 12.917s-5.794 12.917-12.917 12.917z"/><path d="m267.132 263.726c-.781-.275-1.538-.542-2.272-.804v-20.123c1.079.619 1.869 1.319 2.343 1.991 3.185 4.513 9.424 5.593 13.936 2.408 4.514-3.184 5.592-9.423 2.408-13.936-3.72-5.274-10.236-9.743-18.689-11.55-.105-5.432-4.541-9.803-9.997-9.803-5.523 0-10 4.478-10 10v.477c-.68.175-1.365.365-2.055.571-10.672 3.198-18.72 13.496-19.573 25.042-.846 11.459 5.248 21.396 16.301 26.58 1.236.58 3.052 1.342 5.328 2.242v25.266c-2.534-1.083-4.739-2.554-6.259-4.431-3.475-4.291-9.771-4.954-14.064-1.479-4.292 3.476-4.955 9.772-1.479 14.065 5.646 6.974 13.761 10.916 21.827 12.787.359 5.196 4.688 9.301 9.975 9.301 5.039 0 9.208-3.729 9.899-8.578 14.425-2.502 24.547-12.029 26.188-25.018 1.895-15.015-7.898-29.411-23.817-35.008zm-23.955-14.254c.119-1.616.747-3.216 1.683-4.526v9.362c-1.27-1.333-1.824-2.934-1.683-4.836zm27.926 46.754c-.399 3.163-2.606 5.552-6.244 6.911v-18.41c4.855 3.195 6.703 7.868 6.244 11.499z"/><path d="m408.334 49.082c0-27.063-22.019-49.082-49.082-49.082h-206.504c-27.064 0-49.082 22.019-49.082 49.082v413.836c0 27.063 22.018 49.082 49.082 49.082h206.504c27.063 0 49.082-22.019 49.082-49.082v-382.594c0-.008 0-.016 0-.024s0-.016 0-.024zm-284.668 372.642v-331.446l264.668.044v331.401h-264.668zm0-372.642c0-16.036 13.046-29.082 29.082-29.082h206.504c16.036 0 29.082 13.046 29.082 29.082v21.194h-264.668zm235.586 442.918h-206.504c-16.036 0-29.082-13.046-29.082-29.082v-21.193l264.668.044v21.148c0 16.037-13.046 29.083-29.082 29.083z"/><path d="m276.341 35.139h-40.681c-5.523 0-10 4.478-10 10s4.477 10 10 10h40.681c5.522 0 10-4.478 10-10 0-5.523-4.478-10-10-10z"/><path d="m266.17 455.379h-20.34c-5.523 0-10 4.478-10 10s4.477 10 10 10h20.34c5.523 0 10-4.478 10-10s-4.478-10-10-10z"/></g></svg>