<svg id="Capa_1" enable-background="new 0 0 512 512" height="512" viewBox="0 0 512 512" width="512" xmlns="http://www.w3.org/2000/svg"><g><path d="m417.672 210.849c0-29.308-21.33-53.721-49.262-58.494v-117.734c0-5.523-4.478-10-10-10h-52.621c-5.522 0-10 4.477-10 10v17.176l-60.418 40.306c-40.921 27.3-88.54 41.731-137.708 41.731h-59.955c-20.792.001-37.708 16.936-37.708 37.751v78.527c0 20.816 16.916 37.751 37.708 37.751h18.031v189.515c0 5.523 4.478 10 10 10h117.303c5.522 0 10-4.477 10-10v-39.665c0-17.097-10.814-31.896-26.273-37.455v-102.608c24.197 7.016 47.307 17.737 68.602 31.944l60.418 40.306v17.176c0 5.523 4.478 10 10 10h52.621c5.522 0 10-4.477 10-10v-117.733c27.932-4.773 49.262-29.186 49.262-58.494zm-397.672 39.264v-78.527c0-9.788 7.943-17.751 17.708-17.751h18.031v114.029h-18.031c-9.765 0-17.708-7.963-17.708-17.751zm135.61 167.939c9.938 1.159 17.432 9.611 17.432 19.662v29.665h-97.303v-179.515h21.924c16.612 0 33.046 1.648 49.105 4.882v115.374c.001 5.074 3.801 9.345 8.842 9.932zm90.861-105.095c-44.219-29.5-95.676-45.093-148.808-45.093h-21.924v-114.029h21.924c53.132 0 104.589-15.593 148.808-45.093l49.318-32.902v125.009h-110.025c-5.523 0-10 4.477-10 10s4.477 10 10 10h110.025v125.009zm101.939 64.12h-32.621v-332.456h32.621zm20-128.182v-76.092c16.822 4.441 29.262 19.815 29.262 38.046s-12.44 33.605-29.262 38.046z"/><path d="m458.353 94.137c-4.187-3.601-10.501-3.125-14.103 1.062-3.601 4.187-3.126 10.501 1.061 14.102 29.671 25.516 46.689 62.529 46.689 101.548 0 40.968-18.433 79.153-50.572 104.763-4.318 3.442-5.03 9.733-1.588 14.053 1.975 2.478 4.887 3.769 7.827 3.769 2.184 0 4.384-.713 6.226-2.18 36.927-29.427 58.107-73.313 58.107-120.405 0-44.852-19.554-87.393-53.647-116.712z"/><path d="m424.733 127.549c-4.314-3.449-10.605-2.75-14.056 1.563s-2.751 10.605 1.562 14.056c20.716 16.571 32.597 41.24 32.597 67.682 0 27.825-13.54 54.154-36.22 70.429-4.487 3.22-5.515 9.468-2.295 13.955 1.954 2.722 5.021 4.171 8.134 4.171 2.018 0 4.057-.61 5.821-1.876 27.901-20.022 44.56-52.426 44.56-86.678 0-32.553-14.617-62.915-40.103-83.302z"/></g></svg>