<svg id="Capa_1" enable-background="new 0 0 512 512" height="512" viewBox="0 0 512 512" width="512" xmlns="http://www.w3.org/2000/svg"><path d="m502 201.603h-53.929v-77.806c0-14.549-11.832-26.385-26.376-26.385h-395.319c-14.544 0-26.376 11.836-26.376 26.385v216.161c0 14.549 11.832 26.386 26.376 26.386h295.514v38.245c0 5.523 4.478 10 10 10h170.11c5.522 0 10-4.477 10-10v-192.986c0-5.523-4.478-10-10-10zm-120.232 0h-49.878c-5.522 0-10 4.477-10 10v88.409h-223.253c-3.769-15.976-16.365-28.579-32.333-32.351v-71.567c15.968-3.772 28.563-16.375 32.333-32.351h250.797c3.77 15.976 16.365 28.579 32.333 32.351v5.509zm110.232 96.493h-150.11v-28.246h150.11zm-150.11 20h150.11v28.247h-150.11zm150.11-68.246h-150.11v-28.247h150.11zm-472 90.107v-216.16c0-3.521 2.86-6.385 6.376-6.385h395.319c3.516 0 6.376 2.864 6.376 6.385v77.806h-26.304v-14.349c0-5.523-4.478-10-10-10-12.954 0-23.492-10.547-23.492-23.512 0-5.523-4.477-10-10-10h-268.479c-5.523 0-10 4.477-10 10 0 12.964-10.539 23.512-23.492 23.512-5.523 0-10 4.477-10 10v89.246c0 5.523 4.477 10 10 10 12.954 0 23.492 10.547 23.492 23.512 0 5.523 4.477 10 10 10h232.094v26.332h-295.514c-3.516-.001-6.376-2.866-6.376-6.387zm472 54.631h-150.11v-28.246h150.11z"/></svg>