<svg id="Capa_1" enable-background="new 0 0 512 512" height="512" viewBox="0 0 512 512" width="512" xmlns="http://www.w3.org/2000/svg"><g><path d="m502 372.608h-10.134v-37.023c0-.026.001-.051.001-.076v-61.013c0-.026-.001-.051-.001-.077v-198.775c0-14.651-11.92-26.571-26.571-26.571h-418.59c-14.651 0-26.571 11.92-26.571 26.571v198.776c0 .026-.001.051-.001.077v61.013c0 .026.001.051.001.076v37.023h-10.134c-5.523 0-10 4.477-10 10v42.544c0 20.83 16.946 37.775 37.775 37.775h436.449c20.83 0 37.775-16.946 37.775-37.775v-42.544c.001-5.524-4.476-10.001-9.999-10.001zm-461.866-88.112h431.732v41.013h-431.732zm93.617-20h-25.34v-44.751h25.34zm89.946 0h-25.34v-79.985h25.34zm89.946 0h-25.34v-28.743h25.34zm89.946 0h-25.34v-112.093h25.34zm-356.884-195.424h418.59c3.624 0 6.571 2.948 6.571 6.571v188.852h-48.277v-122.092c0-5.523-4.477-10-10-10h-45.34c-5.523 0-10 4.477-10 10v122.093h-24.606v-38.743c0-5.523-4.477-10-10-10h-45.34c-5.523 0-10 4.477-10 10v38.743h-24.605v-89.985c0-5.523-4.477-10-10-10h-45.34c-5.523 0-10 4.477-10 10v89.985h-24.606v-54.751c0-5.523-4.477-10-10-10h-45.34c-5.523 0-10 4.477-10 10v54.751h-48.278v-188.852c0-3.624 2.947-6.572 6.571-6.572zm-6.571 276.437h431.732v27.099h-431.732zm451.866 79.643c0 9.801-7.974 17.775-17.775 17.775h-436.45c-9.801 0-17.775-7.974-17.775-17.775v-32.544h472z"/><path d="m285.617 407.768h-59.234c-5.523 0-10 4.477-10 10s4.477 10 10 10h59.234c5.523 0 10-4.477 10-10s-4.477-10-10-10z"/></g></svg>