<svg id="Capa_1" enable-background="new 0 0 512 512" height="512" viewBox="0 0 512 512" width="512" xmlns="http://www.w3.org/2000/svg"><g><path d="m346.362 149.541h-194.568c-5.523 0-10 4.477-10 10v192.918c0 5.523 4.477 10 10 10h194.568c5.523 0 10-4.477 10-10v-192.918c0-5.523-4.477-10-10-10zm-10 192.918h-174.568v-172.918h174.568z"/><path d="m249.078 266h28.94c5.523 0 10-4.477 10-10s-4.477-10-10-10h-18.94v-39.851c0-5.523-4.477-10-10-10s-10 4.477-10 10v49.851c0 5.523 4.477 10 10 10z"/><path d="m410.121 246h-3.843v-60.83h3.843c5.523 0 10-4.477 10-10s-4.477-10-10-10h-3.843v-27.013c0-21.013-17.095-38.108-38.108-38.108h-14.646l-31.728-93.269c-1.378-4.054-5.185-6.78-9.467-6.78h-130.167c-4.282 0-8.088 2.726-9.467 6.78l-31.727 93.269h-10.981c-21.013 0-38.108 17.095-38.108 38.108v235.686c0 21.013 17.095 38.108 38.108 38.108h10.981l31.727 93.269c1.379 4.054 5.186 6.78 9.467 6.78h130.167c4.282 0 8.088-2.726 9.467-6.78l31.727-93.269h14.646c21.013 0 38.108-17.095 38.108-38.108v-107.843h3.843c5.523 0 10-4.477 10-10 .001-5.523-4.476-10-9.999-10zm-220.798-226h115.845l27.23 80.049h-170.305zm115.845 472h-115.845l-27.23-80.049h170.305zm81.11-118.157c0 9.985-8.124 18.108-18.108 18.108h-238.183c-9.985 0-18.108-8.124-18.108-18.108v-235.686c0-9.985 8.124-18.108 18.108-18.108h238.182c9.985 0 18.108 8.124 18.108 18.108v235.686z"/></g></svg>