<svg id="Capa_1" enable-background="new 0 0 512 512" height="512" viewBox="0 0 512 512" width="512" xmlns="http://www.w3.org/2000/svg"><g><path d="m264.756 156.918c14.673-2.499 24.974-12.156 26.64-25.335 1.921-15.201-7.999-29.777-24.124-35.447-.838-.295-1.649-.582-2.434-.861v-20.914c1.264.68 2.179 1.469 2.712 2.224 3.185 4.514 9.423 5.591 13.936 2.407s5.591-9.423 2.407-13.936c-3.785-5.365-10.432-9.906-19.056-11.716-.029-5.498-4.495-9.945-9.999-9.945-5.522 0-10 4.477-10 10v.625c-.734.187-1.475.391-2.222.615-10.793 3.235-18.934 13.652-19.797 25.333-.855 11.588 5.31 21.638 16.492 26.884 1.277.599 3.162 1.389 5.526 2.322v26.112c-2.712-1.123-5.077-2.672-6.692-4.666-3.476-4.293-9.774-4.954-14.064-1.479-4.292 3.475-4.954 9.772-1.479 14.064 5.751 7.103 14.032 11.102 22.252 12.986.294 5.259 4.652 9.433 9.984 9.433 5.086.002 9.284-3.794 9.918-8.706zm6.799-27.843c-.425 3.362-2.802 5.881-6.716 7.27v-19.33c5.214 3.298 7.198 8.236 6.716 12.06zm-28.788-47.634c.137-1.857.922-3.695 2.072-5.126v10.498c-1.549-1.451-2.231-3.228-2.072-5.372z"/><path d="m400.068 294.279h-26.818c11.006-11.554 17.772-27.182 17.772-44.361v-45.94c0-5.523-4.478-10-10-10h-27.562c-35.488 0-64.36 28.872-64.36 64.361v35.94h-23.1v-85.727c53.226-5.028 95.003-49.77 95.003-104.041 0-57.628-47.105-104.511-105.003-104.511s-105.003 46.883-105.003 104.511c0 54.271 41.777 99.013 95.003 104.041v85.727h-23.1v-35.94c0-35.489-28.872-64.361-64.36-64.361h-27.563c-5.522 0-10 4.477-10 10v45.94c0 17.179 6.765 32.807 17.772 44.361h-26.818c-5.522 0-10 4.477-10 10v46.171c0 5.523 4.478 10 10 10h8.822v65.306c0 23.789 18.452 43.349 41.795 45.117l-18.45 25.223c-2.224 3.04-2.551 7.071-.846 10.429 1.704 3.358 5.15 5.475 8.917 5.475h207.658c3.767 0 7.213-2.116 8.917-5.475 1.705-3.358 1.378-7.39-.846-10.429l-18.45-25.223c23.343-1.769 41.795-21.328 41.795-45.117v-65.306h8.822c5.522 0 10-4.477 10-10v-46.171c.003-5.523-4.474-10-9.997-10zm-229.071-189.768c0-46.6 38.132-84.511 85.003-84.511s85.003 37.911 85.003 84.511-38.132 84.511-85.003 84.511-85.003-37.912-85.003-84.511zm138.103 153.827c0-24.461 19.9-44.361 44.36-44.361h17.563v35.94c0 24.461-19.9 44.361-44.361 44.361h-17.562zm-168.123-8.42v-35.94h17.563c24.46 0 44.36 19.9 44.36 44.361v35.94h-17.562c-24.46 0-44.361-19.901-44.361-44.361zm-19.045 64.361h268.137v26.171h-268.137zm49.943 177.721 15.358-20.997h137.533l15.359 20.997zm199.371-66.244c0 13.921-11.325 25.247-25.246 25.247h-180c-13.921 0-25.246-11.326-25.246-25.247v-65.306h230.492z"/></g></svg>