<svg id="Capa_1" enable-background="new 0 0 512 512" height="512" viewBox="0 0 512 512" width="512" xmlns="http://www.w3.org/2000/svg"><g><path d="m476.566 34.91h-441.132c-19.539 0-35.434 16.009-35.434 35.688v370.804c0 19.679 15.895 35.688 35.434 35.688h441.132c19.539 0 35.434-16.01 35.434-35.688v-370.804c0-19.679-15.896-35.688-35.434-35.688zm-456.566 35.688c0-8.651 6.924-15.688 15.434-15.688h441.132c8.51 0 15.434 7.038 15.434 15.688v39.765h-472zm159.873 380.927c0-42.143 34.15-76.428 76.127-76.428s76.127 34.285 76.127 76.428c0 1.857-.067 3.715-.2 5.565h-151.854c-.133-1.85-.2-3.708-.2-5.565zm172.095 5.565c.105-1.853.159-3.71.159-5.565 0-53.17-43.123-96.428-96.127-96.428s-96.127 43.257-96.127 96.428c0 1.855.053 3.712.159 5.565h-63.438v-30.776c0-1.188.967-2.155 2.155-2.155h9.778c4.585 0 8.584-3.119 9.7-7.567 3.365-13.416 8.669-26.255 15.765-38.161 2.34-3.927 1.72-8.94-1.507-12.178l-6.969-6.993c-.836-.839-.836-2.204 0-3.043l35.499-35.622c.521-.524 1.118-.634 1.526-.634s1.004.11 1.526.634l6.909 6.933c3.244 3.256 8.289 3.88 12.23 1.516 11.859-7.117 24.646-12.437 38.008-15.811 4.44-1.122 7.551-5.116 7.551-9.696v-9.855c0-1.188.967-2.155 2.155-2.155h50.16c1.189 0 2.155.967 2.155 2.155v9.855c0 4.58 3.111 8.574 7.551 9.696 13.361 3.375 26.149 8.694 38.008 15.811 3.942 2.366 8.986 1.739 12.23-1.516l6.909-6.933c.522-.524 1.118-.634 1.526-.634s1.004.11 1.526.634l35.499 35.623c.835.838.835 2.203 0 3.042l-6.969 6.993c-3.227 3.238-3.847 8.251-1.507 12.178 7.096 11.905 12.4 24.745 15.765 38.161 1.116 4.448 5.114 7.567 9.7 7.567h9.778c1.188 0 2.155.967 2.155 2.155v30.776zm140.032-15.688c0 8.65-6.924 15.688-15.434 15.688h-41.16v-30.776c0-12.216-9.939-22.155-22.155-22.155h-2.173c-3.056-10.085-7.089-19.843-12.048-29.155l1.621-1.627c8.593-8.624 8.593-22.654 0-31.277l-35.498-35.623c-4.188-4.202-9.761-6.517-15.693-6.517-.001 0-.001 0-.001 0-5.932 0-11.506 2.315-15.693 6.517l-1.526 1.531c-9.265-4.964-18.973-9.002-29.004-12.064v-2.264c0-12.216-9.939-22.155-22.155-22.155h-50.16c-12.216 0-22.155 9.939-22.155 22.155v2.264c-10.032 3.061-19.739 7.099-29.004 12.064l-1.526-1.531c-4.188-4.203-9.762-6.517-15.694-6.517s-11.505 2.315-15.692 6.517l-35.501 35.623c-8.593 8.623-8.593 22.654 0 31.277l1.621 1.627c-4.959 9.311-8.992 19.07-12.048 29.155h-2.173c-12.216 0-22.155 9.939-22.155 22.155v30.776h-41.16c-8.51 0-15.434-7.038-15.434-15.688v-311.039h472z"/><path d="m314.132 72.637h-13.787c-5.523 0-10 4.477-10 10s4.477 10 10 10h13.787c5.523 0 10-4.477 10-10s-4.477-10-10-10z"/><path d="m371.195 72.637h-13.787c-5.523 0-10 4.477-10 10s4.477 10 10 10h13.787c5.523 0 10-4.477 10-10s-4.477-10-10-10z"/><path d="m428.259 72.637h-13.787c-5.523 0-10 4.477-10 10s4.477 10 10 10h13.787c5.523 0 10-4.477 10-10s-4.477-10-10-10z"/><path d="m99.221 238.29h313.558c5.523 0 10-4.477 10-10v-50.33c0-5.523-4.477-10-10-10h-313.558c-5.523 0-10 4.477-10 10v50.33c0 5.524 4.477 10 10 10zm10-50.329h293.558v30.33h-293.558z"/></g></svg>