<svg id="Capa_1" enable-background="new 0 0 512 512" height="512" viewBox="0 0 512 512" width="512" xmlns="http://www.w3.org/2000/svg"><path d="m502 25.245h-492c-5.523 0-10 4.477-10 10v48.483c0 5.523 4.477 10 10 10h12.787v284.023c0 5.523 4.478 10 10 10h213.213v27.288c-15.31 4.36-26.553 18.474-26.553 35.163 0 20.155 16.397 36.553 36.553 36.553s36.553-16.398 36.553-36.553c0-16.689-11.243-30.803-26.553-35.163v-27.288h208.064c5.522 0 10-4.477 10-10v-284.023h17.936c5.522 0 10-4.477 10-10v-48.483c0-5.523-4.478-10-10-10zm-229.447 424.957c0 9.128-7.426 16.553-16.553 16.553s-16.553-7.426-16.553-16.553 7.426-16.553 16.553-16.553 16.553 7.426 16.553 16.553zm191.511-82.451h-421.277v-21.591h421.276v21.591zm0-41.591h-421.277v-41.014h421.276v41.014zm-355.654-61.014v-44.751h25.341v44.751zm89.946 0v-79.985h25.341v79.985zm89.947 0v-28.743h25.341v28.743zm115.287 0h-25.341v-112.093h25.341zm60.474 0h-40.474v-122.093c0-5.523-4.478-10-10-10h-45.341c-5.522 0-10 4.477-10 10v122.093h-24.605v-38.743c0-5.523-4.478-10-10-10h-45.341c-5.522 0-10 4.477-10 10v38.743h-24.605v-89.985c0-5.523-4.478-10-10-10h-45.341c-5.522 0-10 4.477-10 10v89.985h-24.605v-54.751c0-5.523-4.478-10-10-10h-45.342c-5.522 0-10 4.477-10 10v54.751h-45.623v-171.418h421.276v171.418zm27.936-191.418h-472v-28.483h472z"/></svg>