<svg id="Capa_1" enable-background="new 0 0 512 512" height="512" viewBox="0 0 512 512" width="512" xmlns="http://www.w3.org/2000/svg"><g><path d="m402.433 0h-292.866c-18.916 0-34.305 15.389-34.305 34.305v443.39c0 18.916 15.389 34.305 34.305 34.305h292.866c18.916 0 34.305-15.389 34.305-34.305v-443.39c0-18.916-15.389-34.305-34.305-34.305zm14.305 477.695c0 7.888-6.418 14.305-14.305 14.305h-292.866c-7.888 0-14.305-6.417-14.305-14.305v-443.39c0-7.888 6.417-14.305 14.305-14.305h292.866c7.888 0 14.305 6.417 14.305 14.305z"/><path d="m374.443 198.162h-236.886c-5.523 0-10 4.477-10 10v236.886c0 5.523 4.477 10 10 10h236.886c5.523 0 10-4.477 10-10v-236.886c0-5.523-4.477-10-10-10zm-226.886 98.962h58.962v58.962h-58.962zm78.962 0h58.962v58.962h-58.962zm58.962-20h-58.962v-58.962h58.962zm-137.924-58.962h58.962v58.962h-58.962zm0 157.923h58.962v58.962h-58.962zm78.962 0h58.962v58.962h-58.962zm137.924 58.962h-58.962v-216.885h58.962z"/><path d="m374.443 46.953h-236.886c-5.523 0-10 4.477-10 10v93.532c0 5.523 4.477 10 10 10h236.886c5.523 0 10-4.477 10-10v-93.532c0-5.523-4.477-10-10-10zm-10 93.532h-216.886v-73.532h216.886z"/></g></svg>