<svg id="Capa_1" enable-background="new 0 0 512 512" height="512" viewBox="0 0 512 512" width="512" xmlns="http://www.w3.org/2000/svg"><g><path d="m143.865 229.218h-48.27c-5.522 0-10 4.477-10 10v218.782c0 5.523 4.478 10 10 10h48.271c5.522 0 10-4.477 10-10v-218.782c-.001-5.523-4.478-10-10.001-10zm-10 218.782h-28.271v-198.782h28.271z"/><path d="m119.729 116.332c-20.155 0-36.553 16.398-36.553 36.553s16.397 36.553 36.553 36.553 36.554-16.398 36.554-36.553-16.397-36.553-36.554-36.553zm0 53.106c-9.127 0-16.553-7.426-16.553-16.553 0-9.128 7.426-16.553 16.553-16.553 9.128 0 16.554 7.426 16.554 16.553s-7.426 16.553-16.554 16.553z"/><path d="m95.595 76.498h48.271c5.522 0 10-4.477 10-10s-4.478-10-10-10h-48.271c-5.522 0-10 4.477-10 10s4.477 10 10 10z"/><path d="m280.136 229.218h-48.271c-5.522 0-10 4.477-10 10v218.782c0 5.523 4.478 10 10 10h48.271c5.522 0 10-4.477 10-10v-218.782c0-5.523-4.478-10-10-10zm-10 218.782h-28.271v-198.782h28.271z"/><path d="m256 116.332c-20.155 0-36.553 16.398-36.553 36.553s16.397 36.553 36.553 36.553 36.553-16.398 36.553-36.553-16.398-36.553-36.553-36.553zm0 53.106c-9.127 0-16.553-7.426-16.553-16.553 0-9.128 7.426-16.553 16.553-16.553s16.553 7.426 16.553 16.553-7.426 16.553-16.553 16.553z"/><path d="m231.865 76.498h48.271c5.522 0 10-4.477 10-10s-4.478-10-10-10h-48.271c-5.522 0-10 4.477-10 10s4.478 10 10 10z"/><path d="m442.803 0h-101.065c-6.685 0-12.822 2.389-17.603 6.357-4.781-3.968-10.918-6.357-17.603-6.357h-101.064c-6.684 0-12.821 2.389-17.603 6.357-4.781-3.968-10.918-6.357-17.603-6.357h-101.065c-15.22 0-27.603 12.383-27.603 27.604v456.793c0 15.221 12.383 27.603 27.603 27.603h101.064c6.685 0 12.822-2.389 17.604-6.357 4.781 3.968 10.918 6.357 17.603 6.357h101.064c6.684 0 12.821-2.389 17.603-6.357 4.781 3.968 10.919 6.357 17.603 6.357h101.064c15.22 0 27.603-12.383 27.603-27.603v-456.793c0-15.221-12.383-27.604-27.602-27.604zm-272.541 492h-101.065c-4.192 0-7.603-3.411-7.603-7.603v-456.793c0-4.192 3.41-7.604 7.603-7.604h101.064c4.192 0 7.604 3.411 7.604 7.604v456.793c0 4.192-3.411 7.603-7.603 7.603zm136.27 0h-101.064c-4.192 0-7.603-3.411-7.603-7.603v-456.793c0-4.192 3.41-7.604 7.603-7.604h101.064c4.192 0 7.603 3.411 7.603 7.604v456.793c0 4.192-3.41 7.603-7.603 7.603zm143.873-7.603c0 4.192-3.41 7.603-7.603 7.603h-101.064c-4.192 0-7.604-3.411-7.604-7.603v-456.793c0-4.192 3.411-7.604 7.604-7.604h101.064c4.192 0 7.603 3.411 7.603 7.604z"/><path d="m416.405 229.218h-48.271c-5.522 0-10 4.477-10 10v218.782c0 5.523 4.478 10 10 10h48.271c5.522 0 10-4.477 10-10v-218.782c0-5.523-4.477-10-10-10zm-10 218.782h-28.271v-198.782h28.271z"/><path d="m392.271 116.332c-20.156 0-36.554 16.398-36.554 36.553s16.397 36.553 36.554 36.553c20.155 0 36.553-16.398 36.553-36.553-.001-20.155-16.398-36.553-36.553-36.553zm0 53.106c-9.128 0-16.554-7.426-16.554-16.553 0-9.128 7.426-16.553 16.554-16.553 9.127 0 16.553 7.426 16.553 16.553-.001 9.127-7.427 16.553-16.553 16.553z"/><path d="m368.135 76.498h48.271c5.522 0 10-4.477 10-10s-4.478-10-10-10h-48.271c-5.522 0-10 4.477-10 10s4.477 10 10 10z"/></g></svg>