<svg id="Capa_1" enable-background="new 0 0 512 512" height="512" viewBox="0 0 512 512" width="512" xmlns="http://www.w3.org/2000/svg"><g><path d="m477.489 65.037h-395.234c-19.028 0-34.51 15.481-34.51 34.511v39.479h-13.234c-19.03-.001-34.511 15.481-34.511 34.51v238.915c0 19.029 15.481 34.511 34.511 34.511h395.234c19.028 0 34.51-15.481 34.51-34.511v-39.478h13.234c19.029 0 34.511-15.481 34.511-34.511v-238.915c0-19.029-15.481-34.511-34.511-34.511zm-442.978 93.989h395.234c8.001 0 14.51 6.509 14.51 14.511v26.468h-424.255v-26.468c0-8.001 6.51-14.511 14.511-14.511zm-14.511 60.979h424.255v38.425h-424.255zm409.745 206.958h-395.234c-8.001 0-14.511-6.509-14.511-14.511v-134.021h424.255v134.021c0 8.002-6.509 14.511-14.51 14.511zm62.255-88.5c0 8.001-6.51 14.511-14.511 14.511h-13.234v-179.437c0-19.029-15.482-34.511-34.51-34.511h-362v-39.478c0-8.001 6.509-14.511 14.51-14.511h395.234c8.001 0 14.511 6.509 14.511 14.511z"/><path d="m208.281 334.263h-49.404c-5.522 0-10 4.477-10 10v41.412c0 5.523 4.478 10 10 10h49.404c5.522 0 10-4.477 10-10v-41.412c0-5.523-4.477-10-10-10zm-10 41.412h-29.404v-21.412h29.404z"/><path d="m305.379 334.263h-49.404c-5.522 0-10 4.477-10 10v41.412c0 5.523 4.478 10 10 10h49.404c5.522 0 10-4.477 10-10v-41.412c0-5.523-4.478-10-10-10zm-10 41.412h-29.404v-21.412h29.404z"/><path d="m402.477 334.263h-49.404c-5.522 0-10 4.477-10 10v41.412c0 5.523 4.478 10 10 10h49.404c5.522 0 10-4.477 10-10v-41.412c0-5.523-4.478-10-10-10zm-10 41.412h-29.404v-21.412h29.404z"/><path d="m111.183 334.263h-49.405c-5.522 0-10 4.477-10 10v41.412c0 5.523 4.478 10 10 10h49.404c5.522 0 10-4.477 10-10v-41.412c.001-5.523-4.477-10-9.999-10zm-10 41.412h-29.405v-21.412h29.404v21.412z"/></g></svg>