<svg id="Capa_1" enable-background="new 0 0 512 512" height="512" viewBox="0 0 512 512" width="512" xmlns="http://www.w3.org/2000/svg"><path d="m378.298 331.995-97.548-237.811 26.486-48.793c2.117-3.899 1.411-8.727-1.733-11.858l-30.758-30.62c-1.874-1.866-4.41-2.913-7.054-2.913h-60.073c-2.645 0-5.181 1.047-7.055 2.913l-30.758 30.62c-3.145 3.13-3.85 7.958-1.733 11.858l27.14 49.997-62.092 336.878c-.703 3.81.858 7.682 4.006 9.94l94.7 67.92c1.742 1.249 3.785 1.874 5.828 1.874s4.086-.625 5.828-1.874l94.7-67.92c3.147-2.257 4.708-6.129 4.006-9.938l-9.843-53.406 43.047-35.344c3.393-2.786 4.572-7.461 2.906-11.523zm-164.179-228.855h47.069l1.037 5.627-60.248 60.249zm-18.533 100.551 71.041-71.042 7.819 42.424-90.213 90.214zm-17.742 96.271 101.004-101.005 1.012 5.488 9.085 49.292-125.76 125.76zm33.902-279.962h51.815l22.527 22.426-22.101 40.712h-52.669l-22.1-40.712zm-54.954 394.175 136.555-136.556 7.568 41.062-126.01 126.009-20.967-15.038zm80.862 75.519-46.277-33.19 113.941-113.94 16.052 87.088zm90.548-133.308-18.604-100.94c-.009-.056-.019-.113-.03-.169l-12.769-69.269 60.192 146.741z"/></svg>