<svg id="Capa_1" enable-background="new 0 0 512 512" height="512" viewBox="0 0 512 512" width="512" xmlns="http://www.w3.org/2000/svg"><g><path d="m502 272.359h-216.888c-5.523 0-10 4.477-10 10v217.064c0 5.523 4.477 10 10 10 60.605 0 117.583-23.62 160.437-66.508 42.851-42.887 66.451-99.907 66.451-160.556 0-5.523-4.477-10-10-10zm-206.888 216.825v-27.693l1.426 1.426c1.953 1.953 4.512 2.929 7.071 2.929s5.119-.977 7.071-2.929c3.905-3.905 3.906-10.237.001-14.142l-15.569-15.569v-49.166l54.294 54.294c1.953 1.953 4.512 2.929 7.071 2.929s5.119-.976 7.071-2.929c3.905-3.905 3.905-10.237 0-14.143l-68.436-68.436v-49.166l47.533 47.533c1.953 1.953 4.512 2.929 7.071 2.929s5.119-.976 7.071-2.929c3.905-3.905 3.905-10.237 0-14.143l-47.621-47.621h49.166l68.524 68.524c1.953 1.953 4.512 2.929 7.071 2.929s5.119-.976 7.071-2.929c3.905-3.905 3.905-10.237 0-14.143l-54.382-54.382h49.166l15.657 15.657c1.953 1.953 4.512 2.929 7.071 2.929s5.119-.977 7.071-2.929c3.905-3.905 3.905-10.237 0-14.142l-1.514-1.514h27.694c-5.071 106.238-90.502 191.75-196.649 196.826z"/><path d="m285.112 239.641h216.888c5.523 0 10-4.477 10-10 0-60.649-23.6-117.669-66.451-160.556-42.854-42.888-99.832-66.507-160.437-66.507-5.523 0-10 4.477-10 10v217.063c0 5.523 4.477 10 10 10zm10-216.825c106.147 5.076 191.579 90.588 196.65 196.825h-196.65z"/><path d="m227.063 55.558c-60.649 0-117.669 23.6-160.555 66.451-42.888 42.854-66.508 99.832-66.508 160.438 0 60.605 23.62 117.583 66.508 160.437 42.886 42.852 99.906 66.451 160.555 66.451 5.523 0 10-4.477 10-10v-433.777c0-5.523-4.477-10-10-10zm-10 433.539c-109.55-5.23-197.063-95.921-197.063-206.65s87.513-201.421 197.063-206.65z"/></g></svg>