<svg id="Capa_1" enable-background="new 0 0 512 512" height="512" viewBox="0 0 512 512" width="512" xmlns="http://www.w3.org/2000/svg"><g><path d="m256 30.449c5.522 0 10-4.477 10-10v-10.449c0-5.523-4.478-10-10-10-5.523 0-10 4.477-10 10v10.449c0 5.523 4.477 10 10 10z"/><path d="m90.58 98.632c3.896-3.914 3.882-10.245-.032-14.142l-9.668-9.624c-3.914-3.896-10.245-3.883-14.142.032-3.896 3.914-3.882 10.245.032 14.142l9.668 9.624c1.951 1.942 4.503 2.913 7.055 2.913 2.567 0 5.133-.982 7.087-2.945z"/><path d="m488.234 253.296h-10.497c-5.522 0-10 4.478-10 10s4.478 10 10 10h10.497c5.522 0 10-4.478 10-10s-4.477-10-10-10z"/><path d="m34.263 253.296h-10.497c-5.522 0-10 4.478-10 10s4.478 10 10 10h10.497c5.522 0 10-4.478 10-10s-4.478-10-10-10z"/><path d="m431.12 74.866-9.668 9.624c-3.914 3.897-3.929 10.228-.032 14.142 1.954 1.963 4.52 2.945 7.087 2.945 2.552 0 5.104-.971 7.055-2.913l9.668-9.624c3.914-3.896 3.929-10.228.032-14.142-3.896-3.913-10.227-3.928-14.142-.032z"/><path d="m380.771 99.876c-33.384-33.151-77.643-51.36-124.759-51.36-.426 0-.856.001-1.283.004-45.576.32-89.087 18.685-122.518 51.71-33.445 33.04-52.227 76.233-52.884 121.624-.568 39.238 11.563 76.532 35.081 107.849 21.204 28.235 50.877 49.748 84.164 61.165l-.066 17.619h-7.758c-5.522 0-10 4.478-10 10s4.478 10 10 10h7.683l-.082 21.757h-7.601c-5.522 0-10 4.478-10 10s4.478 10 10 10h7.526l-.119 31.72c-.01 2.658 1.039 5.211 2.916 7.095 1.876 1.884 4.426 2.942 7.084 2.942h95.689c2.658 0 5.208-1.059 7.084-2.942 1.877-1.884 2.926-4.436 2.916-7.095l-.119-31.72h7.526c5.522 0 10-4.478 10-10s-4.478-10-10-10h-7.601l-.082-21.757h7.683c5.522 0 10-4.478 10-10s-4.478-10-10-10h-7.758l-.066-17.619c32.887-11.283 62.303-32.456 83.438-60.204 23.438-30.77 35.826-67.5 35.826-106.218 0-47.083-18.439-91.323-51.92-124.57zm-86.964 392.124h-75.613l.081-21.757h75.45zm-75.457-41.757.081-21.757h75.137l.082 21.757zm82.223-76.265c-4.267 1.257-7.189 5.182-7.173 9.629l.094 24.879h-74.988l.094-24.879c.017-4.447-2.906-8.372-7.173-9.629-67.013-19.75-113.11-82.186-112.102-151.836 1.196-82.689 72.427-153.04 155.544-153.623.381-.003.758-.004 1.139-.004 41.797 0 81.063 16.151 110.67 45.552 29.673 29.465 46.014 68.664 46.014 110.378-.001 68.588-46.105 130.078-112.119 149.533z"/><path d="m359.277 172.178c6.723-7.217 6.577-18.574-.437-25.609l-24.708-24.796c-3.49-3.502-8.134-5.43-13.078-5.43-4.696 0-9.123 1.74-12.546 4.917-5.351-2.733-10.9-5.041-16.602-6.904-.346-9.878-8.489-17.807-18.449-17.807h-34.916c-9.96 0-18.104 7.929-18.449 17.807-5.701 1.863-11.251 4.171-16.602 6.904-3.423-3.177-7.85-4.917-12.546-4.917-4.944 0-9.588 1.928-13.077 5.43l-24.709 24.795c-7.014 7.037-7.159 18.396-.436 25.61-2.735 5.385-5.044 10.97-6.906 16.708-9.845.382-17.737 8.51-17.737 18.447v35.098c0 9.937 7.892 18.064 17.737 18.446 1.861 5.739 4.17 11.323 6.906 16.709-6.722 7.216-6.576 18.574.436 25.609l24.708 24.796c3.49 3.502 8.134 5.43 13.078 5.43 4.696 0 9.123-1.74 12.546-4.918 5.352 2.734 10.899 5.042 16.602 6.905.346 9.878 8.489 17.807 18.449 17.807h34.916c9.96 0 18.103-7.929 18.449-17.807 5.702-1.863 11.25-4.171 16.602-6.905 3.423 3.178 7.851 4.919 12.548 4.918 4.943 0 9.587-1.929 13.074-5.43l24.71-24.795c7.014-7.037 7.159-18.395.437-25.61 2.736-5.386 5.045-10.97 6.906-16.709 9.846-.382 17.737-8.51 17.737-18.446v-35.098c0-9.938-7.893-18.065-17.737-18.447-1.862-5.738-4.169-11.323-6.906-16.708zm4.644 68.713h-5.268c-4.586 0-8.584 3.119-9.699 7.567-2.27 9.05-5.849 17.712-10.637 25.747-2.341 3.927-1.72 8.94 1.507 12.178l3.768 3.781-22.537 22.616-3.718-3.732c-3.244-3.255-8.29-3.881-12.23-1.516-8.001 4.802-16.627 8.39-25.638 10.666-4.439 1.121-7.551 5.115-7.551 9.695v5.321h-31.838v-5.321c0-4.58-3.111-8.574-7.551-9.695-9.011-2.276-17.637-5.864-25.638-10.666-3.938-2.365-8.985-1.739-12.229 1.516l-3.719 3.732-22.536-22.616 3.768-3.781c3.227-3.237 3.848-8.251 1.507-12.178-4.788-8.035-8.367-16.697-10.637-25.747-1.115-4.448-5.113-7.567-9.699-7.567h-5.268v-32.018h5.268c4.586 0 8.584-3.119 9.699-7.567 2.27-9.049 5.849-17.711 10.637-25.746 2.341-3.926 1.721-8.939-1.506-12.178l-3.769-3.781 22.537-22.616 3.719 3.731c3.243 3.257 8.289 3.88 12.229 1.517 8.002-4.802 16.627-8.391 25.638-10.666 4.439-1.121 7.551-5.115 7.551-9.695v-5.321h31.838v5.321c0 4.58 3.111 8.574 7.551 9.695 9.011 2.275 17.636 5.864 25.638 10.666 3.941 2.362 8.984 1.738 12.229-1.517l3.719-3.731 22.537 22.616-3.769 3.781c-3.227 3.238-3.847 8.252-1.506 12.178 4.788 8.035 8.367 16.697 10.637 25.746 1.115 4.448 5.113 7.567 9.699 7.567h5.268v32.018z"/><path d="m256 154.721c-38.571 0-69.951 31.475-69.951 70.161 0 38.687 31.38 70.161 69.951 70.161s69.951-31.475 69.951-70.161c0-38.687-31.38-70.161-69.951-70.161zm0 120.322c-27.543 0-49.951-22.502-49.951-50.161s22.408-50.161 49.951-50.161 49.951 22.502 49.951 50.161-22.408 50.161-49.951 50.161z"/></g></svg>