<svg id="Capa_1" enable-background="new 0 0 512.001 512.001" height="512" viewBox="0 0 512.001 512.001" width="512" xmlns="http://www.w3.org/2000/svg"><path d="m433.041 340.943h-27.906v-34.498c0-21.075-17.145-38.221-38.221-38.221h-64.253v-57.967c0-17.054 7.172-33.566 19.677-45.305 19.43-18.235 30.13-42.877 30.13-69.384 0-25.606-10.088-49.659-28.406-67.727-18.563-18.308-43.219-28.219-69.43-27.831-52.972.73-95.63 44.04-95.092 96.547.267 26.028 10.898 50.257 29.938 68.222 12.623 11.911 19.863 28.488 19.863 45.48v57.966h-64.253c-21.075 0-38.221 17.146-38.221 38.221v34.498h-27.906c-23.833 0-43.223 19.39-43.223 43.223v71.965c0 5.522 4.477 10 10 10h15.989v10.288c0 19.62 15.963 35.583 35.583 35.583h317.381c19.62 0 35.583-15.963 35.583-35.583v-10.29h15.989c5.522 0 10-4.478 10-10v-71.965c0-23.833-19.389-43.222-43.222-43.222zm-229.837-190.711c-15.051-14.2-23.455-33.336-23.666-53.88-.425-41.518 33.386-75.765 75.369-76.343 20.79-.297 40.388 7.552 55.11 22.072 14.478 14.279 22.45 33.274 22.45 53.487 0 20.924-8.458 40.386-23.817 54.802-16.517 15.503-25.989 37.331-25.989 59.887v57.967h-53.32v-57.966c-.001-22.474-9.527-44.352-26.137-60.026zm-76.337 156.213c0-10.047 8.174-18.221 18.221-18.221h221.826c10.047 0 18.221 8.174 18.221 18.221v34.498h-258.268zm303.407 169.973c0 8.593-6.99 15.583-15.583 15.583h-317.381c-8.593 0-15.583-6.99-15.583-15.583v-10.288h348.547zm25.989-30.288h-400.525v-61.965c0-12.805 10.418-23.223 23.223-23.223h354.08c12.805 0 23.223 10.418 23.223 23.223v61.965z"/></svg>