<svg width="32" height="32" viewBox="0 0 32 32" fill="none" xmlns="http://www.w3.org/2000/svg">
<path opacity="0.5" d="M31.238 12.9523H0.761841V26.6666C0.761841 27.879 1.24347 29.0418 2.10078 29.8991C2.95809 30.7564 4.12085 31.238 5.33327 31.238H26.6666C27.879 31.238 29.0418 30.7564 29.8991 29.8991C30.7564 29.0418 31.238 27.879 31.238 26.6666V12.9523ZM8.38089 9.9047C7.97675 9.9047 7.58916 9.74415 7.30339 9.45839C7.01762 9.17262 6.85708 8.78503 6.85708 8.38089V2.28565C6.85708 1.88151 7.01762 1.49392 7.30339 1.20815C7.58916 0.922385 7.97675 0.761841 8.38089 0.761841C8.78503 0.761841 9.17262 0.922385 9.45839 1.20815C9.74415 1.49392 9.9047 1.88151 9.9047 2.28565V8.38089C9.9047 8.78503 9.74415 9.17262 9.45839 9.45839C9.17262 9.74415 8.78503 9.9047 8.38089 9.9047ZM23.619 9.9047C23.2148 9.9047 22.8273 9.74415 22.5415 9.45839C22.2557 9.17262 22.0952 8.78503 22.0952 8.38089V2.28565C22.0952 1.88151 22.2557 1.49392 22.5415 1.20815C22.8273 0.922385 23.2148 0.761841 23.619 0.761841C24.0231 0.761841 24.4107 0.922385 24.6965 1.20815C24.9823 1.49392 25.1428 1.88151 25.1428 2.28565V8.38089C25.1428 8.78503 24.9823 9.17262 24.6965 9.45839C24.4107 9.74415 24.0231 9.9047 23.619 9.9047Z"/>
<path d="M26.6666 3.80957H25.1428V8.381C25.1428 8.78514 24.9823 9.17273 24.6965 9.45849C24.4107 9.74426 24.0231 9.90481 23.619 9.90481C23.2148 9.90481 22.8273 9.74426 22.5415 9.45849C22.2557 9.17273 22.0952 8.78514 22.0952 8.381V3.80957H9.9047V8.381C9.9047 8.78514 9.74415 9.17273 9.45839 9.45849C9.17262 9.74426 8.78503 9.90481 8.38089 9.90481C7.97675 9.90481 7.58916 9.74426 7.30339 9.45849C7.01762 9.17273 6.85708 8.78514 6.85708 8.381V3.80957H5.33327C4.12085 3.80957 2.95809 4.2912 2.10078 5.14851C1.24347 6.00582 0.761841 7.16858 0.761841 8.381V12.9524H31.238V8.381C31.238 7.16858 30.7564 6.00582 29.8991 5.14851C29.0418 4.2912 27.879 3.80957 26.6666 3.80957V3.80957Z"/>
</svg>
