<svg width="32" height="32" viewBox="0 0 32 32" fill="none" xmlns="http://www.w3.org/2000/svg">
<path d="M19.3422 16L29.5348 5.8311C29.9811 5.38475 30.2319 4.77937 30.2319 4.14814C30.2319 3.5169 29.9811 2.91152 29.5348 2.46517C29.0884 2.01882 28.483 1.76807 27.8518 1.76807C27.2206 1.76807 26.6152 2.01882 26.1688 2.46517L15.9999 12.6578L5.83105 2.46517C5.38471 2.01882 4.77933 1.76807 4.14809 1.76807C3.51686 1.76807 2.91148 2.01882 2.46513 2.46517C2.01878 2.91152 1.76802 3.5169 1.76802 4.14814C1.76802 4.77937 2.01878 5.38475 2.46513 5.8311L12.6577 16L2.46513 26.1689C2.24296 26.3892 2.06662 26.6514 1.94628 26.9402C1.82593 27.2291 1.76398 27.5389 1.76398 27.8518C1.76398 28.1648 1.82593 28.4746 1.94628 28.7634C2.06662 29.0523 2.24296 29.3144 2.46513 29.5348C2.68549 29.757 2.94765 29.9333 3.2365 30.0537C3.52535 30.174 3.83517 30.236 4.14809 30.236C4.46101 30.236 4.77083 30.174 5.05968 30.0537C5.34853 29.9333 5.6107 29.757 5.83105 29.5348L15.9999 19.3422L26.1688 29.5348C26.3892 29.757 26.6514 29.9333 26.9402 30.0537C27.2291 30.174 27.5389 30.236 27.8518 30.236C28.1647 30.236 28.4745 30.174 28.7634 30.0537C29.0522 29.9333 29.3144 29.757 29.5348 29.5348C29.7569 29.3144 29.9333 29.0523 30.0536 28.7634C30.174 28.4746 30.2359 28.1648 30.2359 27.8518C30.2359 27.5389 30.174 27.2291 30.0536 26.9402C29.9333 26.6514 29.7569 26.3892 29.5348 26.1689L19.3422 16Z"/>
</svg>
