<svg width="29" height="32" viewBox="0 0 29 32" fill="none" xmlns="http://www.w3.org/2000/svg">
<path fill-rule="evenodd" clip-rule="evenodd" d="M16.6035 2.57988C17.8471 1.80297 19.3161 1.35407 20.8897 1.35407C25.3689 1.35407 28.9999 4.99089 28.9999 9.47715C28.9999 12.9817 26.7842 15.9678 23.6793 17.107C22.0156 20.5504 18.4917 22.931 14.4232 22.931C8.75717 22.931 4.14746 18.3141 4.14746 12.6388C4.14746 6.96378 8.75717 2.34671 14.4232 2.34671C15.1711 2.34671 15.9006 2.42717 16.6035 2.57988ZM3.54152 0.428348L6.48401 3.37126L5.74654 4.1099C3.46465 6.39373 2.20554 9.4374 2.20554 12.6696C2.20554 15.9006 3.4638 18.9412 5.74648 21.2276C8.02917 23.5139 11.0651 24.7741 14.2909 24.7741C17.5167 24.7741 20.5525 23.5139 22.8352 21.2276C23.2427 20.8194 23.9002 20.8194 24.3082 21.2281C24.7151 21.6346 24.7151 22.2943 24.3077 22.7024C21.6305 25.3838 18.0739 26.8603 14.2909 26.8603H13.6914V29.7045H20.8542C21.4306 29.7045 21.8957 30.1703 21.8957 30.7476C21.8957 31.3248 21.4306 31.7907 20.8542 31.7907H4.44579C3.86945 31.7907 3.40436 31.3248 3.40436 30.7476C3.40436 30.1703 3.86945 29.7045 4.44579 29.7045H11.6086V26.6029L11.1413 26.4971C8.52849 25.9054 6.16892 24.6035 4.27401 22.704C1.59732 20.0231 0.122681 16.4594 0.122681 12.6713C0.122681 9.41982 1.20442 6.32756 3.21991 3.81248L3.55682 3.39211L3.17569 3.01152L2.06874 1.90611C1.6613 1.49802 1.66088 0.838675 2.06712 0.429701C2.47467 0.0215062 3.13298 0.0212543 3.54152 0.428348ZM20.8897 16.8618C24.9617 16.8618 28.2626 13.5556 28.2626 9.47715C28.2626 5.39874 24.9617 2.09253 20.8897 2.09253C16.8178 2.09253 13.5169 5.39874 13.5169 9.47715C13.5169 13.5556 16.8178 16.8618 20.8897 16.8618ZM23.9389 10.8323C23.9389 11.3757 23.7444 11.8454 23.3555 12.2414C22.9666 12.6375 22.4029 12.8912 21.6643 13.0025V13.5033C21.6643 13.8287 21.4009 14.0925 21.0761 14.0925C20.7512 14.0925 20.4877 13.8287 20.4877 13.5033V13.0418C19.9975 13.009 19.5335 12.9256 19.0955 12.7914C18.8231 12.7079 18.5797 12.6123 18.3654 12.5047C18.159 12.4011 18.0704 12.1533 18.1643 11.942C18.1675 11.935 18.1705 11.9282 18.1733 11.9218L18.4922 11.2046C18.5675 11.0352 18.7655 10.959 18.9346 11.0344C18.9422 11.0378 18.9496 11.0415 18.9569 11.0454C18.9739 11.0546 18.9898 11.0629 19.0046 11.0704C19.2213 11.1801 19.4575 11.2743 19.7133 11.3527C20.1185 11.4771 20.5172 11.5393 20.9094 11.5393C21.6545 11.5393 22.0271 11.3527 22.0271 10.9796C22.0271 10.7832 21.9208 10.6375 21.7084 10.5426C21.496 10.4477 21.1544 10.3478 20.6838 10.2431C20.1675 10.1318 19.7361 10.0123 19.3897 9.88466C19.0432 9.757 18.7458 9.55243 18.4975 9.27093C18.2491 8.98942 18.1249 8.60971 18.1249 8.1318C18.1249 7.56879 18.3275 7.08598 18.7328 6.68337C19.138 6.28074 19.723 6.03361 20.4877 5.94196V5.45094C20.4877 5.12554 20.7512 4.86176 21.0761 4.86176C21.4009 4.86176 21.6643 5.12554 21.6643 5.45094V5.92231C22.0369 5.95504 22.3947 6.0205 22.7379 6.1187C22.9797 6.18791 23.2029 6.27176 23.4074 6.37023C23.4245 6.37846 23.4439 6.38815 23.4655 6.39929C23.5733 6.45491 23.6205 6.58406 23.574 6.69626L23.1289 7.77041C23.0921 7.85931 22.9903 7.90147 22.9016 7.86459C22.8977 7.86296 22.8938 7.86117 22.89 7.85927C22.8574 7.84282 22.8296 7.82914 22.8066 7.81822C22.241 7.54936 21.6903 7.41495 21.1545 7.41495C20.7688 7.41495 20.4878 7.47222 20.3113 7.58679C20.1348 7.70136 20.0466 7.8503 20.0466 8.03361C20.0466 8.21691 20.1511 8.35439 20.3603 8.44605C20.5695 8.5377 20.9061 8.63261 21.3702 8.73081C21.8931 8.8421 22.3261 8.96159 22.6692 9.08925C23.0124 9.21692 23.3098 9.41985 23.5615 9.69809C23.8131 9.97632 23.9389 10.3544 23.9389 10.8323Z"/>
</svg>
