<svg width="34" height="32" viewBox="0 0 34 32" xmlns="http://www.w3.org/2000/svg">
<path d="M8.20689 7.90124C7.89595 7.90124 7.59774 8.0261 7.37787 8.24837C7.158 8.47063 7.03448 8.77209 7.03448 9.08642V14.6173C7.03448 15.2715 7.55972 15.8025 8.20689 15.8025H24.6207C24.9316 15.8025 25.2298 15.6776 25.4497 15.4553C25.6696 15.2331 25.7931 14.9316 25.7931 14.6173V9.08642C25.7931 8.77209 25.6696 8.47063 25.4497 8.24837C25.2298 8.0261 24.9316 7.90124 24.6207 7.90124H8.20689ZM9.3793 13.4321V10.2716H23.4483V13.4321H9.3793ZM19.1494 17.3827C18.8385 17.3827 18.5403 17.5076 18.3204 17.7299C18.1005 17.9521 17.977 18.2536 17.977 18.5679V19.042C18.2302 18.9898 18.4913 18.963 18.7586 18.963H25.7931V18.5679C25.7931 18.2536 25.6696 17.9521 25.4497 17.7299C25.2298 17.5076 24.9316 17.3827 24.6207 17.3827H19.1494ZM15.6322 18.5679V20.5432C15.1413 21.2038 14.8506 22.0239 14.8506 22.9136V28.4444H3.51723C3.20629 28.4444 2.90808 28.3196 2.68821 28.0973C2.46834 27.875 2.34482 27.5736 2.34482 27.2593V5.89748C1.74883 5.5496 1.28304 5.01264 1.01969 4.36988C0.756343 3.72713 0.710149 3.01449 0.888273 2.34249C1.0664 1.67049 1.45889 1.07668 2.00487 0.653144C2.55086 0.229613 3.21983 3.06086e-05 3.90804 0H28.9195C29.6077 3.06086e-05 30.2767 0.229613 30.8227 0.653144C31.3687 1.07668 31.7612 1.67049 31.9393 2.34249C32.1174 3.01449 32.0712 3.72713 31.8079 4.36988C31.5445 5.01264 31.0787 5.5496 30.4828 5.89748V18.963H28.1379V6.32099H4.68965V26.0741H7.03448V18.5679C7.03448 18.2536 7.158 17.9521 7.37787 17.7299C7.59774 17.5076 7.89595 17.3827 8.20689 17.3827H14.4598C14.7707 17.3827 15.0689 17.5076 15.2888 17.7299C15.5087 17.9521 15.6322 18.2536 15.6322 18.5679V18.5679ZM3.12643 3.16049C3.12643 3.37005 3.20878 3.57102 3.35536 3.7192C3.50194 3.86737 3.70074 3.95062 3.90804 3.95062H28.9195C29.1268 3.95062 29.3256 3.86737 29.4722 3.7192C29.6188 3.57102 29.7011 3.37005 29.7011 3.16049C29.7011 2.95094 29.6188 2.74997 29.4722 2.60179C29.3256 2.45362 29.1268 2.37037 28.9195 2.37037H3.90804C3.70074 2.37037 3.50194 2.45362 3.35536 2.60179C3.20878 2.74997 3.12643 2.95094 3.12643 3.16049ZM13.2873 26.0741V19.7531H9.3793V26.0741H13.2873ZM16.4138 22.9136C16.4138 22.2849 16.6608 21.682 17.1006 21.2375C17.5403 20.7929 18.1367 20.5432 18.7586 20.5432H31.2644C31.8862 20.5432 32.4827 20.7929 32.9224 21.2375C33.3621 21.682 33.6092 22.2849 33.6092 22.9136V29.2346C33.6092 29.8632 33.3621 30.4661 32.9224 30.9107C32.4827 31.3552 31.8862 31.6049 31.2644 31.6049H18.7586C18.1367 31.6049 17.5403 31.3552 17.1006 30.9107C16.6608 30.4661 16.4138 29.8632 16.4138 29.2346V22.9136ZM32.046 23.7037C31.6314 23.7037 31.2338 23.5372 30.9406 23.2409C30.6474 22.9445 30.4828 22.5426 30.4828 22.1235H28.9195C28.9195 22.9617 29.2489 23.7656 29.8352 24.3583C30.4216 24.951 31.2168 25.284 32.046 25.284V23.7037ZM32.046 26.8642C31.2168 26.8642 30.4216 27.1972 29.8352 27.7899C29.2489 28.3826 28.9195 29.1865 28.9195 30.0247H30.4828C30.4828 29.6056 30.6474 29.2036 30.9406 28.9073C31.2338 28.6109 31.6314 28.4444 32.046 28.4444V26.8642ZM19.5402 22.1235C19.5402 22.5426 19.3755 22.9445 19.0824 23.2409C18.7892 23.5372 18.3916 23.7037 17.977 23.7037V25.284C18.8062 25.284 19.6014 24.951 20.1877 24.3583C20.7741 23.7656 21.1034 22.9617 21.1034 22.1235H19.5402ZM21.1034 30.0247C21.1034 29.1865 20.7741 28.3826 20.1877 27.7899C19.6014 27.1972 18.8062 26.8642 17.977 26.8642V28.4444C18.3916 28.4444 18.7892 28.6109 19.0824 28.9073C19.3755 29.2036 19.5402 29.6056 19.5402 30.0247H21.1034ZM27.7471 26.0741C27.7471 25.3406 27.4589 24.6372 26.9459 24.1186C26.4328 23.6 25.737 23.3086 25.0115 23.3086C24.286 23.3086 23.5901 23.6 23.0771 24.1186C22.5641 24.6372 22.2759 25.3406 22.2759 26.0741C22.2759 26.8075 22.5641 27.5109 23.0771 28.0295C23.5901 28.5482 24.286 28.8395 25.0115 28.8395C25.737 28.8395 26.4328 28.5482 26.9459 28.0295C27.4589 27.5109 27.7471 26.8075 27.7471 26.0741V26.0741Z"/>
</svg>
