<svg width="34" height="32" viewBox="0 0 34 32" fill="none" xmlns="http://www.w3.org/2000/svg">
<path d="M32.3886 15.75L17.8005 1.05C17.6954 0.943874 17.5707 0.859676 17.4333 0.802228C17.296 0.74478 17.1487 0.71521 17.0001 0.71521C16.8514 0.71521 16.7041 0.74478 16.5668 0.802228C16.4294 0.859676 16.3047 0.943874 16.1996 1.05L1.61151 15.75C1.18651 16.1786 0.945679 16.7607 0.945679 17.3679C0.945679 18.6286 1.96214 19.6536 3.21235 19.6536H4.74943V30.1429C4.74943 30.775 5.25589 31.2857 5.88276 31.2857H14.7334V23.2857H18.7001V31.2857H28.1173C28.7442 31.2857 29.2507 30.775 29.2507 30.1429V19.6536H30.7878C31.3898 19.6536 31.9671 19.4143 32.3921 18.9821C33.274 18.0893 33.274 16.6429 32.3886 15.75V15.75Z"/>
</svg>
