<svg width="32" height="32" viewBox="0 0 32 32" fill="none" xmlns="http://www.w3.org/2000/svg">
<path d="M15.1543 30.9821C15.4047 31.1491 15.699 31.2383 16 31.2383C16.3011 31.2383 16.5954 31.1491 16.8458 30.9821L30.5601 21.8392C30.7328 21.7245 30.8802 21.5757 30.9933 21.402C31.1065 21.2282 31.1828 21.0331 31.2178 20.8288C31.2528 20.6244 31.2456 20.415 31.1967 20.2136C31.1478 20.0121 31.0582 19.8227 30.9334 19.6571L17.2191 1.37141C16.6446 0.60341 15.3555 0.60341 14.781 1.37141L1.06672 19.6571C0.942371 19.8229 0.853136 20.0122 0.804468 20.2137C0.7558 20.4151 0.748722 20.6243 0.783665 20.8285C0.818609 21.0328 0.89484 21.2277 1.0077 21.4015C1.12056 21.5753 1.26767 21.7242 1.44005 21.8392L15.1543 30.9821ZM27.5277 20.1966L16 27.8827V4.82589L27.5277 20.1966V20.1966Z"/>
</svg>
