<svg width="230" height="140" viewBox="0 0 230 140" fill="none" xmlns="http://www.w3.org/2000/svg">
<path d="M223.582 115.138C223.287 114.394 222.929 113.677 222.511 112.995C221.204 110.04 223.751 106.996 225.56 104.343C227.102 102.079 228.193 99.5371 228.772 96.8587C228.88 96.5478 228.922 96.2182 228.897 95.8902C228.871 95.5622 228.779 95.243 228.625 94.9525C228.466 94.7563 228.268 94.5967 228.042 94.4845C227.817 94.3723 227.569 94.3102 227.318 94.3023C225.656 94.1841 224.29 95.61 223.478 97.0656C222.666 98.5211 222.068 100.183 220.768 101.225C218.251 103.235 213.688 102.481 212.373 105.429C211.561 107.254 212.573 109.729 211.236 111.214C210.752 111.668 210.186 112.024 209.567 112.264C206.009 113.956 202.745 116.505 200.833 119.955C196.572 127.676 203.602 140.776 213.2 136.365C219.144 133.638 217.313 128.585 218.206 123.804C218.797 120.568 224.394 118.448 223.582 115.138Z" fill="black"/>
<path d="M209.384 137.613C208.128 137.593 206.89 137.308 205.752 136.777C204.613 136.247 203.599 135.482 202.775 134.532C199.121 130.58 198.124 124.1 200.516 119.755C202.731 115.707 206.593 113.254 209.413 111.909L209.531 111.85C210.063 111.642 210.549 111.333 210.964 110.941C211.621 110.202 211.628 109.153 211.643 108.03C211.586 107.086 211.721 106.141 212.042 105.252C212.869 103.383 214.87 102.88 216.812 102.4C218.143 102.17 219.413 101.667 220.54 100.922C221.423 100.094 222.118 99.0863 222.578 97.9669C222.763 97.5901 222.955 97.2281 223.162 96.8513C223.686 95.9129 225.133 93.7481 227.348 93.8959C227.654 93.9035 227.955 93.9791 228.228 94.1171C228.501 94.2551 228.74 94.4521 228.928 94.6938C229.115 95.0286 229.23 95.3986 229.265 95.7803C229.301 96.1619 229.256 96.5468 229.135 96.9104C228.541 99.633 227.431 102.216 225.864 104.52C225.672 104.809 225.465 105.104 225.258 105.4C223.627 107.734 221.766 110.387 222.844 112.788C222.972 113.058 223.118 113.32 223.28 113.571C223.565 114.011 223.786 114.488 223.937 114.99C224.439 117.037 222.807 118.618 221.22 120.162C220.038 121.307 218.813 122.489 218.569 123.804C218.372 125.026 218.264 126.261 218.244 127.499C218.104 131.134 217.971 134.562 213.356 136.682C212.115 137.277 210.76 137.594 209.384 137.613ZM227.104 94.6643C225.421 94.6643 224.225 96.4523 223.782 97.2428C223.582 97.5975 223.398 97.9817 223.213 98.3289C222.714 99.536 221.958 100.62 220.998 101.506C219.793 102.328 218.426 102.882 216.989 103.131C215.143 103.597 213.4 104.033 212.714 105.577C212.436 106.374 212.321 107.218 212.374 108.06C212.374 109.264 212.374 110.52 211.503 111.458C211.029 111.925 210.467 112.292 209.849 112.537L209.731 112.596C207.006 113.889 203.3 116.29 201.158 120.132C198.943 124.196 199.859 130.299 203.314 134.03C204.481 135.404 206.074 136.347 207.839 136.71C209.604 137.073 211.44 136.834 213.053 136.032C217.255 134.096 217.373 131.038 217.484 127.484C217.5 126.219 217.611 124.957 217.816 123.708C218.104 122.164 219.411 120.893 220.681 119.674C222.157 118.197 223.597 116.859 223.191 115.241C223.059 114.809 222.865 114.398 222.615 114.022C222.443 113.742 222.285 113.454 222.143 113.158C220.902 110.35 222.881 107.52 224.624 105.03C224.83 104.735 225.037 104.447 225.229 104.158C226.739 101.931 227.812 99.4359 228.389 96.8069C228.572 96.2766 228.54 95.696 228.301 95.1889C228.174 95.0363 228.017 94.9131 227.838 94.8276C227.66 94.7421 227.465 94.6965 227.267 94.6938L227.104 94.6643Z" fill="black"/>
<path d="M17.9488 117.428C15.3054 115.692 14.796 112.101 13.2676 109.301C11.178 105.503 7.09488 103.235 2.98222 101.912C2.29554 101.683 1.40213 101.536 0.966498 102.112C0.764205 102.424 0.682819 102.8 0.737605 103.168C0.966497 107.239 5.16776 110.276 5.30066 114.347C5.35235 116.615 4.11191 119.017 5.13823 121.041C6.16454 123.066 8.91124 123.649 9.80465 125.681C10.4249 127.1 9.93018 128.725 9.93756 130.269C10.0262 140.79 29.2309 141.744 33.4395 133.89C35.3371 130.358 33.9342 126.021 31.5789 123.088C27.6065 118.137 22.5192 120.428 17.9488 117.428Z" fill="black"/>
<path d="M22.1062 139.461C20.6292 139.467 19.1567 139.296 17.7204 138.951C12.6552 137.695 9.59842 134.466 9.59842 130.306C9.60543 129.812 9.63747 129.319 9.69441 128.829C9.87649 127.842 9.80794 126.826 9.49505 125.873C8.96747 124.95 8.20268 124.185 7.27997 123.657C6.25943 123.062 5.40597 122.218 4.79909 121.204C4.09765 119.815 4.37822 118.285 4.64403 116.808C4.81988 116.004 4.91388 115.185 4.92461 114.362C4.8803 112.397 3.82445 110.668 2.70953 108.88C1.59461 107.092 0.494453 105.289 0.368932 103.191C0.313963 102.733 0.421078 102.27 0.671659 101.883C1.12944 101.292 1.94164 101.181 3.09348 101.565C8.2103 103.257 11.747 105.806 13.5929 109.168C14.0731 110.092 14.4972 111.045 14.8629 112.02C15.6751 114.074 16.443 116.017 18.1486 117.133C20.0019 118.352 21.9955 118.677 23.9226 118.987C26.6545 119.43 29.4751 119.889 31.8673 122.874C34.0824 125.6 35.8619 130.166 33.7649 134.074C31.8083 137.717 26.8686 139.461 22.1062 139.461ZM1.9121 102.075C1.79013 102.065 1.66755 102.084 1.55368 102.128C1.43981 102.173 1.33765 102.243 1.25496 102.334C1.11218 102.582 1.05998 102.871 1.10729 103.154C1.21066 105.06 2.24436 106.73 3.32237 108.488C4.40037 110.247 5.6039 112.182 5.65558 114.34C5.64612 115.215 5.54716 116.086 5.36024 116.941C5.10181 118.359 4.85816 119.704 5.44884 120.871C6.0056 121.746 6.76555 122.474 7.66392 122.992C8.70595 123.598 9.56352 124.477 10.1448 125.533C10.5135 126.594 10.6025 127.731 10.4032 128.836C10.3589 129.316 10.3146 129.804 10.3146 130.269C10.3589 135.752 15.6382 137.658 17.905 138.205C23.354 139.549 30.7155 138.205 33.1225 133.712C35.0497 130.122 33.3441 125.866 31.2988 123.317C29.0837 120.554 26.5216 120.14 23.8118 119.704C21.8109 119.379 19.7361 119.039 17.7499 117.731C15.7637 116.423 15.0032 114.347 14.1836 112.278C13.8203 111.33 13.3987 110.404 12.921 109.508C11.1637 106.323 7.75252 103.885 2.83505 102.26C2.53799 102.154 2.22708 102.091 1.9121 102.075Z" fill="black"/>
<path d="M32.0363 105.474C32.1101 103.752 33.1291 102.208 33.3654 100.501C33.9413 96.2232 29.7252 93.1127 26.949 89.7878C23.9956 86.2636 22.445 81.8305 20.7468 77.6117C20.1266 76.0749 19.4325 74.479 18.133 73.452C16.8335 72.425 14.7365 72.2107 13.6142 73.452C12.7873 74.3608 12.7356 75.7276 12.8168 76.9615C13.0219 79.9116 13.7208 82.8063 14.8842 85.5247C15.9253 87.9629 17.3725 90.475 16.9147 93.0905C16.5381 95.2479 14.9507 96.9399 13.7102 98.7353C12.4698 100.531 11.4952 102.917 12.551 104.846C13.1786 106.028 14.3969 106.744 15.4454 107.572C17.4394 109.215 18.901 111.414 19.645 113.889C20.389 116.365 20.3818 119.006 19.6245 121.477C19.0854 122.745 18.6867 124.068 18.4357 125.422C18.2142 127.705 19.4694 129.892 21.0569 131.547C26.8678 137.591 42.3143 138.655 44.7951 128.592C45.8805 124.196 43.9017 118.477 40.8745 115.293C38.0687 112.323 31.8296 110.343 32.0363 105.474Z" fill="black"/>
<path d="M33.2778 136.461C28.5597 136.461 23.6127 134.702 20.7921 131.762C19.6551 130.58 17.7944 128.178 18.075 125.349C18.2117 124.372 18.4774 123.418 18.865 122.511C19.0053 122.142 19.153 121.773 19.2711 121.388C19.9997 118.988 20.0037 116.425 19.2826 114.023C18.5614 111.62 17.1473 109.484 15.2175 107.882L14.5382 107.365C13.6055 106.773 12.8161 105.98 12.2272 105.045C10.9793 102.696 12.4339 99.9692 13.4085 98.5506C13.6743 98.1664 13.9623 97.8118 14.2429 97.398C15.2397 96.0533 16.2734 94.6569 16.5539 93.0536C16.9157 90.97 15.978 88.8865 15.0772 86.8768C14.9 86.4779 14.7228 86.0863 14.553 85.6873C13.3696 82.9201 12.6631 79.9723 12.4634 76.9689C12.3748 75.7572 12.4044 74.2278 13.3569 73.186C14.6564 71.7601 16.9748 72.063 18.3703 73.186C19.7658 74.3091 20.4229 75.8311 21.0949 77.5009L21.6486 78.9047C23.1253 82.6359 24.6537 86.5 27.238 89.5662C27.8213 90.2608 28.4932 90.9701 29.1356 91.6572C31.6312 94.2949 34.2155 97.0286 33.7356 100.568C33.5976 101.37 33.3748 102.155 33.071 102.91C32.7214 103.736 32.4998 104.61 32.4139 105.503C32.2736 108.658 35.072 110.564 37.7818 112.404C38.9887 113.161 40.1167 114.037 41.1487 115.019C44.4935 118.499 46.2212 124.358 45.1654 128.636C44.2646 132.279 41.5769 134.872 37.5972 135.944C36.1856 136.301 34.7338 136.475 33.2778 136.461ZM15.6827 72.9644C15.3484 72.9534 15.0156 73.0137 14.7063 73.141C14.397 73.2684 14.1182 73.46 13.8885 73.7032C13.1501 74.5307 13.1132 75.868 13.1501 76.932C13.345 79.8535 14.0314 82.7212 15.1806 85.4139C15.3504 85.8055 15.5276 86.1971 15.7048 86.5887C16.6573 88.7018 17.6393 90.8888 17.2406 93.194C16.9305 94.9746 15.8451 96.4375 14.7967 97.8561C14.5161 98.2255 14.2429 98.6023 13.9771 98.9865C13.2387 100.014 11.762 102.629 12.84 104.713C13.3806 105.553 14.0989 106.264 14.9443 106.796C15.1806 106.966 15.4095 107.143 15.6384 107.321C17.685 109.016 19.1848 111.28 19.9495 113.826C20.7141 116.373 20.7092 119.088 19.9356 121.632C19.8101 122.016 19.6624 122.371 19.5148 122.785C19.1724 123.63 18.9416 124.517 18.8281 125.422C18.5771 127.957 20.3048 130.166 21.3459 131.252C24.8826 134.946 31.9487 136.675 37.42 135.205C40.0485 134.466 43.4007 132.759 44.4639 128.437C45.5641 124.004 43.3785 118.366 40.6318 115.5C39.6339 114.558 38.5457 113.716 37.3831 112.988C34.6437 111.126 31.5426 109.02 31.6903 105.451C31.7903 104.481 32.0393 103.531 32.4287 102.636C32.7197 101.923 32.9302 101.18 33.0563 100.42C33.4919 97.2355 31.0332 94.6347 28.6261 92.1153C27.9764 91.4207 27.2971 90.7115 26.699 89.9948C24.0335 86.8325 22.4904 82.9166 20.9915 79.1264L20.4303 77.7299C19.8027 76.1562 19.1382 74.6637 17.9347 73.718C17.2874 73.2255 16.4958 72.9606 15.6827 72.9644Z" fill="black"/>
<path d="M158.09 139.542H209.893V91.2658H158.09V139.542Z" fill="#FFC800"/>
<path d="M209.893 139.904H158.09C157.992 139.904 157.898 139.865 157.829 139.795C157.759 139.726 157.72 139.632 157.72 139.534V91.2581C157.72 91.1601 157.759 91.0662 157.829 90.9969C157.898 90.9276 157.992 90.8887 158.09 90.8887H209.893C209.991 90.8887 210.085 90.9276 210.154 90.9969C210.223 91.0662 210.262 91.1601 210.262 91.2581V139.534C210.262 139.632 210.223 139.726 210.154 139.795C210.085 139.865 209.991 139.904 209.893 139.904ZM158.459 139.165H209.524V91.6275H158.459V139.165Z" fill="black"/>
<path d="M91.5112 139.534H143.314V68.5312H91.5112V139.534Z" fill="#FFC800"/>
<path d="M143.316 139.904H91.5052C91.4073 139.904 91.3134 139.865 91.2441 139.796C91.1749 139.726 91.136 139.632 91.136 139.534V68.5314C91.1379 68.434 91.1774 68.3412 91.2462 68.2723C91.315 68.2034 91.4078 68.1639 91.5052 68.162H143.316C143.413 68.1639 143.506 68.2034 143.575 68.2723C143.644 68.3412 143.683 68.434 143.685 68.5314V139.534C143.685 139.632 143.646 139.726 143.577 139.796C143.508 139.865 143.414 139.904 143.316 139.904ZM91.8743 139.165H142.947V68.9008H91.8743V139.165Z" fill="black"/>
<path d="M24.9272 139.534H76.7305L76.7305 31.7072H24.9272L24.9272 139.534Z" fill="#FFC800"/>
<path d="M76.7297 139.904H24.9264C24.8285 139.904 24.7346 139.865 24.6654 139.796C24.5961 139.726 24.5573 139.633 24.5573 139.535V31.7074C24.5573 31.6095 24.5961 31.5155 24.6654 31.4462C24.7346 31.3769 24.8285 31.338 24.9264 31.338H76.7297C76.8276 31.338 76.9215 31.3769 76.9908 31.4462C77.06 31.5155 77.0989 31.6095 77.0989 31.7074V139.535C77.0989 139.583 77.0893 139.631 77.0708 139.676C77.0522 139.721 77.025 139.761 76.9908 139.796C76.9565 139.83 76.9158 139.857 76.871 139.876C76.8262 139.894 76.7782 139.904 76.7297 139.904ZM25.2956 139.165H76.3605V32.0769H25.2956V139.165Z" fill="black"/>
<path d="M170.857 59.8721V69.4918H163.784L170.857 73.6146V85.0815H206.173V59.8721H170.857Z" fill="#FBFBFB"/>
<path d="M206.171 85.4509H170.855C170.758 85.449 170.665 85.4095 170.596 85.3406C170.527 85.2718 170.488 85.1789 170.486 85.0815V73.8289L163.597 69.8096C163.528 69.7684 163.474 69.7057 163.443 69.6311C163.413 69.5564 163.408 69.4738 163.429 69.3959C163.45 69.3181 163.496 69.2492 163.559 69.1998C163.623 69.1505 163.701 69.1233 163.782 69.1225H170.486V59.8721C170.488 59.7747 170.527 59.6819 170.596 59.613C170.665 59.5441 170.758 59.5046 170.855 59.5027H206.171C206.269 59.5027 206.363 59.5416 206.432 59.6109C206.501 59.6802 206.54 59.7741 206.54 59.8721V85.0815C206.54 85.1795 206.501 85.2735 206.432 85.3427C206.363 85.412 206.269 85.4509 206.171 85.4509ZM171.224 84.7121H205.802V60.2415H171.224V69.4919C171.224 69.5899 171.185 69.6838 171.116 69.7531C171.047 69.8224 170.953 69.8613 170.855 69.8613H165.148L171.054 73.2969C171.11 73.3292 171.157 73.3755 171.189 73.4312C171.221 73.4869 171.239 73.5502 171.239 73.6146L171.224 84.7121Z" fill="black"/>
<path d="M180.159 44.8367C180.255 44.5485 180.351 44.2604 180.454 43.9722C180.506 43.8245 180.565 43.6767 180.624 43.5289C180.657 43.4369 180.72 43.3589 180.804 43.3079C180.887 43.2568 180.985 43.2357 181.082 43.2482C181.318 43.2482 181.547 43.3295 181.776 43.3664C181.901 43.3884 182.026 43.4032 182.153 43.4107C182.246 43.4159 182.338 43.3871 182.411 43.3294C182.677 43.0709 182.935 42.8049 183.186 42.5389C183.23 42.4892 183.26 42.4292 183.274 42.3646C183.289 42.3 183.286 42.2329 183.268 42.1695C183.208 41.8887 183.142 41.6079 183.083 41.3272C183.065 41.2171 183.065 41.1048 183.083 40.9947C183.085 40.9539 183.096 40.914 183.113 40.8773C183.131 40.8405 183.156 40.8076 183.186 40.7804C183.617 40.4992 184.087 40.285 184.582 40.145C184.655 40.1225 184.733 40.1239 184.804 40.1492C184.876 40.1745 184.938 40.2223 184.981 40.2854C185.158 40.5292 185.342 40.773 185.512 41.0242C185.569 41.1185 185.651 41.1948 185.749 41.2445C185.847 41.2941 185.957 41.3151 186.066 41.305C186.369 41.305 186.679 41.305 186.989 41.2607C187.046 41.2577 187.102 41.2406 187.15 41.211C187.199 41.1813 187.24 41.14 187.269 41.0907C187.38 40.9282 187.484 40.7657 187.587 40.6031C187.69 40.4406 187.772 40.315 187.868 40.182C187.911 40.1122 187.978 40.0596 188.056 40.0327C188.134 40.0058 188.218 40.0064 188.296 40.0342C188.724 40.182 189.152 40.3297 189.573 40.4923C189.653 40.5247 189.719 40.5835 189.76 40.6588C189.802 40.734 189.817 40.8213 189.802 40.906C189.802 41.1425 189.728 41.3789 189.684 41.6449C189.684 41.7557 189.684 41.8665 189.647 41.9774C189.637 42.0491 189.644 42.1224 189.668 42.1906C189.693 42.2589 189.734 42.3201 189.787 42.3689C190.009 42.5832 190.238 42.7901 190.459 43.0117C190.52 43.079 190.599 43.1277 190.686 43.1525C190.774 43.1774 190.867 43.1772 190.954 43.1521L191.869 42.9453C191.969 42.9118 192.078 42.9185 192.173 42.964C192.269 43.0095 192.342 43.0902 192.379 43.1891C192.556 43.5511 192.726 43.9279 192.881 44.2899C192.913 44.34 192.934 44.3959 192.943 44.4544C192.952 44.5128 192.95 44.5725 192.935 44.6299C192.921 44.6873 192.895 44.7411 192.859 44.7881C192.823 44.8351 192.777 44.8742 192.726 44.9032C192.571 45.0214 192.401 45.1322 192.239 45.2504L191.899 45.5238C191.855 45.5623 191.819 45.61 191.795 45.6636C191.771 45.7171 191.758 45.7753 191.759 45.8341C191.759 46.1592 191.759 46.4769 191.759 46.7946C191.761 46.8824 191.785 46.9682 191.831 47.0434C191.876 47.1186 191.94 47.1806 192.017 47.2232L192.541 47.5335C192.645 47.6 192.755 47.6665 192.851 47.7404C192.927 47.7865 192.982 47.8585 193.008 47.9429C193.034 48.0272 193.028 48.1181 192.992 48.1984C192.851 48.59 192.711 48.9373 192.563 49.351C192.539 49.4117 192.507 49.4688 192.467 49.521C192.434 49.5828 192.381 49.632 192.317 49.6614C192.253 49.6907 192.182 49.6984 192.113 49.6835L191.279 49.5505H191.22C191.104 49.5205 190.982 49.5256 190.869 49.565C190.756 49.6045 190.657 49.6766 190.585 49.7722C190.43 49.9569 190.252 50.1268 190.083 50.3042C190.005 50.3803 189.949 50.4763 189.922 50.5818C189.895 50.6873 189.896 50.7982 189.928 50.9026C189.994 51.176 190.06 51.442 190.119 51.7153C190.141 51.7679 190.152 51.8246 190.15 51.8815C190.148 51.9385 190.134 51.9944 190.109 52.0455C190.084 52.0966 190.048 52.1417 190.004 52.1778C189.96 52.2139 189.909 52.2401 189.854 52.2547C189.485 52.432 189.115 52.602 188.717 52.7645C188.631 52.8115 188.53 52.8239 188.436 52.7992C188.341 52.7744 188.259 52.7145 188.207 52.6315C188.059 52.4468 187.927 52.2473 187.786 52.0552C187.491 51.6341 187.417 51.5971 186.9 51.6267H186.302C186.206 51.6268 186.112 51.6521 186.029 51.7001C185.946 51.7481 185.878 51.817 185.83 51.9001C185.711 52.0995 185.593 52.3064 185.468 52.4985C185.4 52.6008 185.323 52.6971 185.239 52.7867C185.202 52.8328 185.151 52.8656 185.094 52.8802C185.036 52.8949 184.976 52.8906 184.921 52.8679L183.711 52.4172C183.656 52.3921 183.605 52.3625 183.555 52.3286C183.492 52.2948 183.441 52.2413 183.41 52.176C183.379 52.1107 183.371 52.0372 183.386 51.9666L183.519 51.1464C183.526 51.0629 183.526 50.9788 183.519 50.8952C183.525 50.827 183.516 50.7581 183.492 50.694C183.468 50.6299 183.429 50.5723 183.378 50.5258L182.729 49.9126C182.666 49.8524 182.588 49.8104 182.504 49.7908C182.419 49.7713 182.331 49.7751 182.249 49.8017L181.436 49.9864C181.082 50.0529 180.971 49.9864 180.816 49.6761C180.661 49.3658 180.491 48.9373 180.344 48.5752C180.319 48.5333 180.303 48.4868 180.297 48.4385C180.29 48.3902 180.294 48.3411 180.307 48.2942C180.32 48.2473 180.343 48.2035 180.373 48.1655C180.403 48.1274 180.441 48.0959 180.484 48.0728C180.705 47.9103 180.92 47.7477 181.148 47.6C181.26 47.5388 181.351 47.4455 181.408 47.3322C181.466 47.2189 181.489 47.0909 181.473 46.9646C181.473 46.6764 181.473 46.3883 181.429 46.1001C181.428 46.0396 181.412 45.9803 181.382 45.9274C181.352 45.8746 181.31 45.8299 181.259 45.7972L180.521 45.3391C180.35 45.2612 180.216 45.1212 180.144 44.9475L180.159 44.8367ZM189.307 46.44C189.308 46.0795 189.238 45.7223 189.1 45.3892C188.962 45.0562 188.76 44.7537 188.504 44.4995C188.249 44.2453 187.945 44.0442 187.612 43.9081C187.278 43.7719 186.921 43.7033 186.561 43.7063C185.845 43.7272 185.165 44.024 184.663 44.5348C184.16 45.0456 183.875 45.7309 183.866 46.4474C183.871 47.1654 184.158 47.8525 184.665 48.361C185.172 48.8694 185.858 49.1586 186.575 49.1663C186.935 49.1713 187.292 49.1042 187.625 48.969C187.958 48.8339 188.261 48.6333 188.516 48.3793C188.77 48.1252 188.971 47.8228 189.107 47.4897C189.243 47.1567 189.311 46.7997 189.307 46.44Z" fill="#FBFBFB"/>
<path d="M185.017 53.2448C184.939 53.2438 184.861 53.2287 184.788 53.2004L183.578 52.7497C183.504 52.7185 183.435 52.6788 183.371 52.6315C183.245 52.5571 183.145 52.4473 183.082 52.3158C183.019 52.1843 182.996 52.0371 183.016 51.8927L183.149 51.0652C183.157 50.9964 183.157 50.9271 183.149 50.8583C183.149 50.7992 183.149 50.7844 183.149 50.777L182.492 50.1638C182.471 50.1498 182.447 50.1423 182.422 50.1423C182.397 50.1423 182.373 50.1498 182.352 50.1638L181.761 50.3042L181.54 50.3559C181.436 50.3945 181.327 50.4121 181.217 50.4077C181.107 50.4033 180.998 50.3769 180.899 50.3301C180.799 50.2833 180.71 50.217 180.636 50.1351C180.562 50.0533 180.505 49.9575 180.469 49.8535C180.292 49.484 180.137 49.1146 179.982 48.7304C179.905 48.5684 179.889 48.3838 179.938 48.2111C179.987 48.0385 180.097 47.8895 180.248 47.7921C180.469 47.6246 180.698 47.4621 180.934 47.3044C180.989 47.277 181.033 47.2328 181.061 47.1783C181.089 47.1239 181.099 47.0619 181.089 47.0015C181.089 46.8168 181.089 46.6321 181.089 46.44V46.1371L180.351 45.6642C180.109 45.5405 179.92 45.3331 179.819 45.0805C179.816 45.0412 179.816 45.0016 179.819 44.9623V44.8589C179.812 44.8198 179.812 44.7797 179.819 44.7407L179.893 44.5042L180.115 43.8688C180.166 43.7137 180.233 43.5585 180.292 43.4107C180.355 43.2444 180.473 43.1043 180.625 43.0131C180.778 42.9219 180.957 42.885 181.134 42.9083C181.289 42.9083 181.451 42.9526 181.614 42.9822L181.946 43.0413C182.015 43.0453 182.084 43.0453 182.153 43.0413C182.423 42.8082 182.682 42.5616 182.928 42.3025L182.832 41.8961C182.795 41.7335 182.758 41.5784 182.728 41.4158C182.694 41.2708 182.681 41.1213 182.692 40.9725C182.699 40.8754 182.728 40.7812 182.776 40.6968C182.825 40.6124 182.892 40.54 182.972 40.4849C183.426 40.1835 183.924 39.9542 184.449 39.8052C184.593 39.7594 184.748 39.762 184.891 39.8127C185.034 39.8634 185.156 39.9593 185.239 40.0859L185.423 40.3371L185.785 40.8248C185.859 40.9356 185.903 40.9504 185.999 40.943H186.62H186.937C186.989 40.8395 187.055 40.7435 187.114 40.6401L187.299 40.3593L187.535 40.012C187.627 39.8816 187.759 39.7845 187.911 39.7352C188.062 39.6859 188.226 39.6871 188.377 39.7387C188.813 39.8864 189.241 40.0342 189.669 40.2041C189.824 40.2642 189.955 40.3749 190.039 40.5184C190.123 40.6619 190.157 40.8298 190.134 40.9947C190.134 41.1646 190.082 41.3272 190.053 41.4971L190.016 41.7262C190.016 41.8222 190.016 41.9256 189.972 42.0291C189.96 42.06 189.96 42.0942 189.972 42.1251L190.127 42.2655C190.304 42.4281 190.481 42.598 190.651 42.7753C190.695 42.8197 190.725 42.8344 190.813 42.7753L191.722 42.5684C191.903 42.5086 192.1 42.5214 192.272 42.604C192.444 42.6867 192.578 42.8328 192.645 43.0117C192.822 43.3812 192.992 43.7506 193.154 44.1274C193.251 44.3033 193.278 44.5097 193.229 44.7046C193.179 44.8996 193.058 45.0683 192.888 45.1766L192.586 45.3982L192.394 45.5312L192.076 45.7824V46.041C192.076 46.2774 192.076 46.5213 192.076 46.7799C192.076 46.8056 192.082 46.8309 192.095 46.853C192.108 46.8751 192.127 46.8933 192.15 46.9055L192.371 47.0311L192.681 47.2158C192.802 47.2878 192.918 47.3667 193.029 47.4522C193.164 47.5483 193.264 47.6873 193.31 47.8469C193.357 48.0064 193.349 48.1772 193.287 48.3314C193.147 48.7156 193.006 49.0703 192.859 49.484C192.825 49.5645 192.783 49.6412 192.733 49.7131C192.657 49.8358 192.546 49.9334 192.415 49.9938C192.284 50.0542 192.138 50.0748 191.995 50.0529L191.16 49.9126H191.079C191.029 49.8967 190.974 49.8982 190.925 49.917C190.875 49.9357 190.833 49.9706 190.806 50.016C190.688 50.149 190.562 50.282 190.437 50.4076L190.289 50.5554C190.256 50.5883 190.232 50.6298 190.22 50.6754C190.208 50.721 190.209 50.7689 190.223 50.814C190.297 51.0873 190.363 51.3607 190.422 51.6415C190.455 51.7341 190.468 51.8322 190.462 51.9302C190.456 52.0281 190.431 52.1239 190.388 52.2119C190.344 52.3 190.284 52.3785 190.21 52.4429C190.136 52.5074 190.05 52.5564 189.957 52.5872C189.573 52.7719 189.219 52.9418 188.805 53.1044C188.645 53.1858 188.461 53.2059 188.287 53.161C188.113 53.1161 187.961 53.0093 187.86 52.8606C187.734 52.7054 187.616 52.5355 187.498 52.3729L187.424 52.2695C187.218 51.9739 187.218 51.9739 186.863 51.9961H186.265C186.229 51.9948 186.193 52.0038 186.162 52.0222C186.13 52.0405 186.105 52.0673 186.088 52.0996L185.97 52.299L185.719 52.7128C185.636 52.8324 185.545 52.946 185.446 53.0527C185.33 53.165 185.178 53.233 185.017 53.2448ZM182.418 49.3954C182.636 49.3973 182.844 49.4818 183.002 49.6318L183.651 50.2377C183.743 50.3208 183.814 50.4242 183.859 50.5396C183.904 50.655 183.921 50.7793 183.91 50.9026C183.91 50.9987 183.91 51.0947 183.91 51.1908L183.777 52.0109L183.873 52.0552L185.025 52.4911C185.085 52.4273 185.139 52.3581 185.187 52.2843L185.423 51.9001L185.549 51.6932C185.624 51.5617 185.731 51.4513 185.86 51.3725C185.989 51.2936 186.136 51.2489 186.287 51.2425H186.893C187.13 51.19 187.378 51.2191 187.596 51.325C187.814 51.4309 187.991 51.6075 188.096 51.8262L188.17 51.9296C188.281 52.0848 188.392 52.2399 188.51 52.3877H188.576C188.96 52.2325 189.315 52.0626 189.706 51.8853L189.78 51.841C189.776 51.8115 189.776 51.7817 189.78 51.7523C189.721 51.4863 189.662 51.2203 189.595 50.9617C189.546 50.7956 189.543 50.6194 189.586 50.4516C189.629 50.2838 189.716 50.1307 189.839 50.0086L189.994 49.8461C190.105 49.7352 190.223 49.6244 190.326 49.4988C190.44 49.3504 190.596 49.2389 190.773 49.1785C190.951 49.118 191.142 49.1112 191.323 49.1589L192.194 49.2993C192.194 49.255 192.238 49.2181 192.238 49.2033C192.386 48.8191 192.526 48.4644 192.667 48.0507C192.567 47.9685 192.458 47.899 192.342 47.8438L191.825 47.5409C191.695 47.4652 191.587 47.3576 191.511 47.2282C191.435 47.0989 191.393 46.9522 191.389 46.802C191.389 46.5508 191.389 46.307 191.389 46.0632V45.8415C191.388 45.7268 191.412 45.6131 191.459 45.5085C191.506 45.4039 191.576 45.3108 191.663 45.2357C191.781 45.1322 191.899 45.0362 192.017 44.9475L192.231 44.7998C192.32 44.7333 192.408 44.6742 192.497 44.6003C192.527 44.5791 192.554 44.5543 192.578 44.5264C192.583 44.4945 192.583 44.4622 192.578 44.4303C192.423 44.0609 192.253 43.6915 192.083 43.3442L191.987 43.2999L191.072 43.5068C190.923 43.5442 190.766 43.5413 190.618 43.4985C190.47 43.4556 190.336 43.3744 190.23 43.263C190.068 43.093 189.891 42.9305 189.721 42.7753L189.573 42.6276C189.48 42.541 189.408 42.4338 189.363 42.3145C189.318 42.1953 189.301 42.0672 189.315 41.9404C189.322 41.8189 189.336 41.698 189.359 41.5784L189.403 41.3346C189.403 41.1868 189.455 41.039 189.47 40.8913C189.056 40.6992 188.635 40.5514 188.214 40.4036C188.133 40.5218 188.059 40.6253 187.993 40.7361L187.816 41.0095L187.609 41.3198C187.549 41.418 187.466 41.4998 187.367 41.5578C187.267 41.6158 187.155 41.6483 187.04 41.6523H186.716H186.125C185.952 41.6705 185.778 41.6391 185.622 41.562C185.467 41.4848 185.336 41.3649 185.246 41.2164C185.135 41.0538 185.025 40.8987 184.907 40.7509L184.715 40.4923C184.278 40.6105 183.862 40.7949 183.482 41.039C183.475 41.1054 183.475 41.1722 183.482 41.2385C183.482 41.3937 183.548 41.5488 183.585 41.704L183.666 42.0808C183.699 42.2015 183.7 42.3285 183.671 42.45C183.641 42.5715 183.581 42.6834 183.496 42.7753C183.238 43.0487 182.972 43.3221 182.706 43.5807C182.566 43.7046 182.384 43.7706 182.197 43.7654C182.079 43.7759 181.96 43.7759 181.842 43.7654L181.51 43.7063L181.082 43.6398C181.082 43.6398 181.03 43.6398 181.001 43.6989C180.971 43.758 180.89 43.9722 180.838 44.12L180.624 44.7407L180.528 44.8884C180.587 44.9471 180.654 44.9969 180.727 45.0362L181.466 45.4943C181.567 45.559 181.65 45.6472 181.71 45.7515C181.769 45.8558 181.802 45.9729 181.805 46.0927V46.4031C181.805 46.5878 181.805 46.7651 181.805 46.9498C181.824 47.1416 181.788 47.3349 181.7 47.5065C181.613 47.6781 181.477 47.8208 181.311 47.9177C181.089 48.0655 180.883 48.2132 180.676 48.3758C180.624 48.3758 180.617 48.4275 180.617 48.4275C180.794 48.8117 180.949 49.1663 181.111 49.5284C181.132 49.5726 181.157 49.6146 181.185 49.654H181.333L181.577 49.5949L182.153 49.4619C182.237 49.4263 182.327 49.4038 182.418 49.3954ZM186.583 49.5358C185.972 49.5362 185.374 49.3547 184.867 49.0143C184.359 48.6739 183.964 48.1901 183.732 47.6244C183.5 47.0588 183.442 46.4368 183.564 45.8378C183.686 45.2387 183.984 44.6896 184.419 44.2604C184.699 43.9719 185.032 43.7417 185.401 43.5832C185.77 43.4247 186.167 43.3409 186.568 43.3368C186.976 43.3329 187.381 43.4102 187.76 43.5641C188.138 43.718 188.482 43.9455 188.772 44.2335C189.062 44.5214 189.292 44.8641 189.448 45.2416C189.605 45.6191 189.685 46.0239 189.684 46.4326C189.695 46.8257 189.627 47.217 189.485 47.5836C189.343 47.9503 189.13 48.2849 188.857 48.5679C188.564 48.8766 188.211 49.1218 187.82 49.2883C187.429 49.4548 187.008 49.539 186.583 49.5358ZM186.546 44.0757C185.934 44.1031 185.356 44.3681 184.936 44.8145C184.708 45.0281 184.525 45.2853 184.398 45.5708C184.272 45.8564 184.203 46.1645 184.198 46.4769C184.2 47.0982 184.447 47.6936 184.885 48.1336C185.323 48.5736 185.918 48.8226 186.538 48.8265C186.862 48.8317 187.183 48.7686 187.481 48.6413C187.779 48.514 188.046 48.3253 188.266 48.0876C188.471 47.8775 188.631 47.629 188.739 47.3563C188.847 47.0836 188.899 46.7923 188.894 46.4991C188.895 46.1871 188.834 45.878 188.714 45.5897C188.595 45.3015 188.42 45.0398 188.199 44.8198C187.977 44.5999 187.715 44.4261 187.426 44.3085C187.137 44.1909 186.828 44.1319 186.516 44.1348L186.546 44.0757Z" fill="#D1D3D4"/>
<path d="M87.0005 17.839L80.5915 14.9502V0.80127H47.2103V22.3977H80.5915V17.839H87.0005Z" fill="#FBFBFB"/>
<path d="M80.5915 22.7671H47.2102C47.1123 22.7671 47.0184 22.7282 46.9492 22.6589C46.88 22.5896 46.8411 22.4957 46.8411 22.3977V0.793861C46.843 0.696476 46.8825 0.603608 46.9513 0.534734C47.0201 0.465859 47.1129 0.42633 47.2102 0.424438H80.5915C80.6894 0.424438 80.7833 0.463359 80.8525 0.53264C80.9217 0.60192 80.9606 0.695884 80.9606 0.793861V14.7063L87.1555 17.4992C87.2534 17.5197 87.3391 17.5784 87.3938 17.6622C87.4485 17.746 87.4677 17.8482 87.4471 17.9462C87.4266 18.0441 87.368 18.1299 87.2842 18.1847C87.2004 18.2394 87.0983 18.2586 87.0004 18.238H80.9606V22.4273C80.9532 22.52 80.911 22.6066 80.8426 22.6696C80.7742 22.7326 80.6845 22.7674 80.5915 22.7671ZM47.5794 22.0283H80.2223V17.839C80.2223 17.7411 80.2612 17.6471 80.3304 17.5778C80.3996 17.5085 80.4935 17.4696 80.5915 17.4696H85.28L80.4438 15.2531C80.3789 15.2247 80.3235 15.1783 80.2842 15.1194C80.245 15.0604 80.2235 14.9914 80.2223 14.9206V1.16328H47.5794V22.0283Z" fill="black"/>
<path d="M64.4506 6.63069L69.4271 11.6401C69.4526 11.6672 69.4835 11.6884 69.5179 11.7025C69.5523 11.7165 69.5894 11.7229 69.6265 11.7213H77.2611C77.2299 12.9109 76.9121 14.0753 76.3347 15.1155C75.7573 16.1557 74.9373 17.041 73.9445 17.696C72.9518 18.351 71.8156 18.7564 70.6326 18.8777C69.4497 18.999 68.2549 18.8326 67.1501 18.3926C66.0452 17.9527 65.0628 17.2522 64.2866 16.3507C63.5104 15.4493 62.9632 14.3736 62.6916 13.2151C62.42 12.0566 62.4321 10.8496 62.7268 9.69683C63.0214 8.54401 63.59 7.47947 64.3841 6.59375L64.4506 6.63069Z" fill="#FFC800"/>
<path d="M70.1661 4.06702V11.1747H70.24H77.1141C77.2691 11.1747 77.2691 11.1747 77.2618 11.0196C77.1545 9.24793 76.4136 7.57412 75.1744 6.30426C73.9352 5.0344 72.2806 4.25335 70.5132 4.10396L70.1661 4.06702Z" fill="#D1D3D4"/>
<path d="M69.6422 11.0787V4.07446C68.8157 4.11717 68.001 4.28919 67.2277 4.58427C66.3018 4.94715 65.4582 5.49235 64.7468 6.18756L69.6422 11.0787Z" fill="#D1D3D4"/>
<path d="M59.3712 7.82796H50.8284C50.7305 7.82796 50.6366 7.78904 50.5674 7.71976C50.4981 7.65048 50.4592 7.55651 50.4592 7.45853C50.4592 7.36056 50.4981 7.2666 50.5674 7.19732C50.6366 7.12804 50.7305 7.08911 50.8284 7.08911H59.3712C59.4691 7.08911 59.563 7.12804 59.6323 7.19732C59.7015 7.2666 59.7404 7.36056 59.7404 7.45853C59.7404 7.55651 59.7015 7.65048 59.6323 7.71976C59.563 7.78904 59.4691 7.82796 59.3712 7.82796Z" fill="#D1D3D4"/>
<path d="M59.3712 11.4261H50.8284C50.7305 11.4261 50.6366 11.3872 50.5674 11.3179C50.4981 11.2486 50.4592 11.1547 50.4592 11.0567C50.4592 10.9587 50.4981 10.8647 50.5674 10.7955C50.6366 10.7262 50.7305 10.6873 50.8284 10.6873H59.3712C59.4691 10.6873 59.563 10.7262 59.6323 10.7955C59.7015 10.8647 59.7404 10.9587 59.7404 11.0567C59.7404 11.1547 59.7015 11.2486 59.6323 11.3179C59.563 11.3872 59.4691 11.4261 59.3712 11.4261Z" fill="#D1D3D4"/>
<path d="M56.4849 15.0242H50.866C50.7681 15.0242 50.6742 14.9853 50.605 14.916C50.5357 14.8468 50.4968 14.7528 50.4968 14.6548C50.4968 14.5568 50.5357 14.4629 50.605 14.3936C50.6742 14.3243 50.7681 14.2854 50.866 14.2854H56.4849C56.5828 14.2854 56.6767 14.3243 56.746 14.3936C56.8152 14.4629 56.8541 14.5568 56.8541 14.6548C56.8541 14.7528 56.8152 14.8468 56.746 14.916C56.6767 14.9853 56.5828 15.0242 56.4849 15.0242Z" fill="#D1D3D4"/>
<path d="M180.994 70.4521H178.255V81.6309H180.994V70.4521Z" fill="#FFC800"/>
<path d="M186.043 75.0701H183.304V81.631H186.043V75.0701Z" fill="#FFC800"/>
<path d="M191.094 72.0631H188.355V81.6312H191.094V72.0631Z" fill="#FFC800"/>
<path d="M196.152 77.5232H193.412V81.6312H196.152V77.5232Z" fill="#FFC800"/>
<path d="M201.202 72.0631H198.463V81.6312H201.202V72.0631Z" fill="#FFC800"/>
<path d="M201.136 63.6769H196.499C196.406 63.675 196.318 63.6368 196.253 63.5705C196.188 63.5042 196.152 63.4151 196.152 63.3223C196.151 63.2761 196.159 63.2301 196.176 63.1871C196.193 63.1441 196.218 63.105 196.251 63.072C196.283 63.0389 196.322 63.0127 196.364 62.9948C196.407 62.9769 196.453 62.9676 196.499 62.9677H201.136C201.23 62.9677 201.32 63.005 201.386 63.0715C201.453 63.138 201.49 63.2282 201.49 63.3223C201.488 63.4158 201.45 63.5049 201.384 63.571C201.318 63.6371 201.229 63.675 201.136 63.6769Z" fill="#D1D3D4"/>
<path d="M199.526 65.3984H196.499C196.406 65.3964 196.318 65.3582 196.253 65.2919C196.188 65.2256 196.152 65.1365 196.152 65.0437C196.151 64.9975 196.159 64.9516 196.176 64.9086C196.193 64.8656 196.218 64.8264 196.251 64.7934C196.283 64.7604 196.322 64.7341 196.364 64.7162C196.407 64.6983 196.453 64.6891 196.499 64.6891H199.526C199.62 64.6891 199.71 64.7264 199.777 64.793C199.843 64.8595 199.881 64.9497 199.881 65.0437C199.879 65.1372 199.841 65.2263 199.775 65.2924C199.709 65.3585 199.62 65.3965 199.526 65.3984Z" fill="#D1D3D4"/>
<path d="M195.119 72.462C193.561 72.462 192.254 70.7848 191.198 69.4401C190.644 68.7012 189.957 67.8516 189.633 67.8516C189.008 67.9776 188.415 68.2289 187.89 68.5904C186.923 69.1519 185.837 69.7873 184.752 69.7282C182.825 69.6248 179.428 65.672 179.052 65.2213C179.021 65.1866 178.998 65.1461 178.983 65.1023C178.969 65.0584 178.963 65.0121 178.966 64.966C178.97 64.9199 178.982 64.8749 179.003 64.8338C179.024 64.7926 179.053 64.756 179.089 64.7263C179.162 64.6669 179.255 64.6383 179.349 64.6465C179.443 64.6548 179.529 64.6993 179.591 64.7706C180.566 65.9232 183.416 68.9451 184.759 69.0263C185.748 68.9204 186.692 68.5588 187.499 67.9772C188.119 67.5402 188.827 67.2451 189.573 67.1127C190.216 67.1127 190.895 67.9255 191.722 68.9746C192.697 70.2233 193.937 71.7822 195.148 71.7231C196.211 71.6714 196.713 70.7479 197.304 69.6765C197.895 68.6052 198.5 67.46 199.763 67.2531C199.855 67.2377 199.949 67.2583 200.026 67.3106C200.103 67.3629 200.157 67.4428 200.176 67.5339C200.194 67.6259 200.174 67.7211 200.121 67.7986C200.069 67.8762 199.988 67.9297 199.896 67.9476C198.958 68.125 198.456 69.0411 197.924 70.0164C197.319 71.1173 196.64 72.3585 195.185 72.425L195.119 72.462Z" fill="#D1D3D4"/>
<path d="M203.543 81.9857H176.039C175.941 81.9857 175.847 81.9467 175.778 81.8775C175.709 81.8082 175.67 81.7142 175.67 81.6162C175.67 81.5183 175.709 81.4243 175.778 81.355C175.847 81.2857 175.941 81.2468 176.039 81.2468H203.543C203.641 81.2468 203.735 81.2857 203.804 81.355C203.873 81.4243 203.912 81.5183 203.912 81.6162C203.912 81.7142 203.873 81.8082 203.804 81.8775C203.735 81.9467 203.641 81.9857 203.543 81.9857Z" fill="#D1D3D4"/>
<path d="M179.384 65.8198C179.223 65.8198 179.066 65.7721 178.932 65.6828C178.799 65.5935 178.695 65.4666 178.633 65.3181C178.572 65.1696 178.556 65.0062 178.587 64.8485C178.618 64.6909 178.696 64.546 178.809 64.4324C178.923 64.3187 179.068 64.2413 179.225 64.21C179.383 64.1786 179.546 64.1947 179.695 64.2562C179.843 64.3177 179.97 64.4219 180.059 64.5555C180.148 64.6892 180.196 64.8463 180.196 65.0071C180.197 65.1141 180.177 65.2202 180.136 65.3193C180.096 65.4183 180.036 65.5083 179.96 65.584C179.885 65.6596 179.795 65.7195 179.696 65.76C179.597 65.8004 179.491 65.8208 179.384 65.8198ZM179.384 64.9036C179.356 64.9036 179.33 64.9145 179.311 64.9339C179.291 64.9533 179.28 64.9796 179.28 65.0071C179.28 65.1253 179.494 65.1253 179.494 65.0071C179.493 64.979 179.48 64.9526 179.46 64.9334C179.439 64.9142 179.412 64.9036 179.384 64.9036Z" fill="#D1D3D4"/>
<path d="M199.866 68.4429C199.651 68.4429 199.444 68.3572 199.292 68.2048C199.139 68.0524 199.054 67.8457 199.054 67.6301C199.054 67.4146 199.139 67.2078 199.292 67.0554C199.444 66.903 199.651 66.8174 199.866 66.8174C200.081 66.8174 200.288 66.903 200.44 67.0554C200.593 67.2078 200.678 67.4146 200.678 67.6301C200.678 67.8457 200.593 68.0524 200.44 68.2048C200.288 68.3572 200.081 68.4429 199.866 68.4429ZM199.866 67.5267C199.839 67.5267 199.812 67.5376 199.793 67.557C199.774 67.5764 199.763 67.6027 199.763 67.6301C199.763 67.7483 199.969 67.7483 199.969 67.6301C199.969 67.6027 199.959 67.5764 199.939 67.557C199.92 67.5376 199.893 67.5267 199.866 67.5267Z" fill="#D1D3D4"/>
<path d="M190.379 34.8326V32.7342C189.64 32.5274 188.902 32.3722 188.164 32.1284C186.773 31.6849 185.574 30.7839 184.76 29.572C184.09 28.5128 183.748 27.2788 183.778 26.0255H187.861C187.891 26.7346 188.151 27.4146 188.603 27.9616C189.055 28.5085 189.674 28.8925 190.364 29.0548V23.4987C189.545 23.2622 188.732 23.0406 187.92 22.7598C187.031 22.507 186.215 22.0431 185.543 21.4077C184.848 20.7132 184.386 19.8199 184.221 18.8513C183.981 17.6629 184.07 16.4314 184.479 15.2901C184.777 14.4678 185.253 13.7219 185.874 13.1061C186.494 12.4902 187.244 12.0199 188.068 11.7289C188.746 11.5126 189.437 11.335 190.135 11.1969L190.379 11.1452V8.37451H194.204V8.6405C194.204 9.43845 194.204 10.229 194.204 11.0196C194.204 11.2191 194.27 11.2782 194.455 11.3225C195.763 11.5711 196.989 12.1425 198.021 12.9849C199.105 13.8835 199.825 15.1472 200.044 16.5388C200.11 16.9156 200.14 17.2776 200.192 17.7061H196.035C196.024 17.1386 195.848 16.5865 195.528 16.1179C195.208 15.6492 194.758 15.2845 194.233 15.0684V20.2404L194.684 20.3438C195.805 20.5641 196.898 20.9137 197.94 21.3856C198.723 21.7266 199.399 22.2735 199.897 22.9681C200.395 23.6627 200.696 24.4792 200.768 25.331C201.004 26.9163 200.618 28.5316 199.69 29.838C198.925 30.9056 197.846 31.7066 196.603 32.1284C195.865 32.3944 195.038 32.5643 194.211 32.7934V34.8252L190.379 34.8326ZM194.218 24.2966V29.1213C194.838 29.0315 195.422 28.7763 195.909 28.3824C196.795 27.6436 197.113 25.8334 195.813 25.0429C195.296 24.7649 194.763 24.5158 194.218 24.2966ZM190.364 19.3611V14.7064C189.858 14.9235 189.365 15.1702 188.887 15.4453C188.615 15.6383 188.395 15.8961 188.248 16.1955C188.1 16.4949 188.029 16.8264 188.041 17.1601C188.054 17.4938 188.149 17.8191 188.319 18.1066C188.488 18.3941 188.727 18.6349 189.013 18.807C189.449 19.0287 189.899 19.169 190.364 19.3611Z" fill="#FFC800"/>
<path d="M194.202 35.202H190.378C190.28 35.2001 190.188 35.1606 190.119 35.0917C190.05 35.0229 190.01 34.93 190.008 34.8326V33.0224L189.573 32.9116C189.049 32.7786 188.547 32.6456 188.044 32.4757C186.577 32.0028 185.311 31.0505 184.449 29.7715C183.736 28.6546 183.374 27.3501 183.408 26.0256C183.405 25.9765 183.414 25.9275 183.431 25.8818C183.449 25.836 183.476 25.7944 183.511 25.7597C183.546 25.725 183.587 25.6978 183.633 25.68C183.679 25.6622 183.728 25.6541 183.777 25.6562H187.86C187.95 25.6536 188.038 25.6848 188.106 25.7436C188.174 25.8023 188.218 25.8844 188.229 25.9739C188.244 26.5261 188.419 27.0621 188.732 27.5171C189.045 27.9721 189.483 28.3266 189.994 28.5377V23.7795L189.529 23.6465C188.953 23.4766 188.377 23.314 187.808 23.1367C186.86 22.8534 185.994 22.3467 185.283 21.659C184.527 20.9093 184.028 19.9393 183.858 18.8883C183.604 17.6333 183.698 16.3326 184.131 15.1276C184.449 14.2584 184.955 13.4701 185.612 12.8188C186.269 12.1674 187.062 11.6692 187.934 11.3595C188.415 11.1886 188.909 11.0528 189.41 10.9531L190.016 10.8201V8.37455C190.016 8.27657 190.055 8.18261 190.124 8.11333C190.193 8.04405 190.287 8.00513 190.385 8.00513H194.21C194.308 8.00513 194.402 8.04405 194.471 8.11333C194.54 8.18261 194.579 8.27657 194.579 8.37455V9.30549C194.579 9.85963 194.579 10.4138 194.579 10.9679C195.935 11.2306 197.203 11.8274 198.271 12.7042C199.422 13.6558 200.187 14.996 200.419 16.4723C200.471 16.7383 200.501 17.0117 200.53 17.285L200.574 17.6618C200.58 17.7137 200.574 17.7661 200.558 17.8157C200.541 17.8652 200.515 17.9109 200.481 17.9498C200.446 17.9887 200.403 18.0199 200.356 18.0416C200.309 18.0632 200.257 18.0748 200.205 18.0756H196.033C195.94 18.074 195.85 18.0376 195.782 17.9734C195.714 17.9092 195.672 17.8218 195.664 17.7283C195.66 17.3307 195.562 16.9396 195.377 16.5876C195.192 16.2356 194.926 15.9326 194.601 15.7039V19.9523H194.756C195.907 20.1746 197.028 20.5342 198.094 21.0236C198.934 21.389 199.661 21.9756 200.195 22.721C200.729 23.4665 201.052 24.343 201.128 25.2572C201.383 26.9343 200.972 28.6444 199.984 30.0227C199.179 31.1549 198.036 32.0032 196.72 32.4461C196.181 32.6309 195.642 32.7712 195.066 32.919L194.557 33.0668V34.8178C194.559 34.8664 194.551 34.9148 194.534 34.9604C194.518 35.006 194.492 35.0478 194.459 35.0835C194.426 35.1192 194.387 35.148 194.343 35.1683C194.299 35.1887 194.251 35.2001 194.202 35.202ZM190.747 34.4632H193.818V32.8008C193.819 32.7199 193.846 32.6414 193.895 32.5773C193.945 32.5133 194.014 32.4672 194.092 32.4461L194.83 32.2393C195.391 32.0989 195.915 31.9585 196.432 31.7812C197.6 31.3851 198.615 30.6333 199.334 29.6311C200.216 28.403 200.579 26.8769 200.346 25.3828C200.285 24.5924 200.01 23.8335 199.549 23.1887C199.088 22.5439 198.46 22.0379 197.732 21.7255C196.714 21.2649 195.646 20.9252 194.549 20.7133L194.225 20.6394L194.099 20.6024C194.018 20.5855 193.944 20.5409 193.892 20.4763C193.84 20.4117 193.811 20.331 193.811 20.2478V15.0759C193.812 15.0133 193.829 14.9519 193.858 14.8968C193.888 14.8416 193.93 14.7941 193.981 14.7582C194.035 14.7291 194.096 14.7138 194.158 14.7138C194.22 14.7138 194.281 14.7291 194.335 14.7582C194.867 14.9775 195.331 15.3348 195.679 15.7933C196.026 16.2518 196.246 16.7948 196.314 17.3663H199.725C199.725 17.1151 199.674 16.8713 199.629 16.6275C199.424 15.3223 198.749 14.1372 197.732 13.2953C196.745 12.4938 195.576 11.9482 194.328 11.7067C194.168 11.6917 194.021 11.6141 193.919 11.4909C193.817 11.3676 193.767 11.2088 193.782 11.0492C193.782 10.4729 193.782 9.90396 193.782 9.33505V8.77353H190.695V11.1748C190.697 11.2603 190.668 11.3436 190.614 11.4099C190.56 11.4761 190.484 11.5211 190.4 11.5368H190.311H190.171L189.514 11.6846C189.05 11.7725 188.593 11.896 188.148 12.054C187.373 12.3282 186.669 12.7705 186.086 13.3492C185.503 13.9279 185.054 14.6285 184.774 15.401C184.383 16.4775 184.301 17.642 184.537 18.7627C184.68 19.6653 185.107 20.4987 185.756 21.1418C186.379 21.738 187.14 22.1718 187.971 22.4052C188.532 22.5899 189.1 22.7525 189.676 22.915L190.415 23.1219C190.491 23.1443 190.559 23.191 190.607 23.2549C190.654 23.3188 190.68 23.3966 190.68 23.4766V29.0327C190.681 29.0883 190.668 29.1432 190.644 29.1931C190.62 29.2431 190.584 29.2868 190.54 29.3208C190.495 29.3565 190.442 29.3811 190.386 29.3926C190.329 29.4042 190.271 29.4024 190.215 29.3873C189.523 29.2175 188.899 28.8435 188.422 28.3139C187.945 27.7842 187.639 27.1234 187.542 26.4172H184.153C184.185 27.4671 184.502 28.4886 185.069 29.3725C185.84 30.516 186.974 31.3649 188.288 31.7812C188.761 31.9437 189.241 32.0693 189.765 32.2023L190.503 32.387C190.58 32.4094 190.647 32.4561 190.695 32.52C190.743 32.584 190.769 32.6617 190.769 32.7417L190.747 34.4632ZM194.217 29.4908C194.13 29.4919 194.046 29.4603 193.981 29.4021C193.941 29.3668 193.908 29.3238 193.885 29.2755C193.863 29.2272 193.85 29.1747 193.848 29.1213V24.2967C193.848 24.2349 193.864 24.1742 193.894 24.1202C193.924 24.0661 193.967 24.0205 194.019 23.9874C194.072 23.9543 194.131 23.9349 194.193 23.9308C194.254 23.9268 194.316 23.9382 194.372 23.9642L194.889 24.1859C195.274 24.3346 195.646 24.5124 196.004 24.7178C196.307 24.9011 196.56 25.1559 196.742 25.4599C196.923 25.7639 197.027 26.1078 197.045 26.4615C197.076 26.8755 197.011 27.291 196.855 27.6755C196.698 28.0601 196.455 28.4032 196.144 28.678C195.608 29.1189 194.963 29.405 194.276 29.5055L194.217 29.4908ZM194.586 24.8582V28.6337C194.984 28.5221 195.354 28.3283 195.672 28.0648C195.889 27.8658 196.059 27.6204 196.169 27.3467C196.279 27.073 196.326 26.778 196.307 26.4837C196.297 26.2486 196.229 26.0197 196.109 25.8173C195.989 25.6149 195.821 25.4453 195.62 25.3237C195.292 25.1402 194.951 24.9797 194.601 24.8434L194.586 24.8582ZM190.363 19.7676C190.317 19.7773 190.269 19.7773 190.223 19.7676L189.794 19.5976C189.469 19.472 189.167 19.3538 188.864 19.206C188.525 19.0312 188.238 18.7694 188.033 18.4475C187.828 18.1256 187.713 17.7551 187.697 17.3737C187.665 16.9569 187.74 16.5387 187.916 16.1595C188.092 15.7803 188.362 15.4528 188.702 15.2089C189.025 14.9999 189.366 14.8194 189.721 14.6695L190.2 14.4405C190.257 14.4106 190.32 14.396 190.383 14.3982C190.447 14.4004 190.508 14.4193 190.562 14.453C190.616 14.4867 190.66 14.534 190.69 14.5902C190.72 14.6464 190.734 14.7094 190.732 14.773V19.4277C190.733 19.4878 190.718 19.5472 190.69 19.6002C190.662 19.6531 190.62 19.698 190.57 19.7306C190.506 19.764 190.434 19.7769 190.363 19.7676ZM189.994 15.3345C189.689 15.4656 189.395 15.6213 189.115 15.7999C188.888 15.9707 188.708 16.1951 188.589 16.453C188.471 16.711 188.418 16.9943 188.436 17.2776C188.441 17.5269 188.512 17.7703 188.642 17.9831C188.771 18.196 188.955 18.3706 189.174 18.4893C189.431 18.6184 189.695 18.7343 189.964 18.8366L189.994 15.3345Z" fill="black"/>
<path d="M143.034 3.19504C143.034 3.19504 166.499 2.03505 171.247 17.5508V48.5823C171.247 48.5823 153.017 34.1896 143.034 38.9773V3.19504Z" fill="#D1D3D4"/>
<path d="M171.247 48.893C171.164 48.8919 171.084 48.8633 171.019 48.8117C170.834 48.6713 152.84 34.6185 143.197 39.2806C143.143 39.3117 143.082 39.3281 143.02 39.3281C142.958 39.3281 142.897 39.3117 142.843 39.2806C142.789 39.2464 142.745 39.1995 142.714 39.1441C142.683 39.0886 142.667 39.0264 142.666 38.9629V3.19538C142.665 3.09991 142.702 3.00812 142.768 2.93925C142.834 2.87038 142.925 2.82978 143.02 2.82596C143.256 2.82596 166.832 1.82852 171.602 17.4108C171.605 17.4476 171.605 17.4847 171.602 17.5216V48.5531C171.602 48.6223 171.583 48.6902 171.546 48.749C171.51 48.8078 171.457 48.8551 171.395 48.8856C171.347 48.8965 171.297 48.8989 171.247 48.893ZM147.79 37.5813C151.43 37.5813 155.867 38.926 161.08 41.6006C164.512 43.3999 167.798 45.4651 170.908 47.7773V17.5512C166.581 3.58697 146.357 3.46875 143.433 3.51308V38.3423C144.823 37.8087 146.302 37.5502 147.79 37.5813Z" fill="black"/>
<path d="M166.5 39.3914C166.414 39.3914 166.332 39.362 166.266 39.3082C166.2 39.2543 166.155 39.1793 166.138 39.0959C164.787 32.5054 162.136 23.1516 160.482 22.9964C159.611 22.9078 159.131 25.0209 158.71 26.8827C158.23 28.9885 157.779 30.9833 156.613 31.4414C156.336 31.5345 156.04 31.5548 155.753 31.5005C155.466 31.4461 155.198 31.319 154.974 31.1311C151.334 28.6855 147.502 13.2215 147.339 12.5639C147.317 12.468 147.333 12.3671 147.384 12.2828C147.435 12.1986 147.517 12.1377 147.612 12.1132C147.707 12.091 147.807 12.1073 147.89 12.1585C147.973 12.2097 148.033 12.2917 148.055 12.3866C148.1 12.5418 151.976 28.2348 155.38 30.5179C155.509 30.6335 155.665 30.716 155.834 30.7585C156.002 30.8009 156.178 30.802 156.347 30.7617C157.144 30.4366 157.595 28.4639 157.986 26.7202C158.525 24.3485 159.02 22.1098 160.548 22.2871C163.354 22.5531 166.3 36.2365 166.861 38.9776C166.871 39.0252 166.871 39.0742 166.862 39.1218C166.853 39.1695 166.834 39.2148 166.808 39.2553C166.781 39.2958 166.746 39.3306 166.706 39.3578C166.666 39.3849 166.621 39.4039 166.573 39.4136L166.5 39.3914Z" fill="black"/>
<path d="M171.248 17.551C171.248 17.551 169.638 30.2001 161.767 32.9116V60.4041C161.767 60.4041 167.674 57.7294 171.248 48.5825V17.551Z" fill="#FBFBFB"/>
<path d="M161.766 60.7512C161.668 60.7512 161.574 60.7123 161.505 60.643C161.436 60.5737 161.397 60.4798 161.397 60.3818V32.882C161.399 32.8054 161.424 32.7312 161.468 32.6691C161.513 32.6071 161.576 32.5602 161.648 32.5347C169.209 29.9266 170.863 17.5953 170.878 17.477C170.881 17.4297 170.894 17.3836 170.916 17.3415C170.938 17.2993 170.968 17.262 171.004 17.2317C171.041 17.2014 171.083 17.1787 171.129 17.165C171.174 17.1513 171.222 17.1469 171.269 17.1519C171.362 17.1593 171.45 17.2012 171.514 17.2695C171.578 17.3378 171.614 17.4276 171.616 17.5214V48.5529C171.623 48.5969 171.623 48.6418 171.616 48.6859C168.05 57.9067 162.187 60.633 161.943 60.7438C161.886 60.7596 161.825 60.7621 161.766 60.7512ZM162.135 33.1406V59.739C163.612 58.845 168.042 55.7345 170.878 48.4347V21.0974C169.807 25.0724 167.356 31.1826 162.135 33.1406Z" fill="black"/>
<path d="M157.942 10.1627C157.871 10.1648 157.801 10.1441 157.743 10.1035C156.443 9.28591 154.982 8.75914 153.46 8.55936C153.412 8.55474 153.364 8.54054 153.321 8.51757C153.278 8.49459 153.24 8.46331 153.209 8.42552C153.178 8.38773 153.155 8.34419 153.141 8.29741C153.127 8.25064 153.123 8.20155 153.128 8.15299C153.139 8.05697 153.187 7.96892 153.261 7.90704C153.335 7.84516 153.43 7.81418 153.527 7.82051C155.17 8.03061 156.748 8.59801 158.149 9.48292C158.23 9.53845 158.287 9.6237 158.306 9.72039C158.325 9.81709 158.306 9.91751 158.252 10.0001C158.217 10.0499 158.171 10.0905 158.117 10.1188C158.063 10.1471 158.003 10.1621 157.942 10.1627Z" fill="black"/>
<path d="M157.639 12.5935C157.566 12.592 157.495 12.5716 157.433 12.5343C156.593 11.9805 155.663 11.5756 154.686 11.3374C154.637 11.3297 154.591 11.3124 154.549 11.2867C154.507 11.2609 154.471 11.2272 154.442 11.1874C154.413 11.1476 154.393 11.1025 154.381 11.0548C154.37 11.007 154.368 10.9574 154.376 10.9089C154.384 10.8604 154.401 10.8139 154.426 10.772C154.452 10.7302 154.486 10.6938 154.526 10.665C154.565 10.6362 154.611 10.6155 154.658 10.6041C154.706 10.5927 154.756 10.5908 154.804 10.5986C155.884 10.8508 156.911 11.291 157.839 11.8989C157.921 11.9519 157.979 12.0354 157.999 12.1309C158.02 12.2265 158.002 12.3264 157.949 12.4087C157.917 12.4631 157.872 12.5084 157.818 12.5407C157.764 12.573 157.702 12.5911 157.639 12.5935Z" fill="black"/>
<path d="M131.057 38.9037L134.705 36.5394C135.857 35.8006 137.164 33.584 138.116 33.6875C139.069 33.7909 137.023 36.4138 137.023 36.4138C137.023 36.4138 140.878 34.1382 141.985 34.1973C143.093 34.2564 143.462 36.1774 143.137 36.7241C142.812 37.2709 139.63 38.2979 138.389 39.2731C136.723 40.3702 134.998 41.3741 133.221 42.2802" fill="#FBFBFB"/>
<path d="M133.207 42.6718C133.125 42.6706 133.046 42.6423 132.982 42.5913C132.919 42.5404 132.873 42.4696 132.854 42.3902C132.835 42.3108 132.842 42.2272 132.875 42.1524C132.908 42.0777 132.965 42.0161 133.037 41.9773C134.792 41.0882 136.495 40.1015 138.139 39.0219C139.031 38.4371 139.978 37.9421 140.967 37.5442C141.614 37.294 142.231 36.9718 142.806 36.5837C142.918 36.1082 142.85 35.6077 142.614 35.1799C142.56 35.039 142.47 34.9146 142.354 34.8187C142.237 34.7229 142.098 34.659 141.949 34.6332C141.211 34.5814 138.641 35.9409 137.187 36.798C137.113 36.8418 137.026 36.8584 136.941 36.8449C136.856 36.8314 136.778 36.7887 136.722 36.7241C136.668 36.6571 136.638 36.5737 136.638 36.4877C136.638 36.4016 136.668 36.3182 136.722 36.2512C137.268 35.6218 137.696 34.8983 137.984 34.116C137.593 34.1677 136.943 34.8548 136.412 35.4828C135.979 36.0188 135.483 36.5002 134.935 36.9162L131.287 39.2805L130.889 38.6599C130.889 38.6599 133.384 37.0344 134.536 36.2956C135.04 35.9155 135.496 35.4765 135.895 34.9878C136.685 34.1086 137.438 33.2811 138.191 33.3845C138.305 33.3938 138.415 33.4346 138.507 33.5024C138.6 33.5702 138.672 33.6624 138.715 33.7687C138.781 34.3439 138.619 34.922 138.265 35.3794C139.498 34.7218 141.218 33.9017 141.957 33.9017H142.008C142.288 33.9289 142.555 34.0311 142.781 34.1976C143.007 34.364 143.184 34.5886 143.293 34.8474C143.478 35.1702 143.587 35.5302 143.614 35.9011C143.641 36.272 143.584 36.6441 143.448 36.9901C143.227 37.3373 142.555 37.6477 141.3 38.2239C140.363 38.6064 139.465 39.079 138.619 39.6351C136.94 40.7506 135.197 41.767 133.399 42.6792C133.336 42.6953 133.269 42.6927 133.207 42.6718Z" fill="black"/>
<path d="M134.337 23.9416C135.539 23.2965 136.81 22.7885 138.125 22.427C139.602 22.1314 141.485 22.028 141.145 21.3704C140.805 20.7129 137.305 21.1709 137.291 21.1783C138.893 20.9641 140.407 16.0729 140.886 14.8834C140.975 14.6938 141.018 14.4865 141.012 14.2775C141.003 14.1733 140.958 14.0757 140.883 14.0025C140.809 13.9293 140.71 13.8853 140.606 13.8785C140.462 13.9021 140.332 13.9753 140.237 14.0854C137.549 16.5605 135.142 19.1243 132.336 21.4739C132.056 21.7546 134.337 23.9416 134.337 23.9416Z" fill="#FBFBFB"/>
<path d="M134.336 24.3112C134.24 24.3103 134.147 24.2734 134.077 24.2078C131.936 22.1464 131.936 21.7031 131.943 21.5553C131.951 21.434 132.001 21.3191 132.084 21.2303C133.804 19.7526 135.406 18.2158 136.95 16.7085C137.932 15.7554 138.943 14.7727 139.984 13.8122C140.141 13.6426 140.353 13.5351 140.582 13.5093C140.784 13.5052 140.98 13.5802 141.127 13.7182C141.275 13.8561 141.363 14.0463 141.372 14.2482C141.395 14.5202 141.344 14.7933 141.225 15.0387C141.158 15.2087 141.07 15.4451 140.966 15.7332C140.287 17.6173 139.489 19.59 138.618 20.6909C139.947 20.6022 141.195 20.6909 141.476 21.2229C141.523 21.3155 141.548 21.4181 141.548 21.5221C141.548 21.6261 141.523 21.7287 141.476 21.8213C141.232 22.2868 140.479 22.4346 139.165 22.6414L138.183 22.8114C136.902 23.1674 135.664 23.663 134.491 24.2891C134.442 24.3084 134.388 24.316 134.336 24.3112ZM132.733 21.644C133.238 22.3049 133.796 22.9228 134.402 23.4911C135.559 22.8773 136.783 22.3988 138.05 22.0651C138.382 21.9986 138.729 21.9469 139.061 21.8878C139.643 21.8252 140.215 21.6963 140.767 21.5036C139.631 21.3252 138.473 21.3376 137.341 21.5406C137.243 21.5543 137.144 21.5285 137.065 21.4689C136.986 21.4094 136.934 21.3208 136.92 21.2229C136.906 21.1249 136.932 21.0255 136.992 20.9465C137.051 20.8675 137.14 20.8154 137.237 20.8017C138.389 20.6466 139.755 16.8785 140.272 15.4525C140.383 15.1569 140.471 14.9057 140.538 14.7136C140.605 14.5833 140.64 14.439 140.641 14.2925C140.64 14.2765 140.636 14.261 140.628 14.247C140.62 14.233 140.61 14.2208 140.597 14.2112C140.565 14.2546 140.527 14.2942 140.486 14.3294C139.453 15.2825 138.441 16.2652 137.466 17.2109C135.96 18.7034 134.402 20.218 132.733 21.644Z" fill="black"/>
<path d="M109.35 25.3163C109.35 25.3163 121.607 28.6189 123.557 28.3677L131.929 20.9792L135.917 24.3336C135.917 24.3336 132.823 30.865 129.22 34.4262C125.617 37.9875 105.098 36.3251 105.098 36.3251L109.35 25.3163Z" fill="#FBFBFB"/>
<path d="M115.184 37.0935C110.015 37.0935 105.459 36.7315 105.068 36.7019C105.011 36.6983 104.956 36.681 104.907 36.6514C104.858 36.6218 104.817 36.5808 104.788 36.532C104.762 36.4802 104.749 36.4234 104.749 36.3657C104.749 36.3081 104.762 36.2512 104.788 36.1995L109.04 25.1833C109.074 25.098 109.137 25.0281 109.219 24.9871C109.301 24.9461 109.395 24.9371 109.483 24.9616C112.732 25.8335 121.297 28.0131 123.328 28.0131H123.438L131.723 20.7133C131.789 20.6546 131.874 20.6222 131.963 20.6222C132.051 20.6222 132.137 20.6546 132.203 20.7133L136.19 24.0676C136.253 24.1203 136.297 24.1925 136.314 24.2728C136.331 24.3531 136.321 24.4369 136.286 24.511C136.16 24.7769 133.126 31.1606 129.515 34.707C127.529 36.628 121.002 37.0935 115.184 37.0935ZM105.622 36.0222C108.76 36.2438 125.823 37.3004 128.961 34.1972C132.099 31.0941 134.868 25.7005 135.459 24.4592L131.937 21.5038L123.815 28.678C123.759 28.7266 123.689 28.7575 123.616 28.7667C121.77 29.0031 111.58 26.3211 109.587 25.8113L105.622 36.0222Z" fill="black"/>
<path d="M127.582 100.76C127.582 100.76 125.042 103.146 125.212 104.454C125.381 105.762 132.972 114.303 133.887 113.468C134.803 112.633 132.292 105.341 132.292 105.341L127.582 100.76Z" fill="black"/>
<path d="M133.716 113.874C133.592 113.871 133.47 113.846 133.355 113.8C131.45 113.106 125.026 105.769 124.849 104.476C124.657 103.05 127.064 100.745 127.33 100.494C127.398 100.428 127.489 100.392 127.584 100.392C127.679 100.392 127.77 100.428 127.839 100.494L132.535 105.03C132.577 105.069 132.61 105.117 132.631 105.171C133.406 107.446 135.112 112.825 134.108 113.719C134.002 113.819 133.862 113.875 133.716 113.874ZM127.581 101.27C126.665 102.186 125.476 103.649 125.58 104.38C125.757 105.695 132.476 112.943 133.665 113.136C133.967 112.552 133.214 109.138 131.966 105.496L127.581 101.27Z" fill="black"/>
<path d="M131.309 94.657L127.581 100.76L132.291 105.296L137.098 98.2108L131.309 94.657Z" fill="#FBFBFB"/>
<path d="M132.29 105.666C132.194 105.666 132.101 105.629 132.032 105.562L127.321 101.041C127.262 100.982 127.224 100.905 127.213 100.822C127.203 100.739 127.22 100.655 127.262 100.582L130.954 94.4796C130.978 94.4369 131.011 94.3998 131.051 94.3706C131.09 94.3413 131.135 94.3206 131.183 94.3096C131.23 94.2981 131.279 94.2961 131.328 94.3037C131.376 94.3113 131.422 94.3284 131.464 94.354L137.252 97.9078C137.295 97.9337 137.332 97.9679 137.361 98.0086C137.391 98.0492 137.411 98.0954 137.422 98.1442C137.433 98.1937 137.433 98.245 137.423 98.2946C137.413 98.3442 137.392 98.3912 137.363 98.4324L132.593 105.474C132.563 105.517 132.524 105.554 132.478 105.581C132.432 105.608 132.38 105.624 132.327 105.629L132.29 105.666ZM128.052 100.701L132.231 104.72L136.573 98.3216L131.404 95.1593L128.052 100.701Z" fill="black"/>
<path d="M120.382 56.2742C120.382 56.2742 141.381 64.4014 145.22 68.4134C149.06 72.4253 142.732 96.9254 137.017 100.886L129.427 95.6251C129.427 95.6251 136.072 77.0579 134.691 75.292C133.31 73.5262 115.693 69.034 115.693 69.034L105.6 54.4935L120.382 56.2742Z" fill="black"/>
<path d="M137.017 101.255C136.943 101.256 136.87 101.232 136.81 101.189L129.22 95.928C129.153 95.8813 129.104 95.8143 129.079 95.737C129.053 95.6598 129.054 95.5765 129.08 95.4995C132.321 86.4708 135.193 76.5259 134.403 75.5506C133.428 74.3242 122.626 71.2136 115.604 69.4182C115.518 69.3966 115.441 69.3441 115.39 69.2704L105.297 54.7521C105.257 54.6937 105.234 54.6248 105.232 54.5539C105.23 54.4829 105.248 54.4129 105.285 54.3521C105.322 54.2913 105.375 54.2424 105.439 54.2111C105.502 54.1798 105.574 54.1676 105.644 54.1758L120.411 55.9343H120.5C121.364 56.2668 141.624 64.165 145.464 68.1622C146.94 69.6399 146.867 73.4597 146.579 76.3855C145.685 85.296 141.314 98.3514 137.209 101.196C137.152 101.234 137.085 101.255 137.017 101.255ZM129.87 95.4847L137.009 100.435C140.901 97.4131 144.999 84.9192 145.87 76.3043C146.261 72.3958 145.936 69.6546 144.962 68.6646C141.307 64.8669 121.371 57.0499 120.3 56.6288L106.375 54.9738L115.929 68.7089C118.27 69.3074 133.584 73.2898 134.986 75.063C135.23 75.3807 136.168 77.8706 129.87 95.4847Z" fill="black"/>
<path d="M111.743 109.604L110.333 115.477L115.745 118.935L118.056 110.874L111.743 109.604Z" fill="#FBFBFB"/>
<path d="M115.745 119.298C115.675 119.299 115.606 119.281 115.545 119.246L110.133 115.818C110.069 115.775 110.02 115.714 109.992 115.643C109.964 115.571 109.96 115.493 109.978 115.419L111.389 109.545C111.398 109.498 111.417 109.454 111.444 109.415C111.471 109.376 111.505 109.343 111.545 109.318C111.585 109.292 111.63 109.275 111.676 109.267C111.723 109.259 111.771 109.261 111.817 109.271L118.13 110.542C118.181 110.55 118.229 110.57 118.271 110.599C118.313 110.629 118.348 110.667 118.373 110.712C118.399 110.756 118.416 110.805 118.422 110.856C118.429 110.907 118.425 110.959 118.41 111.008L116.099 119.061C116.085 119.117 116.058 119.168 116.019 119.211C115.981 119.254 115.932 119.286 115.878 119.305L115.745 119.298ZM110.754 115.308L115.531 118.352L117.591 111.155L112.024 110.032L110.754 115.308Z" fill="black"/>
<path d="M98.4976 59.2515C98.4976 59.2515 96.4967 68.6053 101.702 69.3958C111.065 70.8144 115.805 77.9664 115.856 82.8428C115.938 89.6328 110.105 110.579 110.105 110.579L119.703 114.155C119.703 114.155 130.299 86.7513 128.763 79.2373C127.227 71.7232 115.236 54.9957 115.236 54.9957L98.4976 59.2515Z" fill="black"/>
<path d="M119.703 114.525C119.659 114.532 119.614 114.532 119.57 114.525L109.971 110.949C109.886 110.915 109.816 110.852 109.775 110.77C109.734 110.688 109.725 110.593 109.75 110.505C109.809 110.298 115.568 89.5294 115.494 82.865C115.406 75.3584 107.18 70.6224 101.643 69.7801C101.099 69.7054 100.578 69.5167 100.112 69.2264C99.6462 68.9362 99.247 68.5508 98.9404 68.0955C96.9025 65.1401 98.0839 59.4436 98.1356 59.2294C98.1502 59.1617 98.1836 59.0994 98.2319 59.0498C98.2802 59.0001 98.3415 58.9651 98.4088 58.9486L115.147 54.6929C115.219 54.6742 115.295 54.6777 115.365 54.7027C115.434 54.7277 115.495 54.7732 115.539 54.8333C116.026 55.5204 127.589 71.7159 129.125 79.2152C130.66 86.7144 120.478 113.202 120.043 114.34C120.009 114.4 119.96 114.449 119.9 114.481C119.839 114.514 119.771 114.529 119.703 114.525ZM110.547 110.357L119.489 113.69C120.692 110.513 129.826 86.1825 128.401 79.3112C126.976 72.4399 116.454 57.3453 115.11 55.4169L98.8666 59.5545C98.6746 60.6184 97.951 65.2658 99.6049 67.6818C99.8542 68.0556 100.181 68.3712 100.563 68.6071C100.946 68.8429 101.374 68.9936 101.82 69.0486C111.707 70.5263 116.233 78.033 116.292 82.8577C116.292 89.2191 111.308 107.579 110.547 110.357Z" fill="black"/>
<path d="M103.4 17.721C98.5492 16.4132 99.8783 8.73659 100.831 5.10147C100.962 4.31781 101.343 3.59751 101.916 3.04748C102.212 2.79096 102.597 2.66243 102.988 2.69014C103.378 2.71785 103.742 2.89952 103.998 3.19525C103.888 2.17564 104.884 1.37769 105.844 0.978713C107.665 0.265559 109.687 0.265559 111.507 0.978713C112.763 1.48852 113.9 2.3308 115.199 2.57462C116.499 2.81844 118.197 2.1387 118.33 0.794002C118.929 1.41411 119.375 2.16625 119.632 2.99002C119.888 3.8138 119.948 4.68627 119.807 5.53739C119.489 7.39189 118.33 8.2194 117.097 9.38677C115.864 10.5541 115.554 12.3791 114.077 13.347C111.367 15.098 109.949 17.551 106.531 17.8983C105.485 18.0294 104.424 17.9694 103.4 17.721Z" fill="#FBFBFB"/>
<path d="M105.408 18.3268C104.701 18.3357 103.995 18.2512 103.311 18.0756C98.0461 16.6644 99.5671 8.47059 100.468 5.01279C100.621 4.1557 101.045 3.37065 101.679 2.77409C101.902 2.59813 102.158 2.46993 102.432 2.39747C102.707 2.32502 102.993 2.30986 103.274 2.35295C103.423 2.38055 103.57 2.42517 103.709 2.48594C103.899 2.06174 104.175 1.68172 104.519 1.37006C104.864 1.05841 105.269 0.821959 105.71 0.675772C107.609 -0.0660776 109.718 -0.0660776 111.617 0.675772C112.09 0.867872 112.547 1.1043 112.983 1.33334C113.696 1.74601 114.464 2.05452 115.265 2.24951C115.627 2.31541 115.999 2.30886 116.359 2.23024C116.719 2.15162 117.06 2.00248 117.362 1.79143C117.527 1.67696 117.666 1.529 117.77 1.35716C117.875 1.18532 117.942 0.993437 117.967 0.793987C117.975 0.724797 118.001 0.659146 118.045 0.604594C118.088 0.550042 118.146 0.508807 118.211 0.485643C118.277 0.462479 118.348 0.458328 118.415 0.473665C118.483 0.489002 118.545 0.523205 118.595 0.572334C119.239 1.23328 119.719 2.03599 119.997 2.91616C120.276 3.79632 120.344 4.72946 120.197 5.64081C119.894 7.42143 118.912 8.30066 117.775 9.33504L117.376 9.70446C116.875 10.2103 116.452 10.788 116.121 11.4186C115.679 12.2972 115.034 13.0572 114.238 13.6351C113.438 14.178 112.675 14.7754 111.957 15.4231C110.421 16.7457 109.003 17.9943 106.53 18.2455C106.157 18.2929 105.783 18.32 105.408 18.3268ZM102.956 3.05486C102.663 3.05375 102.377 3.14987 102.144 3.32823C101.639 3.83716 101.303 4.49016 101.184 5.19751C100.342 8.44104 98.8731 16.1176 103.495 17.3589C104.474 17.5953 105.486 17.6554 106.486 17.5362C108.701 17.3072 109.993 16.1841 111.506 14.8838C112.248 14.2117 113.038 13.5943 113.869 13.0367C114.58 12.5168 115.157 11.8357 115.553 11.0492C115.916 10.3537 116.384 9.71828 116.941 9.16511L117.347 8.79568C118.425 7.82041 119.281 7.05201 119.562 5.52999C119.662 4.83624 119.62 4.12942 119.438 3.45245C119.257 2.77549 118.94 2.1425 118.506 1.59194C118.343 1.91052 118.108 2.18638 117.819 2.39728C117.435 2.66821 117.001 2.85999 116.542 2.96146C116.083 3.06294 115.609 3.07208 115.146 2.98836C114.279 2.79602 113.445 2.47475 112.673 2.03525C112.252 1.82098 111.809 1.59194 111.373 1.41462C109.639 0.733021 107.711 0.733021 105.976 1.41462C105.112 1.75449 104.278 2.44161 104.366 3.22479C104.376 3.30804 104.357 3.39216 104.313 3.46332C104.269 3.53448 104.202 3.58845 104.123 3.61638C104.043 3.64267 103.957 3.64169 103.878 3.61359C103.799 3.58549 103.732 3.53187 103.687 3.46122C103.628 3.37154 103.549 3.29597 103.457 3.23982C103.365 3.18366 103.262 3.14827 103.156 3.13613C103.093 3.10122 103.026 3.07394 102.956 3.05486Z" fill="black"/>
<path d="M115.361 13.8567C115.361 13.8567 116.794 17.4696 116.218 18.0386C115.642 18.6075 114.298 17.8612 114.298 17.8612" fill="#FBFBFB"/>
<path d="M115.611 18.6C115.093 18.5652 114.589 18.4164 114.135 18.1641C114.092 18.1408 114.054 18.1094 114.024 18.0715C113.993 18.0337 113.971 17.9902 113.957 17.9435C113.943 17.8969 113.939 17.848 113.944 17.7996C113.949 17.7513 113.964 17.7044 113.987 17.6617C114.01 17.619 114.042 17.5813 114.08 17.5508C114.117 17.5203 114.161 17.4975 114.208 17.4838C114.254 17.47 114.303 17.4656 114.351 17.4708C114.4 17.476 114.446 17.4906 114.489 17.5139C114.94 17.7651 115.722 18.009 115.966 17.7504C116.21 17.4918 115.707 15.689 115.028 13.9675C115.009 13.9225 114.999 13.8741 115 13.8252C115 13.7764 115.01 13.7281 115.029 13.6832C115.048 13.6383 115.077 13.5978 115.112 13.5642C115.147 13.5305 115.189 13.5043 115.235 13.4872C115.28 13.4692 115.328 13.4603 115.377 13.461C115.425 13.4616 115.473 13.4719 115.518 13.4911C115.562 13.5103 115.603 13.5381 115.636 13.573C115.67 13.6078 115.697 13.649 115.715 13.6941C116.276 15.1275 117.132 17.6322 116.453 18.275C116.227 18.4905 115.924 18.6074 115.611 18.6Z" fill="black"/>
<path d="M115.796 9.54181C116.904 10.9161 116.032 13.1326 115.7 14.6325C115.242 16.7382 114.733 18.8365 114.179 20.9126C113.825 22.2352 110.362 21.5333 109.83 21.0087L109.225 25.4935C109.225 25.4935 107.896 27.7691 105.378 25.8851C102.86 24.001 102.587 22.08 102.587 22.08L104.064 16.0363C104.064 16.0363 106.353 16.5313 108.272 14.0931C110.192 11.6549 111.026 7.44348 111.026 7.44348C111.026 7.44348 114.718 8.2045 115.796 9.54181Z" fill="#FBFBFB"/>
<path d="M107.276 27.0006C106.499 26.9652 105.756 26.6773 105.157 26.1805C102.551 24.23 102.204 22.2203 102.204 22.1316C102.193 22.0855 102.193 22.0374 102.204 21.9913L103.739 15.9401C103.762 15.8472 103.821 15.767 103.902 15.7172C103.984 15.6673 104.082 15.6519 104.175 15.6741C104.256 15.6741 106.265 16.0805 108.015 13.864C109.86 11.5218 110.68 7.42123 110.695 7.38429C110.703 7.3362 110.72 7.2903 110.747 7.24956C110.774 7.20883 110.809 7.17418 110.85 7.14786C110.89 7.12163 110.934 7.10357 110.981 7.09469C111.028 7.08581 111.076 7.08631 111.123 7.09614C111.278 7.09614 114.933 7.87931 116.085 9.31267C117.119 10.5983 116.646 12.438 116.262 13.9157C116.188 14.1964 116.122 14.4698 116.063 14.721C115.605 16.8267 115.088 18.9398 114.534 21.016C114.463 21.254 114.327 21.467 114.14 21.6305C113.953 21.7939 113.724 21.9011 113.478 21.9395C112.352 22.1368 111.192 22.0219 110.126 21.6071L109.587 25.5525C109.58 25.6014 109.565 25.6489 109.543 25.6929C109.142 26.3325 108.505 26.7889 107.771 26.9637C107.607 26.991 107.442 27.0033 107.276 27.0006ZM103.001 22.0947C103.451 23.5287 104.382 24.7632 105.637 25.5894C105.91 25.8326 106.232 26.0155 106.58 26.1263C106.929 26.237 107.297 26.2731 107.66 26.2322C108.165 26.1001 108.607 25.794 108.908 25.3678L109.506 20.9347C109.516 20.867 109.545 20.8035 109.59 20.7513C109.634 20.6991 109.692 20.6603 109.757 20.6392C109.822 20.6168 109.892 20.6132 109.958 20.6289C110.025 20.6446 110.086 20.6789 110.134 20.7278C111.121 21.2158 112.238 21.3788 113.323 21.1933C113.626 21.112 113.811 20.979 113.862 20.8017C114.409 18.733 114.918 16.6272 115.383 14.5289C115.435 14.2703 115.509 13.997 115.583 13.7014C115.922 12.3863 116.321 10.746 115.546 9.7486C114.807 8.83982 112.541 8.15269 111.374 7.87193C111.123 8.97281 110.274 12.2163 108.627 14.2999C108.157 14.9768 107.525 15.525 106.789 15.8942C106.052 16.2633 105.235 16.4417 104.411 16.413L103.001 22.0947Z" fill="black"/>
<path d="M114.461 19.3318C114.227 19.4272 113.976 19.4709 113.724 19.4601C113.472 19.4492 113.226 19.384 113.001 19.269C112.777 19.1539 112.58 18.9917 112.424 18.7934C112.268 18.5951 112.157 18.3654 112.098 18.1201" fill="#FBFBFB"/>
<path d="M113.737 19.8117C113.399 19.8166 113.065 19.7406 112.763 19.5901C112.505 19.447 112.28 19.2503 112.105 19.0133C111.929 18.7763 111.806 18.5043 111.744 18.2158C111.719 18.1218 111.732 18.0217 111.78 17.9373C111.829 17.8529 111.908 17.791 112.002 17.7651C112.097 17.74 112.198 17.7529 112.284 17.8012C112.369 17.8495 112.432 17.9294 112.46 18.0237C112.495 18.2126 112.571 18.3917 112.682 18.5486C112.792 18.7055 112.936 18.8364 113.102 18.9325C113.494 19.0977 113.932 19.116 114.335 18.9842C114.428 18.9533 114.53 18.9599 114.618 19.0027C114.706 19.0455 114.774 19.121 114.808 19.2132C114.824 19.2583 114.832 19.3062 114.829 19.3541C114.827 19.4021 114.815 19.449 114.794 19.4923C114.774 19.5356 114.745 19.5744 114.709 19.6064C114.673 19.6384 114.632 19.663 114.586 19.6787C114.312 19.7657 114.025 19.8106 113.737 19.8117Z" fill="black"/>
<path d="M111.034 14.3297C111.088 13.7917 110.991 13.2492 110.753 12.7634C110.618 12.3639 110.427 11.9857 110.185 11.6403C110.062 11.4704 109.902 11.3299 109.719 11.229C109.535 11.128 109.331 11.0692 109.121 11.0566C108.937 11.0641 108.755 11.1108 108.59 11.1936C108.425 11.2764 108.278 11.3934 108.162 11.5369C107.926 11.8253 107.759 12.164 107.674 12.5269C107.477 13.3105 107.489 14.1322 107.708 14.9099C107.926 15.6877 108.345 16.3946 108.922 16.96L108.826 16.8049" fill="#FBFBFB"/>
<path d="M108.907 17.3516C108.811 17.3507 108.718 17.3138 108.648 17.2482C108.025 16.6317 107.573 15.8631 107.337 15.0182C107.101 14.1733 107.09 13.2815 107.304 12.4309C107.403 12.014 107.595 11.625 107.866 11.2931C108.018 11.1098 108.207 10.9609 108.421 10.8565C108.634 10.752 108.868 10.6943 109.106 10.6873C109.372 10.7002 109.632 10.7735 109.866 10.9014C110.1 11.0294 110.302 11.2088 110.457 11.4261C110.723 11.7984 110.93 12.2096 111.07 12.6452C111.336 13.196 111.441 13.8106 111.373 14.4184C111.354 14.5164 111.297 14.603 111.215 14.6591C111.133 14.7152 111.031 14.7363 110.933 14.7177C110.836 14.699 110.749 14.6423 110.693 14.5598C110.637 14.4774 110.616 14.376 110.634 14.278C110.673 13.8042 110.581 13.3288 110.369 12.9038C110.248 12.5413 110.077 12.1979 109.859 11.8842C109.771 11.7574 109.656 11.6518 109.521 11.5751C109.387 11.4985 109.238 11.4526 109.084 11.4409C108.952 11.4488 108.823 11.4845 108.706 11.5456C108.589 11.6067 108.486 11.6919 108.405 11.7955C108.204 12.0401 108.065 12.3288 107.998 12.6378C107.827 13.3068 107.821 14.0074 107.98 14.6794C108.14 15.3513 108.46 15.9743 108.914 16.4946C108.994 16.5222 109.062 16.5771 109.106 16.6497L109.195 16.8049C109.228 16.8605 109.247 16.9241 109.248 16.9893C109.25 17.0544 109.234 17.1187 109.202 17.1757C109.171 17.2327 109.125 17.2804 109.069 17.3139C109.013 17.3474 108.95 17.3655 108.885 17.3664L108.907 17.3516Z" fill="black"/>
<path d="M109.831 21.0088C108.872 20.4601 108.09 19.6471 107.579 18.6666C107.579 18.6666 107.025 21.9028 109.58 23.41L109.831 21.0088Z" fill="black"/>
<path d="M109.579 23.7796C109.513 23.7818 109.449 23.7638 109.394 23.7279C106.647 22.1098 107.179 18.7481 107.216 18.6077C107.231 18.5284 107.27 18.4557 107.328 18.4001C107.387 18.3444 107.461 18.3084 107.541 18.2974C107.621 18.2883 107.702 18.3058 107.771 18.3472C107.841 18.3885 107.895 18.4515 107.925 18.5264C108.401 19.4306 109.126 20.1792 110.014 20.6839C110.076 20.7202 110.127 20.7737 110.16 20.8378C110.192 20.902 110.206 20.9742 110.199 21.0459L109.948 23.4619C109.941 23.5245 109.918 23.5844 109.882 23.6361C109.846 23.6877 109.798 23.7294 109.741 23.7575C109.689 23.776 109.634 23.7836 109.579 23.7796ZM107.91 19.8859C107.938 20.4259 108.073 20.9549 108.308 21.442C108.542 21.9291 108.871 22.3646 109.276 22.7231L109.438 21.1715C108.871 20.817 108.357 20.3842 107.91 19.8859Z" fill="black"/>
<path d="M114.759 12.2417C114.914 11.8469 114.914 11.4771 114.759 11.4158C114.603 11.3545 114.351 11.6248 114.196 12.0197C114.04 12.4145 114.04 12.7843 114.196 12.8456C114.351 12.907 114.604 12.6366 114.759 12.2417Z" fill="black"/>
<path d="M100.475 20.1813C100.475 20.1813 108.228 21.5039 110.813 26.0921C113.397 30.6803 113.995 47.0088 115.398 48.2575C116.801 49.5061 120.426 55.971 120.345 56.2665C120.264 56.5621 97.116 60.9287 97.116 60.9287C97.116 60.9287 96.4367 55.6311 94.7975 48.6638C93.1584 41.6965 93.9262 19.8562 100.475 20.1813Z" fill="#FBFBFB"/>
<path d="M97.1533 61.3056C97.0768 61.3062 97.0019 61.283 96.9392 61.2392C96.8985 61.2098 96.8644 61.1723 96.839 61.1291C96.8135 61.0858 96.7974 61.0378 96.7915 60.9879C96.7915 60.9362 96.0531 55.6165 94.473 48.7527C93.1735 43.2187 93.2326 26.4469 97.5077 21.3119C97.8498 20.8423 98.3006 20.4625 98.8213 20.2052C99.3421 19.9479 99.9174 19.8206 100.498 19.8342H100.542C100.867 19.886 108.494 21.2307 111.167 25.9076C112.644 28.5378 113.486 34.6924 114.195 40.1229C114.652 43.6029 115.169 47.5114 115.671 48.0064C116.882 49.0999 120.899 55.7569 120.729 56.3849C120.648 56.6805 120.589 56.9021 97.2124 61.3204L97.1533 61.3056ZM100.328 20.5509C99.8894 20.5738 99.4616 20.697 99.0777 20.9108C98.6938 21.1247 98.3638 21.4237 98.1132 21.7848C94.2663 26.4026 93.8233 42.5907 95.2262 48.5827C96.6069 54.427 97.3157 59.1556 97.5077 60.5077C105.836 58.9266 117.872 56.5918 119.954 56.0746C119.356 54.7669 116.439 49.6762 115.221 48.568C114.542 47.9473 114.143 45.1397 113.501 40.2338C112.829 35.1357 112.024 28.7891 110.547 26.2844C108.118 22.036 100.904 20.6618 100.461 20.5805L100.328 20.5509Z" fill="black"/>
<path d="M110.577 25.6416L109.964 27.8729L110.865 28.2054L111.108 43.9428L114.387 46.8317L115.834 41.9331L111.573 28.2645L112.208 27.5183L110.577 25.6416Z" fill="black"/>
<path d="M106.035 27.4958C106.19 27.7471 113.286 42.8934 113.286 42.8934L131.848 36.6058L135.54 42.0733C135.54 42.0733 119.4 51.4123 113.389 52.6166C107.379 53.8209 96.6728 31.5891 97.0937 29.3725" fill="#FBFBFB"/>
<path d="M112.938 53.0156C111.639 53.0156 110.118 52.1511 108.405 50.437C103 45.0139 96.3549 31.2787 96.761 29.2691C96.7823 29.174 96.8396 29.0909 96.9208 29.0372C97.002 28.9834 97.1009 28.9633 97.1967 28.9809C97.2442 28.9906 97.2893 29.0096 97.3295 29.0367C97.3697 29.0639 97.4041 29.0987 97.4309 29.1392C97.4576 29.1797 97.4761 29.225 97.4854 29.2727C97.4946 29.3203 97.4943 29.3693 97.4846 29.4168C97.1671 30.9832 103.391 44.3711 108.929 49.9346C110.701 51.7078 112.185 52.4836 113.359 52.2546C118.727 51.1758 132.653 43.2998 135.015 41.9107L131.715 37.0122L113.426 43.2037C113.339 43.2327 113.245 43.2292 113.161 43.1938C113.077 43.1585 113.008 43.0937 112.968 43.0116C111.026 38.8593 105.939 28.013 105.739 27.651C105.693 27.5662 105.681 27.4667 105.706 27.3732C105.73 27.2797 105.79 27.1992 105.872 27.1486C105.955 27.0988 106.054 27.0833 106.147 27.1054C106.241 27.1275 106.323 27.1854 106.374 27.2668C106.522 27.5106 112.052 39.3026 113.5 42.3984L131.752 36.2216C131.829 36.1969 131.911 36.198 131.987 36.2247C132.063 36.2514 132.128 36.3022 132.173 36.3694L135.865 41.8294C135.893 41.8712 135.912 41.9184 135.921 41.9681C135.93 42.0177 135.928 42.0686 135.916 42.1176C135.906 42.1668 135.886 42.2133 135.857 42.2541C135.827 42.2948 135.79 42.3289 135.746 42.354C135.082 42.7382 119.502 51.7374 113.522 52.9417C113.331 52.9876 113.135 53.0124 112.938 53.0156Z" fill="black"/>
<path d="M113.787 52.7276C109.793 52.7276 105.902 49.0851 102.203 41.8813C102.18 41.8383 102.166 41.7912 102.162 41.7427C102.158 41.6943 102.164 41.6455 102.179 41.5993C102.194 41.5531 102.218 41.5104 102.25 41.4738C102.282 41.4372 102.321 41.4075 102.365 41.3863C102.451 41.3419 102.552 41.3333 102.644 41.3624C102.737 41.3914 102.814 41.4557 102.86 41.5415C106.588 48.8043 110.435 52.3138 114.304 51.9666C118.173 51.6193 126.591 46.5508 126.672 46.4991C126.713 46.4688 126.76 46.4475 126.81 46.4363C126.86 46.4252 126.911 46.4245 126.961 46.4344C127.012 46.4443 127.059 46.4644 127.101 46.4937C127.143 46.5229 127.179 46.5605 127.205 46.6041C127.232 46.6477 127.249 46.6964 127.256 46.7471C127.263 46.7977 127.259 46.8493 127.245 46.8985C127.231 46.9476 127.207 46.9933 127.174 47.0327C127.142 47.0721 127.101 47.1042 127.056 47.1271C126.709 47.3414 118.476 52.3434 114.371 52.7054L113.787 52.7276Z" fill="black"/>
<path d="M110.333 115.478C110.333 115.478 108.287 120.576 108.428 121.063C108.568 121.551 115.863 133.55 117.089 130.262C118.314 126.974 115.745 118.928 115.745 118.928L110.333 115.478Z" fill="black"/>
<path d="M116.402 131.2H116.358C113.877 131.089 108.236 121.654 108.074 121.159C107.911 120.664 109.041 117.716 109.993 115.337C110.015 115.288 110.047 115.244 110.086 115.207C110.126 115.17 110.172 115.142 110.222 115.123C110.274 115.108 110.329 115.104 110.382 115.112C110.435 115.12 110.487 115.138 110.532 115.167L115.944 118.625C116.017 118.669 116.072 118.737 116.1 118.817C116.203 119.15 118.691 127.018 117.436 130.387C117.377 130.618 117.244 130.823 117.057 130.97C116.87 131.117 116.64 131.198 116.402 131.2ZM110.495 116.024C109.799 117.639 109.224 119.304 108.775 121.004C109.048 121.684 114.519 130.461 116.395 130.461C116.469 130.461 116.609 130.461 116.735 130.129C117.82 127.218 115.738 120.199 115.42 119.172L110.495 116.024Z" fill="black"/>
<path d="M125.233 71.1839C125.169 71.185 125.106 71.1692 125.05 71.1381C124.994 71.1069 124.948 71.0616 124.915 71.0066L118.595 60.5667C118.56 60.4845 118.555 60.3922 118.582 60.307C118.61 60.2218 118.667 60.1494 118.744 60.1033C118.821 60.0572 118.912 60.0406 119 60.0566C119.088 60.0725 119.167 60.1199 119.223 60.1899L125.543 70.6224C125.569 70.6638 125.587 70.7101 125.595 70.7585C125.603 70.807 125.601 70.8566 125.59 70.9043C125.578 70.952 125.557 70.9968 125.527 71.0359C125.497 71.0751 125.46 71.1079 125.417 71.1322C125.362 71.1664 125.298 71.1844 125.233 71.1839Z" fill="#FBFBFB"/>
</svg>
