<svg width="196" height="152" viewBox="0 0 196 152" fill="none" xmlns="http://www.w3.org/2000/svg">
<path d="M89.0874 151.106C136.555 151.106 175.034 128.879 175.034 101.46C175.034 74.0406 136.555 51.813 89.0874 51.813C41.6202 51.813 3.1405 74.0406 3.1405 101.46C3.1405 128.879 41.6202 151.106 89.0874 151.106Z" fill="#231F20"/>
<path d="M89.0875 151.412C41.5304 151.412 2.83521 129.004 2.83521 101.432C2.83521 73.8598 41.5304 51.4521 89.0875 51.4521C136.645 51.4521 175.347 73.8598 175.347 101.432C175.347 129.004 136.651 151.412 89.0875 151.412ZM89.0875 52.1463C41.8982 52.1463 3.45283 74.2763 3.45283 101.481C3.45283 128.685 41.8704 150.815 89.0875 150.815C136.304 150.815 174.729 128.685 174.729 101.481C174.729 74.2763 136.311 52.1116 89.0875 52.1116V52.1463Z" fill="#231F20"/>
<path d="M89.0874 149.704C136.555 149.704 175.034 127.476 175.034 100.057C175.034 72.6382 136.555 50.4106 89.0874 50.4106C41.6202 50.4106 3.1405 72.6382 3.1405 100.057C3.1405 127.476 41.6202 149.704 89.0874 149.704Z" fill="white"/>
<path d="M89.0874 150.086C41.4887 150.086 2.75879 127.643 2.75879 100.057C2.75879 72.4712 41.4887 50.0288 89.0874 50.0288C136.686 50.0288 175.423 72.4712 175.423 100.057C175.423 127.643 136.693 150.086 89.0874 150.086ZM89.0874 50.8202C41.8981 50.8202 3.52908 72.9224 3.52908 100.106C3.52908 127.289 41.912 149.392 89.0874 149.392C136.263 149.392 174.653 127.289 174.653 100.106C174.653 72.9224 136.27 50.7993 89.0874 50.7993V50.8202Z" fill="#231F20"/>
<path d="M89.0874 143.422C47.8245 143.422 14.2577 123.985 14.2577 100.057C14.2577 76.1294 47.8245 56.6997 89.0874 56.6997C130.35 56.6997 163.924 76.1363 163.924 100.057C163.924 123.978 130.371 143.422 89.0874 143.422ZM89.0874 57.3453C48.1437 57.3453 14.8892 76.5181 14.8892 100.071C14.8892 123.624 48.1993 142.797 89.0874 142.797C129.975 142.797 163.292 123.61 163.292 100.057C163.292 76.5042 130.01 57.3314 89.0874 57.3314V57.3453Z" fill="#D1D3D4"/>
<path d="M48.539 83.3488C48.539 83.3488 35.9575 85.0912 25.2428 79.038C14.528 72.9849 12.3212 65.0576 14.0631 60.2956C15.8049 55.5336 24.5488 52.1391 32.8 56.3319C41.0512 60.5247 33.6327 47.9464 23.5009 48.5295C13.3691 49.1126 2.88338 53.0693 3.37609 59.4765C3.8688 65.8836 8.23381 76.7195 16.5127 81.9605C24.7917 87.2014 36.8943 91.0471 43.5286 90.2349C50.1629 89.4227 54.5973 90.2349 53.0775 86.9723C52.0436 84.9321 50.3235 83.3221 48.2198 82.4256" fill="#231F20"/>
<path d="M41.6553 90.6724C34.8614 90.6724 24.0634 87.1391 16.3327 82.2452C7.42917 76.5947 3.43891 65.3007 3.01559 59.5044C2.96706 58.6408 3.09596 57.7764 3.39435 56.9645C3.69273 56.1527 4.15428 55.4106 4.75049 54.7841C7.84555 51.2577 15.1599 48.6685 23.4874 48.1965C29.9135 47.8285 35.2847 52.5766 36.4575 55.3394C36.9086 56.4015 36.6657 56.9429 36.3812 57.2137C35.7844 57.769 34.5352 57.5746 32.6754 56.6306C30.6791 55.5724 28.4818 54.9481 26.2275 54.7986C23.9732 54.6491 21.7128 54.9777 19.5943 55.7629C16.985 56.7902 15.0905 58.484 14.3827 60.4068C12.5575 65.4048 15.264 73.0198 25.4166 78.7605C35.9093 84.6887 48.3728 83.0435 48.4977 83.0296C48.5433 83.0233 48.5897 83.0259 48.6342 83.0375C48.6787 83.049 48.7206 83.0692 48.7573 83.0969C48.794 83.1247 48.8249 83.1593 48.8483 83.199C48.8716 83.2387 48.8869 83.2826 48.8933 83.3281C48.8996 83.3737 48.897 83.4201 48.8854 83.4647C48.8739 83.5092 48.8537 83.5511 48.826 83.5878C48.7983 83.6245 48.7636 83.6555 48.7239 83.6788C48.6843 83.7021 48.6404 83.7174 48.5949 83.7238C48.463 83.7238 35.7774 85.4176 25.0905 79.3714C14.5908 73.4363 11.8358 65.4881 13.7581 60.2124C14.5284 58.13 16.5339 56.2765 19.3098 55.1798C21.5161 54.3598 23.8706 54.0151 26.2193 54.1682C28.568 54.3213 30.8579 54.9688 32.9391 56.0683C34.7018 56.9638 35.6178 57.0123 35.8885 56.7624C36.1591 56.5125 36.0342 56.1724 35.8052 55.6379C34.7157 53.1042 29.5595 48.5574 23.4943 48.8976C15.375 49.3627 8.22723 51.8547 5.22239 55.2561C4.68738 55.8185 4.27242 56.484 4.00279 57.2119C3.73316 57.9399 3.6145 58.7152 3.65404 59.4905C4.09817 65.5714 8.42848 76.4906 16.6658 81.7038C25.0488 87.0211 37.0751 90.7279 43.4596 89.9227C45.1251 89.7214 46.631 89.6173 47.9634 89.527C50.4894 89.3535 52.481 89.2216 52.9182 88.4858C53.0917 88.1942 53.0362 87.75 52.7517 87.0975C51.7391 85.1345 50.0722 83.5876 48.0397 82.7242C47.958 82.6917 47.8925 82.6282 47.8574 82.5476C47.8223 82.467 47.8205 82.3758 47.8523 82.2938C47.8677 82.2528 47.8911 82.2151 47.9211 82.1831C47.9511 82.1511 47.9871 82.1253 48.0271 82.1072C48.0671 82.0892 48.1102 82.0792 48.1541 82.0779C48.1979 82.0765 48.2416 82.0839 48.2826 82.0995C50.4822 83.0174 52.2813 84.6916 53.3554 86.8198C53.54 87.1112 53.6493 87.4439 53.6735 87.788C53.6977 88.1321 53.6361 88.4768 53.4942 88.7912C52.8766 89.8325 50.9405 89.9574 48.0119 90.1795C46.6865 90.2698 45.1875 90.367 43.5428 90.5683C42.9165 90.6425 42.286 90.6773 41.6553 90.6724Z" fill="#231F20"/>
<path d="M40.0384 66.1194C40.0384 66.1194 36.1938 55.8666 32.3493 50.0425C28.5047 44.2185 19.7747 40.8379 12.5506 43.087C5.32649 45.3361 -2.58465 56.6787 2.6825 68.3338C7.94966 79.9888 19.2196 88.4645 33.7788 90.547C46.7559 92.4143 53.9037 90.311 53.9037 90.311L51.8218 86.7014C51.8218 86.7014 43.4249 89.1865 29.2265 84.2579C15.4861 79.4821 11.6415 72.7209 11.4056 63.433C11.1696 54.145 20.5242 51.417 24.8892 51.7918C31.9954 52.368 36.0689 61.1075 38.6296 66.2374L40.0384 66.1194Z" fill="#FFC800"/>
<path d="M43.9939 91.6785C40.5494 91.6688 37.1101 91.4113 33.7025 90.908C19.4833 88.8255 7.76922 80.4955 2.37021 68.4795C1.22725 65.9723 0.639241 63.2476 0.646427 60.492C0.653614 57.7364 1.25582 55.0149 2.41185 52.5137C4.54925 47.7934 8.49093 43.9616 12.4604 42.7468C19.5457 40.5741 28.588 43.7672 32.5852 49.862C36.4089 55.6513 40.2674 65.8972 40.309 66.0013C40.3294 66.0448 40.34 66.0922 40.34 66.1402C40.34 66.1882 40.3294 66.2356 40.309 66.279C40.2828 66.3185 40.2479 66.3516 40.207 66.3756C40.1662 66.3997 40.1203 66.4141 40.0731 66.4178L38.6851 66.5358C38.6227 66.5409 38.5602 66.527 38.5058 66.4961C38.4513 66.4651 38.4074 66.4185 38.3798 66.3623L38.0814 65.7584C35.479 60.5313 31.5512 52.6386 24.8961 52.0903C22.5506 51.8959 17.9566 52.6803 14.8129 55.6166C13.7569 56.6143 12.9315 57.8308 12.3944 59.1809C11.8574 60.531 11.6218 61.9822 11.704 63.4329C11.8913 70.9993 14.1606 78.7045 29.3167 84.001C43.1959 88.8602 51.6344 86.4653 51.7177 86.4375C51.7855 86.4186 51.8576 86.4227 51.9229 86.4491C51.9882 86.4754 52.0429 86.5226 52.0785 86.5833L54.1604 90.193C54.1812 90.2351 54.1921 90.2814 54.1921 90.3283C54.1921 90.3753 54.1812 90.4216 54.1604 90.4637C54.1439 90.5078 54.117 90.5473 54.082 90.5787C54.0469 90.6101 54.0048 90.6326 53.9592 90.6442C53.9314 90.6581 50.42 91.6785 43.9939 91.6785ZM17.2071 42.7121C15.6606 42.7023 14.1214 42.9246 12.6408 43.3715C8.83792 44.5377 5.04196 48.2307 2.9809 52.7983C1.86387 55.2144 1.28127 57.8432 1.27288 60.5052C1.2645 63.1671 1.83053 65.7996 2.93232 68.2227C8.24805 80.0235 19.7817 88.2771 33.7927 90.2971C44.8961 91.8937 51.7663 90.5609 53.4248 90.1721L51.6483 87.1178C50.1702 87.4649 41.9329 89.0615 29.1015 84.6049C16.5686 80.2456 11.3431 74.1231 11.0586 63.4676C10.9689 61.9324 11.2163 60.3961 11.7834 58.9666C12.3504 57.5372 13.2234 56.2492 14.341 55.1932C17.2427 52.6267 21.0349 51.3008 24.9031 51.5002C31.9051 52.0764 35.9301 60.1565 38.5949 65.5085L38.8031 65.925L39.5803 65.8625C38.8378 63.9466 35.4166 55.3251 32.0717 50.2299C29.053 45.5859 22.9808 42.6913 17.2071 42.6913V42.7121Z" fill="#231F20"/>
<path d="M146.714 49.4874C146.714 53.2429 144.854 60.3442 141.53 68.6672C137.443 78.8992 131.121 90.9777 123.334 101.008C114.025 107.797 102.801 111.455 91.2803 111.455C79.7595 111.455 68.536 107.797 59.2263 101.008C51.4262 90.9777 45.1181 78.8992 41.0307 68.6672C37.6997 60.3372 35.8398 53.2429 35.8398 49.4874C35.8398 35.7569 60.6628 24.6294 91.2803 24.6294C121.898 24.6294 146.714 35.7569 146.714 49.4874Z" fill="#231F20"/>
<path d="M91.2802 111.768C79.7163 111.636 68.4691 107.971 59.0458 101.265L58.9833 101.203C49.5247 89.0409 43.4941 75.6712 40.7391 68.7851C37.4845 60.6148 35.5344 53.4024 35.5344 49.4873C35.5344 35.604 60.517 24.3169 91.2802 24.3169C122.043 24.3169 147.026 35.611 147.026 49.4873C147.026 53.4024 145.076 60.594 141.814 68.7851C139.039 75.6712 133.029 89.0409 123.577 101.203L123.515 101.265C114.091 107.97 102.844 111.635 91.2802 111.768ZM59.4413 100.786C68.6934 107.517 79.8397 111.143 91.2802 111.143C102.721 111.143 113.867 107.517 123.119 100.786C132.508 88.6938 138.504 75.4075 141.245 68.556C144.479 60.4551 146.408 53.333 146.408 49.4873C146.408 35.9511 121.676 24.9347 91.2802 24.9347C60.8848 24.9347 36.1521 35.9511 36.1521 49.4873C36.1521 53.333 38.0813 60.4551 41.3151 68.556C44.0563 75.4075 50.0451 88.6938 59.4413 100.786Z" fill="#231F20"/>
<path d="M159.33 31.0506C159.33 35.6668 157.047 44.3786 152.967 54.5967C147.942 67.1541 140.205 81.9884 130.628 94.3029C119.892 101.855 106.201 107.124 91.2804 107.124C76.3603 107.124 62.6615 101.855 51.9329 94.3029C42.3562 81.9884 34.5839 67.1541 29.5943 54.5967C25.5138 44.3786 23.2307 35.6668 23.2307 31.0506C23.2307 14.1963 53.6955 0.507324 91.2804 0.507324C128.865 0.507324 159.33 14.1963 159.33 31.0506Z" fill="#FFC800"/>
<path d="M91.2801 107.436C77.5952 107.436 63.5564 102.862 51.7244 94.5527C51.6965 94.5379 51.6727 94.5164 51.655 94.4903C40.0589 79.5727 32.6544 63.1626 29.2817 54.7146C25.2776 44.6978 22.8904 35.8542 22.8904 31.0505C22.8904 14.0574 53.5565 0.222656 91.2524 0.222656C128.948 0.222656 159.614 14.0574 159.614 31.0505C159.614 35.8542 157.227 44.6978 153.223 54.7146C149.843 63.1626 142.446 79.5727 130.843 94.4903C130.827 94.516 130.806 94.5374 130.78 94.5527C119.004 102.862 104.965 107.436 91.2801 107.436ZM52.1477 94.0738C63.8409 102.286 77.734 106.812 91.2801 106.812C104.826 106.812 118.719 102.286 130.413 94.0738C141.946 79.2256 149.309 62.8988 152.675 54.5064C156.651 44.559 159.018 35.7986 159.018 31.0714C159.018 14.4114 128.629 0.86823 91.2801 0.86823C53.9312 0.86823 23.5358 14.4183 23.5358 31.0714C23.5358 35.7986 25.9091 44.559 29.8855 54.5064C33.2165 62.8988 40.6072 79.2186 52.1477 94.0738Z" fill="#231F20"/>
<path d="M91.2804 61.5657C128.863 61.5657 159.33 47.9034 159.33 31.0502C159.33 14.1969 128.863 0.534668 91.2804 0.534668C53.6976 0.534668 23.2307 14.1969 23.2307 31.0502C23.2307 47.9034 53.6976 61.5657 91.2804 61.5657Z" fill="white"/>
<path d="M91.2804 61.9338C53.5498 61.9338 22.856 48.0505 22.856 31.0504C22.856 14.0503 53.5498 0.166992 91.2804 0.166992C129.011 0.166992 159.705 14.0503 159.705 31.0504C159.705 48.0505 128.983 61.9338 91.2804 61.9338ZM91.2804 0.909751C53.9592 0.909751 23.5985 14.4321 23.5985 31.0504C23.5985 47.6687 53.9592 61.191 91.2804 61.191C128.602 61.191 158.962 47.6687 158.962 31.0504C158.962 14.4321 128.602 0.909751 91.2804 0.909751Z" fill="#231F20"/>
<path d="M153.647 31.0505C153.592 33.9026 152.618 36.6609 150.871 38.9154C142.987 49.7096 119.303 57.5537 91.2944 57.5537C63.2862 57.5537 39.5874 49.7096 31.7041 38.9223C29.9566 36.6679 28.9831 33.9096 28.9282 31.0574C28.9282 16.4175 56.8532 4.5542 91.2944 4.5542C125.736 4.5542 153.647 16.4105 153.647 31.0505Z" fill="#D1D3D4"/>
<path d="M91.2804 57.8593C63.6885 57.8593 39.6498 50.3206 31.4541 39.1168C29.663 36.8117 28.6628 33.9903 28.6019 31.0715C28.6019 16.2857 56.7212 4.25586 91.2804 4.25586C125.84 4.25586 153.966 16.2649 153.966 31.0506C153.905 33.9695 152.905 36.7909 151.114 39.096C142.911 50.3207 118.865 57.8593 91.2804 57.8593ZM91.2804 4.85284C57.0612 4.85284 29.2196 16.6051 29.2196 31.0506C29.2809 33.8396 30.2397 36.5345 31.9538 38.735C40.0384 49.8417 63.8759 57.2415 91.2804 57.2415C118.685 57.2415 142.522 49.807 150.607 38.735C152.321 36.5345 153.28 33.8396 153.341 31.0506C153.341 16.6051 125.513 4.85284 91.2804 4.85284Z" fill="#231F20"/>
<path d="M150.857 38.9221C142.974 49.7164 119.289 57.5604 91.2807 57.5604C63.2725 57.5604 39.5876 49.7094 31.7042 38.9221C39.5876 28.1209 63.2794 20.2769 91.2807 20.2769C119.282 20.2769 142.974 28.114 150.857 38.9221Z" fill="#231F20"/>
<path d="M91.2805 57.8865C63.6817 57.8865 39.636 50.3409 31.4334 39.144C31.3927 39.0874 31.3708 39.0194 31.3708 38.9497C31.3708 38.8799 31.3927 38.8119 31.4334 38.7553C39.6291 27.5168 63.6817 19.9712 91.2805 19.9712C118.879 19.9712 142.925 27.5168 151.128 38.7553C151.168 38.8119 151.19 38.8799 151.19 38.9497C151.19 39.0194 151.168 39.0874 151.128 39.144C142.925 50.3409 118.879 57.8865 91.2805 57.8865ZM32.1204 38.9219C40.3369 49.8758 64.0426 57.227 91.2805 57.227C118.518 57.227 142.224 49.8689 150.441 38.9219C142.224 27.961 118.518 20.6098 91.2805 20.6098C64.0426 20.6098 40.3369 27.9541 32.1204 38.9219Z" fill="#231F20"/>
<path d="M193.841 54.2769C193.147 53.6001 192.303 53.0979 191.378 52.8118C190.452 52.5258 189.472 52.464 188.518 52.6317C186.552 52.9978 184.693 53.7995 183.077 54.978C178.185 58.2059 174.438 62.5305 170.586 66.8274C166.735 71.1243 162.952 75.4628 159.198 79.8014C151.287 88.9157 148.511 96.1559 143.522 99.8002C138.532 103.445 132.918 101.737 122.328 106.666C111.738 111.594 105.014 115.926 108.699 124.089C112.807 133.183 124.903 132.579 133.619 129.087C142.474 125.54 147.769 119.292 148.504 114.447C149.24 109.602 146.783 107.304 148.615 102.855C149.309 101.189 154.049 91.623 171.655 77.816L173.431 76.4277C178.289 72.6098 183.147 68.7919 187.893 64.8629C190.614 62.6347 197.567 58.6154 193.986 54.4505L193.841 54.2769Z" fill="white"/>
<path d="M122.106 131.808C116.159 131.808 110.794 129.67 108.345 124.242C104.382 115.461 112.252 110.935 122.148 106.333C126.273 104.429 130.635 103.088 135.118 102.348C138.345 101.73 140.898 101.237 143.279 99.5019C145.95 97.5513 147.991 94.5317 150.572 90.7069C153.104 86.8148 155.886 83.0908 158.9 79.5586L160.406 77.8301C163.626 74.1233 166.95 70.2915 170.288 66.5777L171.037 65.7447C174.583 61.7949 178.254 57.7132 182.834 54.6381C184.501 53.4344 186.414 52.6142 188.435 52.2363C189.447 52.0622 190.487 52.1313 191.468 52.4379C192.449 52.7444 193.343 53.2796 194.077 53.9994L194.208 54.1452C194.597 54.5594 194.893 55.0515 195.077 55.5888C195.262 56.1261 195.33 56.6964 195.277 57.262C194.979 59.9415 191.807 62.3086 189.483 64.0371C188.955 64.4327 188.469 64.7937 188.095 65.113C183.14 69.1739 178.213 73.0751 173.626 76.6847L171.849 78.0731C153.66 92.3451 149.358 101.918 148.948 102.959C147.956 105.361 148.254 107.068 148.615 109.054C149.019 110.832 149.101 112.668 148.858 114.475C147.873 120.959 140.329 126.755 133.744 129.393C130.05 130.921 126.102 131.74 122.106 131.808ZM189.51 52.9304C189.195 52.9307 188.879 52.9516 188.566 52.9929C186.658 53.3617 184.853 54.1435 183.279 55.2836C178.74 58.2824 175.27 62.1489 171.592 66.2445L170.843 67.0775C167.505 70.7843 164.181 74.6092 160.968 78.316L159.462 80.0445C156.465 83.5621 153.702 87.2723 151.19 91.1511C148.567 95.0315 146.492 98.0928 143.716 100.127C141.197 101.966 138.581 102.466 135.257 103.105C130.835 103.837 126.531 105.158 122.46 107.034C110.905 112.406 105.652 116.502 109.018 123.964C112.855 132.461 124.375 132.412 133.459 128.768C142.543 125.124 147.456 118.765 148.116 114.42C148.346 112.695 148.266 110.944 147.88 109.248C147.519 107.235 147.186 105.34 148.254 102.737C148.692 101.675 153.064 91.9425 171.405 77.5524L173.181 76.1641C177.762 72.5545 182.689 68.6602 187.637 64.6063C188.039 64.2731 188.539 63.9121 189.073 63.5026C191.287 61.8574 194.312 59.6013 194.576 57.2551C194.618 56.7901 194.559 56.3216 194.405 55.881C194.25 55.4404 194.004 55.038 193.681 54.7005L193.57 54.5756C193.04 54.0403 192.407 53.6184 191.709 53.3356C191.011 53.0528 190.263 52.9149 189.51 52.9304Z" fill="#231F20"/>
<path d="M144.521 107.644C144 107.151 121.481 125.908 109.705 122.784C109.705 122.784 108.379 126.678 118.886 128.594C129.393 130.51 139.08 124.256 143.057 120.313C147.033 116.37 148.171 111.073 144.521 107.644Z" fill="#D1D3D4"/>
<path d="M77.9983 107.471C76.2217 112.184 70.9754 116.953 63.7721 115.731C50.2607 113.427 48.9907 101.848 50.7742 97.1695C52.5577 92.4909 59.1642 93.2128 66.6867 96.0589C74.2092 98.9049 79.7817 102.785 77.9983 107.471Z" fill="#D1D3D4"/>
<path d="M66.0685 116.217C65.2823 116.217 64.4976 116.15 63.7229 116.016C56.7833 114.829 53.3829 111.247 51.7799 108.457C49.469 104.417 49.4967 99.7172 50.496 97.0655C51.3774 94.74 53.4246 93.5391 56.5751 93.4905C59.2122 93.4419 62.6473 94.1847 66.7902 95.7882C75.9158 99.259 79.8852 103.32 78.2752 107.589C76.6097 111.976 72.1892 116.217 66.0685 116.217ZM56.8111 94.0736H56.6168C53.7299 94.1153 51.8701 95.1912 51.0651 97.2737C50.1074 99.8005 50.0935 104.285 52.3073 108.165C54.521 112.046 58.5043 114.531 63.8409 115.44C70.8499 116.634 75.9574 112.094 77.7201 107.367C79.5799 102.438 72.6889 98.6482 66.5751 96.3366C62.6126 94.8303 59.3163 94.0736 56.8111 94.0736Z" fill="#231F20"/>
<path d="M77.998 107.471C76.2215 112.184 67.4637 111.83 59.9551 108.984C52.4465 106.138 49.0044 101.876 50.7879 97.1834C52.5714 92.4909 59.386 92.3243 66.9016 95.1565C74.4172 97.9886 79.7815 102.785 77.998 107.471Z" fill="white"/>
<path d="M70.288 111.428C66.7004 111.35 63.154 110.645 59.8092 109.345C55.9855 107.902 53.2166 106.104 51.5788 104.021C50.7799 103.075 50.2512 101.931 50.0484 100.709C49.8456 99.487 49.9764 98.2331 50.4269 97.0795C51.3221 94.7054 53.4734 93.2963 56.6725 92.9909C59.5455 92.7201 63.1402 93.3588 67.0819 94.8373C75.6731 98.093 80.1214 103.119 78.4073 107.645C77.3247 110.303 74.1603 111.428 70.288 111.428ZM58.0049 93.6295C57.5423 93.6295 57.112 93.6503 56.7141 93.692C54.7155 93.8794 52.1201 94.6638 51.1208 97.3016C50.7046 98.3383 50.5815 99.4695 50.7651 100.571C50.9487 101.673 51.4319 102.704 52.1618 103.549C53.6885 105.5 56.4296 107.263 60.0729 108.637C67.3178 111.379 75.9438 111.858 77.6509 107.339C78.8306 104.222 76.6863 99.2453 66.7557 95.4899C63.9719 94.3563 61.009 93.7264 58.0049 93.6295Z" fill="#231F20"/>
<path d="M51.5168 95.8435C51.5168 95.8435 56.0345 98.3703 57.1865 99.599C58.3385 100.828 59.1782 101.126 60.4828 101.897C61.7874 102.667 66.7631 104.347 68.3731 105.652C69.9831 106.957 69.8998 107.415 72.1275 107.644C73.8818 107.885 75.615 108.261 77.3113 108.769C77.6905 108.23 77.9985 107.644 78.2274 107.027C78.2274 107.027 74.7576 107.415 73.9595 106.492C73.2761 105.564 72.2627 104.932 71.1282 104.729C69.8995 104.617 68.7414 104.105 67.8318 103.271C67.0685 102.431 65.3058 100.821 63.2378 100.744C61.1698 100.668 60.5591 99.5157 59.0741 98.2939C57.589 97.0722 56.8534 97.2943 55.7014 96.5308C54.6148 95.8737 53.4884 95.2849 52.3288 94.7676C52.3288 94.7676 51.8985 95.2674 51.5168 95.8435Z" fill="#231F20"/>
<path d="M77.3108 109.033H77.2206C75.5421 108.532 73.8276 108.16 72.0923 107.922C71.5251 107.924 70.9635 107.809 70.442 107.586C69.9205 107.363 69.4501 107.035 69.0597 106.624C68.8237 106.409 68.5461 106.159 68.1853 105.86C67.2137 105.076 64.8751 104.104 63.0014 103.327C62.0896 102.978 61.1977 102.579 60.3297 102.133L59.5871 101.674C58.6203 101.193 57.7463 100.545 57.0056 99.7586C55.9022 98.5785 51.4539 96.0864 51.4053 96.0587C51.3691 96.0406 51.3376 96.0142 51.3135 95.9816C51.2893 95.949 51.2732 95.9112 51.2665 95.8712C51.2569 95.8307 51.2562 95.7886 51.2646 95.7478C51.273 95.7071 51.2903 95.6686 51.3151 95.6352C51.6968 95.0938 52.1548 94.5662 52.1687 94.5454C52.21 94.4962 52.2665 94.462 52.3292 94.4482C52.392 94.4344 52.4575 94.4417 52.5157 94.469C53.6899 94.9917 54.8303 95.5875 55.93 96.253C56.3158 96.5026 56.7337 96.6987 57.1721 96.8361C57.9648 97.0826 58.6975 97.4916 59.3234 98.037C59.6635 98.3217 59.9549 98.5993 60.2325 98.8631C61.1416 99.7308 61.8009 100.362 63.2859 100.418C65.5413 100.501 67.3942 102.278 68.0881 103.042C68.9426 103.84 70.0395 104.329 71.204 104.43C72.3837 104.646 73.439 105.298 74.1603 106.256C74.646 106.839 76.8737 106.832 78.1644 106.686C78.2108 106.682 78.2575 106.688 78.3008 106.705C78.3442 106.722 78.3831 106.749 78.4142 106.784C78.4454 106.818 78.4679 106.859 78.4799 106.904C78.492 106.948 78.4933 106.995 78.4836 107.04C78.2498 107.698 77.9251 108.319 77.519 108.887C77.4972 108.925 77.4672 108.958 77.4312 108.983C77.3952 109.008 77.3541 109.025 77.3108 109.033ZM51.9536 95.7116C52.9806 96.3016 56.3949 98.2869 57.4081 99.3629C58.1057 100.103 58.9307 100.712 59.8439 101.161L60.635 101.605C61.4797 102.036 62.346 102.423 63.2304 102.764C65.1457 103.556 67.5191 104.548 68.56 105.388C68.9348 105.687 69.254 105.944 69.4622 106.166C70.2463 106.86 70.5447 107.151 72.1617 107.318C73.864 107.543 75.5462 107.9 77.1929 108.387C77.4209 108.048 77.625 107.693 77.8036 107.325C76.7696 107.401 74.4309 107.471 73.7439 106.631C73.1093 105.754 72.1585 105.159 71.093 104.972C70.5447 104.895 68.6641 104.569 67.6232 103.424C66.9847 102.73 65.2707 101.064 63.2304 100.987C61.5233 100.925 60.7252 100.161 59.7606 99.2727C59.4969 99.0158 59.2124 98.7451 58.8862 98.4674C58.3112 97.9708 57.6404 97.5975 56.9154 97.3706C56.4254 97.22 55.9584 97.0028 55.5275 96.7251C54.5195 96.112 53.4742 95.5626 52.3977 95.0799C52.3214 95.2396 52.134 95.4686 51.9536 95.7116Z" fill="#231F20"/>
<path d="M51.4817 106.388C51.8278 108.967 51.2629 111.587 49.8846 113.795C48.5062 116.002 46.4007 117.659 43.9315 118.48C32.6477 122.222 26.9711 113.892 26.4506 109.539C25.9301 105.187 31.3083 103.104 38.1924 102.237C45.0765 101.369 50.9405 102.091 51.4817 106.388Z" fill="#D1D3D4"/>
<path d="M38.5465 119.66C36.1635 119.691 33.822 119.036 31.8012 117.772C28.3869 115.613 26.5063 112.011 26.194 109.567C25.9303 107.429 27.0059 105.68 29.4001 104.368C31.4056 103.264 34.355 102.466 38.1579 101.98C46.5478 100.925 51.239 102.438 51.7387 106.353C52.1093 108.998 51.5387 111.688 50.1268 113.955C48.7149 116.221 46.5515 117.919 44.0149 118.751C42.2524 119.345 40.4062 119.652 38.5465 119.66ZM42.9323 102.16C41.3633 102.171 39.7965 102.28 38.2411 102.487C34.5007 102.959 31.6138 103.743 29.6638 104.812C27.4709 106.013 26.4785 107.589 26.7214 109.505C27.0129 111.83 28.8033 115.273 32.0926 117.342C35.382 119.41 39.4209 119.709 43.89 118.244C46.3045 117.45 48.3645 115.834 49.7121 113.678C51.0597 111.523 51.6098 108.963 51.2668 106.443C50.8157 103.118 47.0961 102.16 42.9323 102.16Z" fill="#231F20"/>
<path d="M51.4814 106.388C52.0297 110.712 45.1803 114.024 38.2962 114.87C31.4121 115.717 27.0193 113.871 26.4989 109.539C25.9784 105.208 31.1068 102.32 38.0186 101.445C44.9304 100.571 50.9401 102.091 51.4814 106.388Z" fill="white"/>
<path d="M35.1324 115.454C33.3132 115.508 31.5027 115.182 29.8166 114.496C28.8087 114.091 27.9294 113.42 27.272 112.554C26.6147 111.689 26.2039 110.662 26.0831 109.582C25.8056 107.388 26.8881 105.417 29.2129 103.883C31.2948 102.494 34.3204 101.536 37.929 101.106C45.861 100.106 51.3225 102.175 51.8499 106.368C52.1275 108.54 50.7465 110.581 47.8596 112.275C43.9302 114.335 39.5685 115.434 35.1324 115.482V115.454ZM41.8152 101.571C40.5458 101.578 39.2781 101.664 38.0192 101.828C34.5494 102.272 31.6209 103.216 29.6154 104.521C28.172 105.472 26.5134 107.103 26.8396 109.505C26.9393 110.46 27.3004 111.369 27.8832 112.132C28.466 112.895 29.2478 113.483 30.1428 113.83C32.0928 114.705 34.8964 114.941 38.2413 114.524C41.4869 114.165 44.6326 113.182 47.5057 111.629C49.3239 110.56 51.4335 108.797 51.1351 106.451C50.8367 104.105 48.1511 101.557 41.8152 101.557V101.571Z" fill="#231F20"/>
<path d="M26.4647 108.193C26.4647 108.193 30.9546 108.297 32.3287 108.769C33.4518 109.111 34.6261 109.255 35.7985 109.192C37.1101 109.255 41.6069 108.498 43.3696 108.866C45.1322 109.234 45.2572 109.595 47.0476 108.866C48.4888 108.337 49.9691 107.922 51.475 107.624C51.5517 107.059 51.5517 106.487 51.475 105.923C51.475 105.923 48.956 107.631 48.0052 107.242C47.1049 106.805 46.0706 106.733 45.1184 107.04C44.1337 107.451 43.0423 107.529 42.0094 107.263C41.0795 106.922 39.074 106.409 37.464 107.186C35.854 107.964 34.9102 107.339 33.3002 106.985C31.6902 106.631 31.2184 107.124 30.0039 106.985C28.9063 106.915 27.8053 106.915 26.7076 106.985C26.7076 106.985 26.5411 107.644 26.4647 108.193Z" fill="#231F20"/>
<path d="M45.4168 109.54C45.0306 109.525 44.648 109.46 44.2787 109.346C44.015 109.276 43.7027 109.193 43.3072 109.117C42.2385 108.908 40.0594 109.117 38.3037 109.283C37.2211 109.38 36.2843 109.471 35.7777 109.45H35.0005C34.0578 109.477 33.1178 109.336 32.2246 109.033C30.8992 108.575 26.4786 108.471 26.4301 108.471C26.3969 108.461 26.3661 108.444 26.3398 108.421C26.3136 108.399 26.2923 108.371 26.2774 108.339C26.2541 108.312 26.2365 108.279 26.2258 108.245C26.2151 108.21 26.2114 108.174 26.2149 108.138C26.2913 107.569 26.4231 106.979 26.4301 106.951C26.443 106.899 26.4721 106.852 26.5132 106.817C26.5543 106.782 26.6053 106.761 26.6591 106.757C27.7705 106.684 28.8856 106.684 29.997 106.757C30.3959 106.787 30.7971 106.766 31.1906 106.694C31.8965 106.562 32.622 106.579 33.3211 106.743C33.6958 106.819 34.0151 106.916 34.3551 107.006C35.403 107.305 36.1594 107.52 37.3252 106.958C39.0879 106.111 41.2253 106.722 42.065 107.02C43.0431 107.277 44.0788 107.199 45.0074 106.798C46.0181 106.467 47.1179 106.542 48.0747 107.006C48.6854 107.256 50.3856 106.312 51.3224 105.708C51.3562 105.686 51.3948 105.672 51.435 105.668C51.4752 105.663 51.5159 105.668 51.5538 105.682C51.5917 105.697 51.6257 105.72 51.653 105.749C51.6803 105.779 51.7002 105.815 51.711 105.854C51.7925 106.451 51.7925 107.055 51.711 107.652C51.7045 107.706 51.6808 107.757 51.6434 107.797C51.6059 107.837 51.5567 107.864 51.5028 107.874C50.0137 108.17 48.5496 108.581 47.1239 109.103C46.5879 109.356 46.0085 109.504 45.4168 109.54ZM42.0719 108.527C42.5181 108.518 42.9641 108.551 43.4043 108.624C43.8138 108.7 44.0983 108.784 44.4106 108.853C44.8238 108.999 45.2635 109.056 45.7003 109.019C46.1371 108.982 46.5609 108.852 46.9435 108.638C48.3389 108.119 49.7729 107.71 51.2322 107.416C51.2576 107.062 51.2576 106.707 51.2322 106.354C50.4688 106.833 48.7131 107.839 47.8457 107.478C47.0047 107.067 46.0373 106.998 45.1462 107.284C44.1011 107.705 42.949 107.783 41.8568 107.506C41.0796 107.229 39.081 106.652 37.5057 107.423C36.9883 107.669 36.4246 107.803 35.8518 107.816C35.2789 107.83 34.7098 107.722 34.1816 107.499C33.8693 107.416 33.5432 107.319 33.1823 107.242C32.5421 107.095 31.8782 107.081 31.2323 107.201C30.7975 107.281 30.3541 107.302 29.9137 107.263C28.8946 107.2 27.8725 107.2 26.8534 107.263C26.8534 107.43 26.7701 107.673 26.7215 107.957C27.7486 107.957 31.1698 108.124 32.3773 108.534C33.2142 108.819 34.0959 108.951 34.9797 108.922H35.7638C36.2357 108.922 37.1518 108.853 38.2205 108.756C39.4626 108.659 40.9199 108.527 42.0719 108.527Z" fill="#231F20"/>
<path d="M70.4128 117.439C71.1067 122.708 68.546 129.753 61.2247 132.162C47.4913 136.688 40.6072 126.546 39.941 121.278C39.2748 116.009 45.8188 113.448 54.2366 112.385C62.6543 111.323 69.7535 112.17 70.4128 117.439Z" fill="#D1D3D4"/>
<path d="M54.6742 133.599C51.7718 133.637 48.9199 132.839 46.4577 131.302C42.2939 128.678 40.0108 124.284 39.6361 121.313C39.0323 116.453 43.9247 113.371 54.2092 112.08C64.4937 110.789 70.1703 112.635 70.7324 117.397C71.4264 122.951 68.7893 130.003 61.3362 132.454C59.1912 133.19 56.9418 133.577 54.6742 133.599ZM59.983 112.302C58.0731 112.317 56.1659 112.446 54.2717 112.691C47.4917 113.545 39.5597 115.724 40.2537 121.236C40.6076 124.068 42.8005 128.261 46.7838 130.781C50.7672 133.301 55.7012 133.655 61.128 131.871C68.248 129.524 70.774 122.763 70.1078 117.481C69.6012 113.462 65.0558 112.302 59.983 112.302Z" fill="#231F20"/>
<path d="M70.4129 117.44C71.1069 122.708 62.7377 126.707 54.3269 127.769C45.9162 128.831 40.6074 126.547 39.9412 121.278C39.275 116.01 45.5553 112.49 53.973 111.428C62.3908 110.366 69.7537 112.171 70.4129 117.44Z" fill="white"/>
<path d="M50.5658 128.393C44.1051 128.393 40.1564 125.908 39.5874 121.32C38.942 116.19 44.4451 112.296 53.9385 111.06C63.5429 109.852 70.1633 112.337 70.7948 117.391C71.1279 120.001 69.4554 122.458 65.9787 124.506C61.2213 127.004 55.9387 128.337 50.5658 128.393ZM58.6574 111.484C57.1116 111.499 55.5682 111.608 54.0356 111.81C45.1321 112.934 39.7539 116.669 40.3299 121.244C40.9545 126.207 46.0482 128.449 54.2993 127.415C58.263 126.976 62.1043 125.774 65.6109 123.874C67.8454 122.562 70.4339 120.404 70.0661 117.502C69.6983 114.6 66.4089 111.484 58.6435 111.484H58.6574Z" fill="#231F20"/>
<path d="M39.962 119.64C39.962 119.64 45.4304 119.765 47.1029 120.334C48.7753 120.903 49.7191 120.778 51.3083 120.855C52.8975 120.931 58.3797 120.036 60.5171 120.459C62.6545 120.882 62.8211 121.341 65.0001 120.459C66.7562 119.818 68.5588 119.312 70.3922 118.946C70.4847 118.255 70.4847 117.554 70.3922 116.863C70.3922 116.863 67.3179 118.946 66.1521 118.467C65.0531 117.94 63.7946 117.853 62.6337 118.224C61.4333 118.722 60.1037 118.817 58.8447 118.495C57.7205 118.085 55.2777 117.453 53.293 118.404C51.3083 119.355 50.191 118.585 48.2271 118.161C46.2632 117.738 45.6595 118.328 44.216 118.161C42.8779 118.079 41.536 118.079 40.198 118.161C40.198 118.161 40.0592 118.953 39.962 119.64Z" fill="#231F20"/>
<path d="M63.057 121.278C62.5861 121.259 62.1197 121.18 61.6691 121.042C61.3429 120.959 60.9751 120.861 60.4824 120.764C59.1847 120.507 56.5268 120.764 54.3964 120.966C53.0709 121.084 51.9328 121.195 51.3152 121.167H50.3783C49.2396 121.203 48.1039 121.031 47.0265 120.66C45.4096 120.105 40.0314 119.966 39.9759 119.966C39.9327 119.963 39.8904 119.952 39.8517 119.933C39.813 119.913 39.7786 119.886 39.7507 119.853C39.7228 119.82 39.7019 119.782 39.6893 119.74C39.6767 119.699 39.6727 119.655 39.6775 119.612C39.7746 118.918 39.9343 118.224 39.9412 118.168C39.956 118.104 39.9909 118.047 40.0409 118.004C40.0909 117.962 40.1533 117.936 40.2188 117.932C41.5729 117.843 42.9313 117.843 44.2854 117.932C44.7701 117.972 45.2579 117.946 45.7358 117.856C46.5958 117.699 47.4787 117.717 48.3312 117.911C48.7892 118.015 49.1986 118.126 49.5872 118.238C50.8641 118.598 51.7871 118.862 53.2028 118.182C55.3471 117.148 57.9495 117.89 58.9696 118.258C60.1602 118.567 61.4197 118.472 62.5504 117.988C63.7827 117.584 65.1231 117.674 66.2909 118.238C67.0264 118.536 69.1014 117.432 70.2395 116.662C70.2796 116.634 70.3258 116.617 70.3741 116.611C70.4223 116.605 70.4714 116.61 70.5171 116.627C70.5631 116.645 70.6045 116.673 70.6381 116.709C70.6718 116.745 70.6968 116.788 70.7114 116.835C70.8142 117.563 70.8142 118.301 70.7114 119.029C70.7024 119.093 70.6735 119.154 70.6287 119.201C70.584 119.248 70.5255 119.28 70.4615 119.293C68.6497 119.654 66.868 120.153 65.1319 120.785C64.4786 121.082 63.774 121.249 63.057 121.278ZM58.9904 120.042C59.5318 120.033 60.073 120.072 60.6073 120.16C61.107 120.258 61.4956 120.355 61.8287 120.445C62.9182 120.723 63.3207 120.827 64.9168 120.181C66.6154 119.552 68.3601 119.055 70.1354 118.696C70.1783 118.267 70.1922 117.835 70.177 117.405C69.2541 117.988 67.1097 119.202 66.0618 118.793C65.0367 118.293 63.8584 118.209 62.7725 118.557C62.2242 118.758 60.3089 119.376 58.7683 118.821C57.8245 118.48 55.4096 117.786 53.4734 118.723C51.8495 119.508 50.6976 119.189 49.4276 118.821C49.0459 118.71 48.6504 118.598 48.2063 118.501C47.4272 118.32 46.6188 118.304 45.8329 118.453C45.3042 118.548 44.7653 118.574 44.2299 118.529C42.9889 118.451 41.7443 118.451 40.5033 118.529C40.4617 118.73 40.3992 119.036 40.3506 119.355C41.5928 119.397 45.7635 119.556 47.2347 120.049C48.253 120.394 49.3247 120.554 50.3992 120.521H51.3499C52.3521 120.508 53.3528 120.441 54.3478 120.32C55.8121 120.209 57.5608 120.042 58.9626 120.042H58.9904Z" fill="#231F20"/>
<path d="M103.265 121.431C103.216 126.741 99.7951 133.377 92.1615 134.786C77.9423 137.438 72.4808 126.456 72.5294 121.146C72.578 115.836 79.3996 114.204 87.8798 114.253C96.36 114.302 103.307 116.113 103.265 121.431Z" fill="#D1D3D4"/>
<path d="M88.0393 135.501C84.2652 135.603 80.5811 134.339 77.6646 131.94C73.9034 128.782 72.224 124.124 72.2448 121.132C72.2934 116.273 77.5675 113.85 87.9075 113.934C92.5917 113.975 96.2905 114.531 98.8998 115.579C102.03 116.835 103.598 118.8 103.577 121.417C103.522 126.97 99.9546 133.641 92.2447 135.078C90.8589 135.348 89.4512 135.49 88.0393 135.501ZM87.3454 114.586C80.6348 114.586 72.8971 115.766 72.8416 121.181C72.8416 124.034 74.4308 128.483 78.0394 131.51C81.648 134.537 86.4918 135.557 92.1129 134.516C99.4827 133.127 102.89 126.783 102.939 121.452C102.939 119.112 101.516 117.342 98.65 116.19C96.1101 115.169 92.4876 114.635 87.8867 114.593L87.3454 114.586Z" fill="#231F20"/>
<path d="M103.265 121.43C103.216 126.741 94.4239 129.587 85.9159 129.51C77.408 129.434 72.4808 126.463 72.5294 121.146C72.578 115.828 79.2955 113.198 87.7757 113.267C96.2559 113.336 103.307 116.113 103.265 121.43Z" fill="white"/>
<path d="M86.2699 129.858H85.9576C81.6411 129.823 78.2546 129.053 75.8743 127.588C74.7366 126.942 73.7947 126 73.1484 124.863C72.5021 123.725 72.1756 122.434 72.2033 121.125C72.2519 115.954 78.2199 112.795 87.7966 112.879C92.1754 112.92 96.1241 113.684 98.8999 115.03C102.037 116.551 103.681 118.758 103.66 121.41C103.584 126.949 94.7153 129.858 86.2699 129.858ZM87.4079 113.621C78.6363 113.621 72.9667 116.551 72.925 121.132C72.8919 122.314 73.1838 123.482 73.7687 124.509C74.3536 125.536 75.2092 126.382 76.2421 126.956C78.5044 128.345 81.7938 129.08 85.9576 129.115C94.1185 129.191 102.862 126.512 102.911 121.403C102.911 118.439 100.565 116.669 98.5738 115.697C95.8881 114.399 92.0575 113.656 87.7827 113.614L87.4079 113.621Z" fill="#231F20"/>
<path d="M72.7727 119.529C72.7727 119.529 78.1648 120.39 79.747 121.181C81.3292 121.972 82.28 121.972 83.8483 122.257C85.4167 122.542 90.9614 122.396 93.0294 123.097C95.0974 123.798 95.1876 124.284 97.4707 123.708C99.2985 123.306 101.155 123.046 103.022 122.93C103.204 122.251 103.297 121.551 103.3 120.848C103.3 120.848 99.9759 122.5 98.8795 121.868C97.8558 121.197 96.6125 120.949 95.4097 121.174C93.0155 121.709 90.781 120.154 88.3243 119.959C84.6186 119.668 80.7532 119.522 77.1794 118.661C75.8636 118.407 74.5332 118.235 73.196 118.147C73.196 118.147 72.9809 118.862 72.7727 119.529Z" fill="#231F20"/>
<path d="M95.8674 124.304C95.2527 124.284 94.6494 124.132 94.0978 123.86C93.7855 123.735 93.4038 123.583 92.9597 123.43C91.7036 122.999 89.0388 122.895 86.9014 122.805C85.8715 122.789 84.843 122.719 83.8202 122.597C83.4871 122.534 83.1818 122.486 82.8903 122.444C81.7578 122.322 80.6559 122 79.6357 121.493C78.1159 120.73 72.8002 119.876 72.7516 119.869C72.7078 119.863 72.6659 119.847 72.6288 119.823C72.5916 119.799 72.5601 119.767 72.5365 119.73C72.5174 119.691 72.5076 119.648 72.5076 119.605C72.5076 119.562 72.5174 119.519 72.5365 119.48C72.7169 118.786 72.9736 118.092 72.9875 118.092C73.0123 118.03 73.0559 117.979 73.112 117.944C73.1681 117.909 73.2339 117.892 73.2998 117.897C74.6511 117.985 75.9955 118.159 77.3248 118.418C80.3376 119.047 83.3964 119.43 86.4712 119.563L88.4212 119.709C89.425 119.829 90.412 120.062 91.3636 120.403C92.7515 120.834 94.0631 121.243 95.4163 120.938C96.6909 120.703 98.0069 120.971 99.0874 121.687C99.7813 122.083 101.988 121.264 103.216 120.653C103.26 120.633 103.307 120.622 103.355 120.622C103.403 120.622 103.451 120.633 103.494 120.653C103.539 120.676 103.577 120.71 103.606 120.751C103.635 120.792 103.654 120.839 103.661 120.889C103.664 121.623 103.568 122.354 103.376 123.062C103.358 123.125 103.321 123.18 103.27 123.221C103.219 123.262 103.157 123.286 103.092 123.291C101.247 123.407 99.4142 123.664 97.6092 124.061C97.0413 124.216 96.4559 124.298 95.8674 124.304ZM73.1888 119.313C74.4171 119.522 78.5253 120.244 79.9132 120.938C80.8758 121.419 81.9172 121.722 82.9875 121.833C83.2789 121.882 83.5912 121.923 83.9313 121.986C84.9239 122.107 85.9223 122.174 86.9222 122.187C89.1082 122.277 91.8216 122.389 93.1679 122.84C93.6467 123.006 94.0214 123.159 94.3407 123.284C95.3816 123.707 95.7702 123.867 97.4357 123.437C99.2036 123.042 100.999 122.784 102.807 122.666C102.906 122.248 102.978 121.824 103.022 121.396C102.03 121.847 99.7466 122.784 98.7612 122.201C97.8152 121.562 96.6592 121.314 95.5343 121.507C94.0145 121.847 92.5641 121.396 91.1554 120.959C90.2577 120.637 89.3265 120.418 88.3796 120.306C87.7342 120.251 87.0818 120.209 86.4295 120.16C83.3224 120.02 80.2315 119.632 77.186 119.001C75.9672 118.758 74.734 118.593 73.4941 118.508C73.3831 118.675 73.2859 118.966 73.1888 119.279V119.313Z" fill="#231F20"/>
</svg>
