<svg width="38" height="32" viewBox="0 0 38 32" fill="none" xmlns="http://www.w3.org/2000/svg">
<path d="M7.30762 2.32733C7.30762 2.01872 7.43081 1.72274 7.65008 1.50452C7.86935 1.28629 8.16675 1.1637 8.47685 1.1637H15.4922C15.8023 1.1637 16.0997 1.28629 16.319 1.50452C16.5383 1.72274 16.6615 2.01872 16.6615 2.32733V9.30915C16.6615 9.61777 16.5383 9.91374 16.319 10.132C16.0997 10.3502 15.8023 10.4728 15.4922 10.4728H8.47685C8.16675 10.4728 7.86935 10.3502 7.65008 10.132C7.43081 9.91374 7.30762 9.61777 7.30762 9.30915V2.32733ZM22.5076 1.1637C22.1975 1.1637 21.9001 1.28629 21.6808 1.50452C21.4616 1.72274 21.3384 2.01872 21.3384 2.32733V9.30915C21.3384 9.61777 21.4616 9.91374 21.6808 10.132C21.9001 10.3502 22.1975 10.4728 22.5076 10.4728H29.523C29.8331 10.4728 30.1305 10.3502 30.3498 10.132C30.5691 9.91374 30.6922 9.61777 30.6922 9.30915V2.32733C30.6922 2.01872 30.5691 1.72274 30.3498 1.50452C30.1305 1.28629 29.8331 1.1637 29.523 1.1637H22.5076ZM23.6769 8.14551V3.49097H28.3538V8.14551H23.6769ZM0.292236 22.1092C0.292236 19.6402 1.27773 17.2724 3.03191 15.5266C4.7861 13.7808 7.16529 12.8001 9.64608 12.8001H28.3538C30.8346 12.8001 33.2138 13.7808 34.9679 15.5266C36.7221 17.2724 37.7076 19.6402 37.7076 22.1092C37.7076 24.5781 36.7221 26.9459 34.9679 28.6917C33.2138 30.4375 30.8346 31.4182 28.3538 31.4182H9.64608C7.16529 31.4182 4.7861 30.4375 3.03191 28.6917C1.27773 26.9459 0.292236 24.5781 0.292236 22.1092ZM11.9845 22.1092C11.9845 21.4919 11.7382 20.9 11.2996 20.4635C10.8611 20.0271 10.2663 19.7819 9.64608 19.7819C9.02588 19.7819 8.43109 20.0271 7.99254 20.4635C7.55399 20.9 7.30762 21.4919 7.30762 22.1092C7.30762 22.7264 7.55399 23.3183 7.99254 23.7548C8.43109 24.1912 9.02588 24.4364 9.64608 24.4364C10.2663 24.4364 10.8611 24.1912 11.2996 23.7548C11.7382 23.3183 11.9845 22.7264 11.9845 22.1092ZM21.3384 22.1092C21.3384 21.4919 21.092 20.9 20.6535 20.4635C20.2149 20.0271 19.6201 19.7819 18.9999 19.7819C18.3797 19.7819 17.7849 20.0271 17.3464 20.4635C16.9078 20.9 16.6615 21.4919 16.6615 22.1092C16.6615 22.7264 16.9078 23.3183 17.3464 23.7548C17.7849 24.1912 18.3797 24.4364 18.9999 24.4364C19.6201 24.4364 20.2149 24.1912 20.6535 23.7548C21.092 23.3183 21.3384 22.7264 21.3384 22.1092ZM28.3538 24.4364C28.974 24.4364 29.5688 24.1912 30.0073 23.7548C30.4459 23.3183 30.6922 22.7264 30.6922 22.1092C30.6922 21.4919 30.4459 20.9 30.0073 20.4635C29.5688 20.0271 28.974 19.7819 28.3538 19.7819C27.7336 19.7819 27.1388 20.0271 26.7002 20.4635C26.2617 20.9 26.0153 21.4919 26.0153 22.1092C26.0153 22.7264 26.2617 23.3183 26.7002 23.7548C27.1388 24.1912 27.7336 24.4364 28.3538 24.4364V24.4364Z"/>
</svg>
