<svg width="32" height="32" viewBox="0 0 32 32" xmlns="http://www.w3.org/2000/svg">
<path d="M4.59995 10.8333H1.09995C0.599951 10.8333 0.199951 11.2333 0.199951 11.7333V30.8999C0.199951 31.3999 0.599951 31.7999 1.09995 31.7999H4.59995C5.09995 31.7999 5.49995 31.3999 5.49995 30.8999V11.7666C5.49995 11.2666 5.09995 10.8333 4.59995 10.8333Z" />
<path d="M13.3666 16.2333H9.86655C9.36655 16.2333 8.96655 16.6333 8.96655 17.1333V30.8999C8.96655 31.3999 9.36655 31.7999 9.86655 31.7999H13.3666C13.8666 31.7999 14.2666 31.3999 14.2666 30.8999V17.1333C14.2999 16.6333 13.8666 16.2333 13.3666 16.2333Z" />
<path d="M22.1333 22.9666H18.6333C18.1333 22.9666 17.7333 23.3666 17.7333 23.8666V30.8999C17.7333 31.3999 18.1333 31.7999 18.6333 31.7999H22.1333C22.6333 31.7999 23.0333 31.3999 23.0333 30.8999V23.8666C23.0666 23.3666 22.6333 22.9666 22.1333 22.9666Z" />
<path d="M30.9 24.6666H27.4C26.9 24.6666 26.5 25.0666 26.5 25.5666V30.9C26.5 31.4 26.9 31.8 27.4 31.8H30.9C31.4 31.8 31.8 31.4 31.8 30.9V25.5666C31.8333 25.1 31.4333 24.6666 30.9 24.6666Z" />
<path d="M20.7332 17.6999C19.9665 18.5333 20.4332 19.8999 21.5665 20.0999L29.9665 21.6333C31.0332 21.8333 31.9332 20.8333 31.6332 19.7666L29.1332 11.5999C28.7999 10.4999 27.3999 10.1999 26.6665 11.0666L24.9332 12.9999L17.4665 6.29993C16.7332 5.63326 15.5999 5.6666 14.9332 6.39993L12.5999 8.79993L3.43321 0.633263C2.66655 -0.0334041 1.49988 0.0332626 0.833214 0.799929C0.166547 1.5666 0.233214 2.73326 0.99988 3.39993L11.4665 12.6999C12.1999 13.3666 13.3332 13.2999 13.9999 12.5999L16.3332 10.1999L22.4665 15.6999L20.7332 17.6999Z" />
</svg>
