<svg width="39" height="32" viewBox="0 0 39 32" fill="none" xmlns="http://www.w3.org/2000/svg">
<g clip-path="url(#clip0)">
<path d="M34.1472 3.23743V6.83001C35.552 8.86084 36.4907 12.0121 36.4907 15.5141C36.4907 21.4782 33.8118 26.5182 30.6431 26.5182C29.0203 26.5182 27.5348 25.1886 26.4666 23.1044L24.6234 24.9486C26.1331 27.47 28.2504 29.0294 30.6431 29.0294C35.3285 29.0298 39 23.0926 39 15.5145C39 9.97928 37.0293 5.34904 34.1472 3.23743Z"/>
<path d="M29.128 0.169824C30.5082 0.169824 31.638 1.30036 31.638 2.68104L31.6403 11.8654C31.6403 13.2461 31.6403 14.377 31.6403 14.377C31.6403 14.377 30.8412 15.1763 29.8658 16.1523L14.93 31.0974C14.4421 31.5856 13.8002 31.8307 13.1555 31.8307C12.5108 31.8307 11.8685 31.5856 11.3814 31.0974L0.731665 20.4438C-0.243725 19.4682 -0.243725 17.8689 0.731665 16.8929L15.6675 1.94973C16.6429 0.971385 17.442 0.174507 17.442 0.174507C17.442 0.174507 18.5718 0.169434 19.9516 0.169434H29.128V0.169824ZM24.2752 10.0528C24.9171 10.0528 25.5595 9.80768 26.0493 9.31714C27.0301 8.33607 27.0301 6.74699 26.0493 5.76592C25.5595 5.27538 24.9175 5.03031 24.2752 5.03031C23.6329 5.03031 22.9905 5.27538 22.5007 5.76592C21.5179 6.74699 21.5198 8.33607 22.5007 9.31714C22.9905 9.80768 23.6332 10.0528 24.2752 10.0528Z"/>
</g>
<defs>
<clipPath id="clip0">
<rect width="39" height="32" fill="white"/>
</clipPath>
</defs>
</svg>
