<svg width="31" height="32" viewBox="0 0 31 32" fill="none" xmlns="http://www.w3.org/2000/svg">
<path d="M24.2946 16.8666V13.7666C21.7674 14.1666 19.0381 14.3999 16.5783 14.4999V14.6333C16.5783 16.0666 15.3989 17.1999 13.9837 17.1999H11.9957C10.5468 17.1999 9.40112 16.0333 9.40112 14.6333V14.4999C6.94134 14.3666 4.21199 14.1666 1.68481 13.7666V20.8999C1.68481 22.1666 2.72938 23.1999 4.00981 23.1999H16.1066C17.0837 19.6333 20.3522 16.9333 24.2946 16.8666Z"/>
<path d="M11.9957 10.1333H13.9837C15.3989 10.1333 16.5783 11.2666 16.5783 12.7C20.1837 12.5666 23.1489 12.1666 25.4402 11.7333C25.7435 11.6666 25.9793 11.4 25.9793 11.0666V7.46663C25.9793 6.19996 24.9348 5.16663 23.6543 5.16663H18.4652V3.46663C18.4652 1.63329 16.9826 0.166626 15.1293 0.166626H10.85C8.99674 0.166626 7.51413 1.63329 7.51413 3.46663V5.16663H2.325C1.04457 5.16663 0 6.19996 0 7.46663V11.0333C0 11.3666 0.23587 11.6333 0.53913 11.7C2.83043 12.1333 5.79565 12.5333 9.40109 12.6666C9.43478 11.2666 10.5804 10.1333 11.9957 10.1333ZM10.1424 3.46663C10.1424 3.06663 10.4457 2.76663 10.85 2.76663H15.1293C15.5337 2.76663 15.837 3.06663 15.837 3.46663V5.16663H10.1424V3.46663Z"/>
<path d="M11.9955 11.9667C11.5911 11.9667 11.2542 12.3 11.2542 12.7V14.6333C11.2542 15.0333 11.5911 15.3667 11.9955 15.3667H13.9498C14.3542 15.3667 14.6911 15.0333 14.6911 14.6333V12.7C14.6911 12.3 14.3542 11.9667 13.9498 11.9667H11.9955Z"/>
<path d="M24.463 18.8666C20.8575 18.8666 17.926 21.7666 17.926 25.3332C17.926 28.8999 20.8575 31.7999 24.463 31.7999C28.0684 31.7999 30.9999 28.9332 30.9999 25.3666C30.9999 21.7999 28.0684 18.8666 24.463 18.8666ZM24.463 29.1999C22.3065 29.1999 20.5543 27.4666 20.5543 25.3332C20.5543 24.7666 20.6891 24.1999 20.9249 23.6999L26.1141 28.8332C25.5749 29.0999 25.0358 29.1999 24.463 29.1999ZM27.9673 26.9999L22.7782 21.8666C23.2836 21.6332 23.8565 21.4999 24.4293 21.4999C26.5858 21.4999 28.338 23.2332 28.338 25.3666C28.338 25.9332 28.2369 26.4666 27.9673 26.9999Z"/>
</svg>
